<svg width="80" height="56" viewBox="0 0 80 56" fill="none" xmlns="http://www.w3.org/2000/svg">
<path d="M3.32804 56C1.12566 50.9537 -0.00747755 45.5059 3.71329e-05 40C3.71329e-05 17.908 17.908 0 40 0C62.092 0 80 17.908 80 40C80.0076 45.5059 78.8744 50.9537 76.672 56H3.32804ZM70.992 48C72.2061 43.2731 72.3229 38.3311 71.3336 33.5521C70.3442 28.7731 68.2748 24.2837 65.2838 20.4274C62.2928 16.571 58.4593 13.4499 54.0767 11.3028C49.6941 9.15562 44.8784 8.03935 39.998 8.03935C35.1177 8.03935 30.302 9.15562 25.9194 11.3028C21.5368 13.4499 17.7033 16.571 14.7123 20.4274C11.7212 24.2837 9.65188 28.7731 8.6625 33.5521C7.67313 38.3311 7.78995 43.2731 9.00404 48H70.992ZM40 20C38.9392 20 37.9218 19.5786 37.1716 18.8284C36.4215 18.0783 36 17.0609 36 16C36 14.9391 36.4215 13.9217 37.1716 13.1716C37.9218 12.4214 38.9392 12 40 12C41.0609 12 42.0783 12.4214 42.8285 13.1716C43.5786 13.9217 44 14.9391 44 16C44 17.0609 43.5786 18.0783 42.8285 18.8284C42.0783 19.5786 41.0609 20 40 20ZM20 36C18.9392 36 17.9218 35.5786 17.1716 34.8284C16.4215 34.0783 16 33.0609 16 32C16 30.9391 16.4215 29.9217 17.1716 29.1716C17.9218 28.4214 18.9392 28 20 28C21.0609 28 22.0783 28.4214 22.8285 29.1716C23.5786 29.9217 24 30.9391 24 32C24 33.0609 23.5786 34.0783 22.8285 34.8284C22.0783 35.5786 21.0609 36 20 36ZM60 36C58.9392 36 57.9218 35.5786 57.1716 34.8284C56.4215 34.0783 56 33.0609 56 32C56 30.9391 56.4215 29.9217 57.1716 29.1716C57.9218 28.4214 58.9392 28 60 28C61.0609 28 62.0783 28.4214 62.8285 29.1716C63.5786 29.9217 64 30.9391 64 32C64 33.0609 63.5786 34.0783 62.8285 34.8284C62.0783 35.5786 61.0609 36 60 36ZM40 24C41.0609 24 42.0783 24.4214 42.8285 25.1716C43.5786 25.9217 44 26.9391 44 28V40C44 41.0609 43.5786 42.0783 42.8285 42.8284C42.0783 43.5786 41.0609 44 40 44C38.9392 44 37.9218 43.5786 37.1716 42.8284C36.4215 42.0783 36 41.0609 36 40V28C36 26.9391 36.4215 25.9217 37.1716 25.1716C37.9218 24.4214 38.9392 24 40 24Z" fill="#12376E"/>
</svg>
