<svg width="80" height="64" viewBox="0 0 80 64" fill="none" xmlns="http://www.w3.org/2000/svg">
<path d="M8 52V56H20V8H8V44H12V52H8ZM4 0H24C25.0609 0 26.0783 0.421427 26.8284 1.17157C27.5786 1.92172 28 2.93913 28 4V60C28 61.0609 27.5786 62.0783 26.8284 62.8284C26.0783 63.5786 25.0609 64 24 64H4C2.93913 64 1.92172 63.5786 1.17157 62.8284C0.421427 62.0783 0 61.0609 0 60V4C0 2.93913 0.421427 1.92172 1.17157 1.17157C1.92172 0.421427 2.93913 0 4 0ZM40 12H72C74.1217 12 76.1566 12.8429 77.6569 14.3431C79.1571 15.8434 80 17.8783 80 20V44C80 46.1217 79.1571 48.1566 77.6569 49.6569C76.1566 51.1571 74.1217 52 72 52H40C37.8783 52 35.8434 51.1571 34.3431 49.6569C32.8429 48.1566 32 46.1217 32 44V20C32 17.8783 32.8429 15.8434 34.3431 14.3431C35.8434 12.8429 37.8783 12 40 12ZM40 20V44H72V20H40ZM48 56H64C65.0609 56 66.0783 56.4214 66.8284 57.1716C67.5786 57.9217 68 58.9391 68 60C68 61.0609 67.5786 62.0783 66.8284 62.8284C66.0783 63.5786 65.0609 64 64 64H48C46.9391 64 45.9217 63.5786 45.1716 62.8284C44.4214 62.0783 44 61.0609 44 60C44 58.9391 44.4214 57.9217 45.1716 57.1716C45.9217 56.4214 46.9391 56 48 56Z" fill="#12376E"/>
</svg>
