<svg width="49" height="48" viewBox="0 0 49 48" fill="none" xmlns="http://www.w3.org/2000/svg">
<path d="M18.668 4H30.668C32.2593 4 33.7854 4.63214 34.9106 5.75736C36.0358 6.88258 36.668 8.4087 36.668 10V38C36.668 39.5913 36.0358 41.1174 34.9106 42.2426C33.7854 43.3679 32.2593 44 30.668 44H18.668C17.0767 44 15.5505 43.3679 14.4253 42.2426C13.3001 41.1174 12.668 39.5913 12.668 38V10C12.668 8.4087 13.3001 6.88258 14.4253 5.75736C15.5505 4.63214 17.0767 4 18.668 4ZM18.668 8C18.1375 8 17.6288 8.21071 17.2538 8.58579C16.8787 8.96086 16.668 9.46957 16.668 10V38C16.668 38.5304 16.8787 39.0391 17.2538 39.4142C17.6288 39.7893 18.1375 40 18.668 40H30.668C31.1984 40 31.7071 39.7893 32.0822 39.4142C32.4573 39.0391 32.668 38.5304 32.668 38V10C32.668 9.46957 32.4573 8.96086 32.0822 8.58579C31.7071 8.21071 31.1984 8 30.668 8H18.668ZM24.668 38C24.1375 38 23.6288 37.7893 23.2538 37.4142C22.8787 37.0391 22.668 36.5304 22.668 36C22.668 35.4696 22.8787 34.9609 23.2538 34.5858C23.6288 34.2107 24.1375 34 24.668 34C25.1984 34 25.7071 34.2107 26.0822 34.5858C26.4573 34.9609 26.668 35.4696 26.668 36C26.668 36.5304 26.4573 37.0391 26.0822 37.4142C25.7071 37.7893 25.1984 38 24.668 38Z" fill="#12376E"/>
</svg>
