<svg width="48" height="48" viewBox="0 0 48 48" fill="none" xmlns="http://www.w3.org/2000/svg">
<path d="M20 8V12H28V8H20ZM32 8H34C35.0609 8 36.0783 8.42143 36.8284 9.17157C37.5786 9.92172 38 10.9391 38 12V40C38 41.0609 37.5786 42.0783 36.8284 42.8284C36.0783 43.5786 35.0609 44 34 44H14C12.9391 44 11.9217 43.5786 11.1716 42.8284C10.4214 42.0783 10 41.0609 10 40V12C10 10.9391 10.4214 9.92172 11.1716 9.17157C11.9217 8.42143 12.9391 8 14 8H16C16 6.93913 16.4214 5.92172 17.1716 5.17157C17.9217 4.42143 18.9391 4 20 4H28C29.0609 4 30.0783 4.42143 30.8284 5.17157C31.5786 5.92172 32 6.93913 32 8ZM32 12C32 13.0609 31.5786 14.0783 30.8284 14.8284C30.0783 15.5786 29.0609 16 28 16H20C18.9391 16 17.9217 15.5786 17.1716 14.8284C16.4214 14.0783 16 13.0609 16 12H14V40H34V12H32ZM18 20H30C30.5304 20 31.0391 20.2107 31.4142 20.5858C31.7893 20.9609 32 21.4696 32 22C32 22.5304 31.7893 23.0391 31.4142 23.4142C31.0391 23.7893 30.5304 24 30 24H18C17.4696 24 16.9609 23.7893 16.5858 23.4142C16.2107 23.0391 16 22.5304 16 22C16 21.4696 16.2107 20.9609 16.5858 20.5858C16.9609 20.2107 17.4696 20 18 20ZM18 30H30C30.5304 30 31.0391 30.2107 31.4142 30.5858C31.7893 30.9609 32 31.4696 32 32C32 32.5304 31.7893 33.0391 31.4142 33.4142C31.0391 33.7893 30.5304 34 30 34H18C17.4696 34 16.9609 33.7893 16.5858 33.4142C16.2107 33.0391 16 32.5304 16 32C16 31.4696 16.2107 30.9609 16.5858 30.5858C16.9609 30.2107 17.4696 30 18 30Z" fill="#12376E"/>
</svg>
