<svg width="40" height="44" viewBox="0 0 40 44" fill="none" xmlns="http://www.w3.org/2000/svg">
<path d="M21.9195 4.22805C22.0795 4.24005 22.2395 4.25205 22.3635 4.27205C31.3635 5.70405 35.5075 10.1041 36.6555 19.4721C36.6755 19.6321 36.6755 19.8241 36.6795 20.0321C36.6915 20.7641 36.7155 22.2841 38.2995 22.3161H38.3475C38.565 22.3276 38.7825 22.2926 38.9853 22.2132C39.1881 22.1339 39.3716 22.0121 39.5235 21.8561C40.0155 21.3241 39.9835 20.5361 39.9555 19.8961C39.9475 19.7441 39.9395 19.5961 39.9435 19.4681C40.0555 9.88805 32.0235 1.20005 22.7515 0.880051L22.6395 0.884052C22.6038 0.889311 22.5677 0.891984 22.5315 0.892052C22.4395 0.892052 22.3235 0.884051 22.2035 0.876051C22.0595 0.864051 21.8915 0.852051 21.7235 0.852051C20.2475 0.852051 19.9675 1.93205 19.9315 2.58005C19.8515 4.07205 21.2475 4.18005 21.9195 4.22805ZM36.2195 31.5761C36.0269 31.4252 35.8362 31.2718 35.6475 31.1161C34.6635 30.3001 33.6155 29.5481 32.6075 28.8201C32.3966 28.6684 32.1859 28.5164 31.9755 28.364C30.6795 27.428 29.5155 26.9681 28.4155 26.9681C26.9355 26.9681 25.6435 27.8161 24.5755 29.4841C24.1035 30.2201 23.5275 30.5801 22.8235 30.5801C22.332 30.5625 21.8502 30.4383 21.4115 30.2161C17.2315 28.2561 14.2435 25.2561 12.5355 21.2961C11.7115 19.3761 11.9755 18.1281 13.4315 17.1081C14.2555 16.5321 15.7915 15.4561 15.6835 13.3961C15.5635 11.0561 10.5595 4.01605 8.45153 3.21605C7.5523 2.87669 6.5607 2.87385 5.65953 3.20805C3.23953 4.04805 1.49953 5.52805 0.631533 7.47605C-0.208467 9.36405 -0.168467 11.5761 0.743533 13.8801C3.37153 20.5441 7.06354 26.3521 11.7275 31.1441C16.2875 35.8361 21.8955 39.676 28.3915 42.564C28.9755 42.824 29.5915 42.9641 30.0395 43.0681L30.4195 43.1641C30.4716 43.179 30.5254 43.1871 30.5795 43.188H30.6315C33.6875 43.188 37.3555 40.3081 38.4835 37.0201C39.4715 34.14 37.6675 32.7201 36.2195 31.5801V31.5761ZM23.2715 11.8401C22.7515 11.8521 21.6595 11.88 21.2755 13.024C21.0995 13.56 21.1195 14.0241 21.3395 14.4041C21.6635 14.9641 22.2875 15.1361 22.8515 15.2281C24.8995 15.5681 25.9555 16.7401 26.1635 18.9081C26.2635 19.9241 26.9235 20.628 27.7715 20.628C27.8356 20.6294 27.8998 20.6267 27.9635 20.6201C28.9835 20.4921 29.4755 19.7201 29.4315 18.3201C29.4475 16.8561 28.7075 15.2001 27.4475 13.8801C26.1835 12.5521 24.6595 11.8041 23.2715 11.8401Z" fill="#12376E"/>
</svg>
