<svg width="49" height="48" viewBox="0 0 49 48" fill="none" xmlns="http://www.w3.org/2000/svg">
<rect width="48" height="48" transform="translate(0.333984)" fill="white"/>
<path d="M20.334 40H16.334H10.334V4H32.334C33.9253 4 35.4514 4.63214 36.5766 5.75736C37.7018 6.88258 38.334 8.4087 38.334 10V34C38.334 35.5913 37.7018 37.1174 36.5766 38.2426C35.4514 39.3679 33.9253 40 32.334 40H20.334ZM16.334 8H14.334V36H16.334V8ZM20.334 8V36H32.334C32.8644 36 33.3731 35.7893 33.7482 35.4142C34.1233 35.0391 34.334 34.5304 34.334 34V10C34.334 9.46957 34.1233 8.96086 33.7482 8.58579C33.3731 8.21071 32.8644 8 32.334 8H20.334ZM22.334 12H32.334V16H22.334V12ZM22.334 18H32.334V22H22.334V18Z" fill="#12376E"/>
</svg>
