<svg width="604" height="450" viewBox="0 0 604 450" fill="none" xmlns="http://www.w3.org/2000/svg">
<path d="M603.929 395.453H0V395.755H603.929V395.453Z" fill="white"/>
<path d="M538.197 403.219H510.114V403.521H538.197V403.219Z" fill="white"/>
<path d="M436.037 409.778H302.653V410.08H436.037V409.778Z" fill="white"/>
<path d="M245.594 409.935H232.513V410.237H245.594V409.935Z" fill="white"/>
<path d="M139.58 406.311H94.2129V406.613H139.58V406.311Z" fill="white"/>
<path d="M498.423 403.219H471.874V403.521H498.423V403.219Z" fill="white"/>
<path d="M84.3567 406.311H62.3857V406.613H84.3567V406.311Z" fill="white"/>
<path d="M286.263 341.582H53.0371C51.2101 341.579 49.4589 340.851 48.1681 339.558C46.8773 338.265 46.1523 336.513 46.1523 334.685V6.83648C46.1682 5.01989 46.9002 3.28293 48.1893 2.00289C49.4784 0.722853 51.2205 0.00311191 53.0371 0H286.263C288.092 0 289.846 0.726633 291.139 2.02005C292.433 3.31346 293.159 5.06771 293.159 6.89687V334.685C293.159 336.515 292.433 338.269 291.139 339.562C289.846 340.856 288.092 341.582 286.263 341.582ZM53.0371 0.241573C51.2902 0.244772 49.6158 0.941 48.3816 2.17744C47.1475 3.41388 46.4543 5.08949 46.4543 6.83648V334.685C46.4543 336.432 47.1475 338.108 48.3816 339.345C49.6158 340.581 51.2902 341.277 53.0371 341.28H286.263C288.011 341.277 289.686 340.581 290.922 339.345C292.158 338.109 292.854 336.434 292.857 334.685V6.83648C292.854 5.08838 292.158 3.4128 290.922 2.1767C289.686 0.940608 288.011 0.244765 286.263 0.241573H53.0371Z" fill="white"/>
<path d="M547.534 341.582H314.296C312.468 341.579 310.716 340.852 309.423 339.559C308.13 338.266 307.403 336.514 307.399 334.685V6.83648C307.418 5.01879 308.153 3.28184 309.444 2.00214C310.735 0.722431 312.478 0.00307797 314.296 0H547.534C549.348 0.00628629 551.087 0.727432 552.374 2.00713C553.66 3.28683 554.391 5.02198 554.406 6.83648V334.685C554.406 336.51 553.683 338.261 552.395 339.554C551.107 340.846 549.359 341.576 547.534 341.582ZM314.296 0.241573C312.548 0.244765 310.873 0.940608 309.637 2.1767C308.4 3.4128 307.705 5.08838 307.701 6.83648V334.685C307.705 336.434 308.4 338.109 309.637 339.345C310.873 340.581 312.548 341.277 314.296 341.28H547.534C549.282 341.277 550.957 340.581 552.194 339.345C553.43 338.109 554.125 336.434 554.129 334.685V6.83648C554.125 5.08838 553.43 3.4128 552.194 2.1767C550.957 0.940608 549.282 0.244765 547.534 0.241573H314.296Z" fill="white"/>
<path d="M390.827 181.323H482.104V22.4056H390.827V181.323Z" fill="white"/>
<path d="M385.899 181.323H477.177V22.4056H385.899V181.323Z" fill="#F5F5F5"/>
<path d="M468.311 173.871V29.8706L394.74 29.8706V173.871H468.311Z" fill="white"/>
<path d="M398.472 173.871V29.8706H394.739V173.871H398.472Z" fill="white"/>
<path d="M389.558 139.109H473.517V129.096H389.558V139.109Z" fill="#F5F5F5"/>
<path d="M235.702 181.323H326.979V22.4056H235.702V181.323Z" fill="white"/>
<path d="M230.773 181.323H322.051V22.4056H230.773V181.323Z" fill="#F5F5F5"/>
<path d="M313.198 173.871V29.8706L239.628 29.8706V173.871H313.198Z" fill="white"/>
<path d="M243.348 173.859V29.8584H239.615V173.859H243.348Z" fill="white"/>
<path d="M234.433 139.109H318.392V129.096H234.433V139.109Z" fill="#F5F5F5"/>
<path d="M80.5884 181.323H171.866L171.866 22.4056H80.5884L80.5884 181.323Z" fill="white"/>
<path d="M75.6597 181.323H166.938L166.937 22.4056H75.6597L75.6597 181.323Z" fill="#F5F5F5"/>
<path d="M158.072 173.859V29.8584L84.5016 29.8584L84.5016 173.859H158.072Z" fill="white"/>
<path d="M88.2344 173.871L88.2344 29.8706H84.5021L84.5021 173.871H88.2344Z" fill="white"/>
<path d="M79.3201 139.109H163.278V129.096H79.3201V139.109Z" fill="#F5F5F5"/>
<path d="M169.1 279.643C152.637 281.914 142.455 246.137 178.763 215.844C176.866 250.908 197.823 275.682 169.1 279.643Z" fill="white"/>
<path d="M157.021 326.496C133.154 309.767 149.484 251.319 223.345 255.559C191.409 298.583 198.644 355.654 157.021 326.496Z" fill="white"/>
<path d="M165.476 326.122C181.336 309.042 158.761 266.055 101.689 281.757C133.891 310.021 137.804 355.883 165.476 326.122Z" fill="white"/>
<path d="M145.112 301.191C139.628 294.512 133.154 286.999 134.724 279.051C136.295 271.104 140.22 265.197 137.14 256.742C133.396 246.596 134.12 234.493 140.45 235.508C146.779 236.523 153.869 243.963 153.736 253.759C153.627 263.277 159.775 266.32 165.694 271.381C171.612 276.442 173.702 283.847 174.753 291.094C176.589 302.605 191.506 300.43 195.468 310.419C199.562 320.082 191.397 332.946 178.34 335.905C165.283 338.864 155.983 340.737 147.081 330.518C138.034 319.756 153.229 310.758 145.112 301.191Z" fill="#F5F5F5"/>
<path d="M190.032 395.453H140.981L137.285 328.634H193.728L190.032 395.453Z" fill="white"/>
<path d="M197.388 327.269H133.625V334.468H197.388V327.269Z" fill="#EBEBEB"/>
<path d="M479.205 386.382H512.204V243.287H479.205V386.382Z" fill="white"/>
<path d="M220.615 395.453L505.863 395.453V386.382L220.615 386.382V395.453Z" fill="white"/>
<path d="M479.206 243.287H214.286V386.382H479.206V243.287Z" fill="#F5F5F5"/>
<path d="M466.234 260.897H227.259V307.834H466.234V260.897Z" fill="white"/>
<path d="M466.234 321.834H227.259V368.771H466.234V321.834Z" fill="white"/>
<path d="M272.408 287.579H421.084C421.935 287.576 422.75 287.236 423.352 286.634C423.954 286.033 424.293 285.217 424.296 284.366C424.296 283.513 423.958 282.694 423.356 282.09C422.754 281.485 421.937 281.144 421.084 281.141H272.408C271.555 281.144 270.738 281.485 270.136 282.09C269.533 282.694 269.195 283.513 269.195 284.366C269.198 285.217 269.538 286.033 270.14 286.634C270.742 287.236 271.557 287.576 272.408 287.579Z" fill="#F5F5F5"/>
<path d="M272.408 348.516H421.084C421.935 348.512 422.75 348.173 423.352 347.571C423.954 346.969 424.293 346.154 424.296 345.303C424.293 344.452 423.954 343.636 423.352 343.034C422.75 342.433 421.935 342.093 421.084 342.09H272.408C271.557 342.093 270.742 342.433 270.14 343.034C269.538 343.636 269.198 344.452 269.195 345.303C269.198 346.154 269.538 346.969 270.14 347.571C270.742 348.173 271.557 348.512 272.408 348.516Z" fill="#F5F5F5"/>
<path d="M406.07 222.403C406.07 222.403 443.876 258.228 466.318 222.258C466.318 222.258 460.351 210.699 454.059 209.708C447.766 208.718 447.512 219.709 441.98 216.315C436.448 212.921 429.986 201.314 426.459 207.51C422.932 213.706 418.088 204.877 412.81 204.37C407.532 203.862 406.07 222.403 406.07 222.403Z" fill="#F5F5F5"/>
<path d="M468.722 219.927C468.722 219.927 467.9 243.287 436.037 243.287C404.174 243.287 403.353 219.927 403.353 219.927H468.722Z" fill="white"/>
<path d="M307.533 207.752H325.88V243.287H272.01C272.01 233.864 275.752 224.828 282.414 218.164C289.075 211.5 298.11 207.755 307.533 207.752Z" fill="#F5F5F5"/>
<path d="M342.803 207.752H325.881V243.287H342.803V207.752Z" fill="white"/>
<path d="M301.964 450C431.305 450 536.156 443.878 536.156 436.327C536.156 428.775 431.305 422.654 301.964 422.654C172.624 422.654 67.7725 428.775 67.7725 436.327C67.7725 443.878 172.624 450 301.964 450Z" fill="#FD8500" fill-opacity="0.8"/>
<path d="M263.313 172.434L262.515 173.642C262.274 173.992 262.02 174.306 261.779 174.633C261.283 175.285 260.764 175.84 260.245 176.505C259.194 177.713 258.131 178.92 256.996 179.983C254.725 182.165 252.304 184.183 249.748 186.023C247.197 187.862 244.512 189.509 241.716 190.951C240.303 191.639 238.902 192.352 237.44 192.932L235.254 193.801L234.638 194.031C234.3 194.139 233.986 194.26 233.611 194.345C232.881 194.527 232.13 194.612 231.377 194.598C229.942 194.589 228.53 194.237 227.258 193.572C226.235 193.038 225.296 192.358 224.468 191.555C223.157 190.261 222.023 188.799 221.098 187.206C219.516 184.449 218.225 181.534 217.245 178.51C215.345 172.808 213.986 166.94 213.187 160.984L218.235 159.873C219.153 162.518 220.095 165.248 221.134 167.881C222.173 170.514 223.212 173.135 224.42 175.623C225.519 178.025 226.829 180.325 228.333 182.496C228.931 183.396 229.65 184.209 230.471 184.911C230.707 185.105 230.972 185.26 231.256 185.37C231.425 185.37 231.413 185.37 231.329 185.37H231.244L231.643 185.177L233.442 184.308C234.65 183.728 235.798 183.1 236.957 182.399C239.244 181.029 241.454 179.533 243.576 177.918C245.67 176.272 247.659 174.497 249.531 172.603C250.473 171.685 251.367 170.707 252.225 169.717C252.647 169.221 253.07 168.726 253.432 168.231L254.012 167.494L254.483 166.866L263.313 172.434Z" fill="#B97964"/>
<path d="M248.685 171.915L254.809 186.602L250.376 189.368L243.491 176.045L248.685 171.915Z" fill="#164589"/>
<path d="M266.018 159.546C256.029 159.413 245.883 172.059 245.629 172.373L253.528 190.95C253.528 190.95 271.103 176.685 271.984 171.105C272.902 165.295 272.347 159.631 266.018 159.546Z" fill="#164589"/>
<path opacity="0.3" d="M266.018 159.546C256.029 159.413 245.883 172.059 245.629 172.373L253.528 190.95C253.528 190.95 271.103 176.685 271.984 171.105C272.902 165.295 272.347 159.631 266.018 159.546Z" fill="#164589"/>
<path d="M217.414 157.952L210.505 152.577L209.104 163.158C209.104 163.158 215.819 165.791 219.394 163.508L219.298 161.576C219.262 160.872 219.075 160.184 218.75 159.559C218.425 158.934 217.969 158.386 217.414 157.952Z" fill="#B97964"/>
<path d="M201.301 152.045L201.736 160.078L209.14 163.158L210.541 152.577L201.301 152.045Z" fill="#B97964"/>
<path d="M352.693 157.094L363.371 154.425L355.906 146.803C355.906 146.803 348.985 149.63 350.676 155.669L352.693 157.094Z" fill="#B97964"/>
<path d="M368.674 152.529L367.792 144.146L355.847 146.803L363.311 154.425L368.674 152.529Z" fill="#B97964"/>
<path d="M317.871 425.734L307.931 426.688L299.633 403.232L309.573 402.265L317.871 425.734Z" fill="#B97964"/>
<path d="M424.284 376.417L416.964 383.519L398.146 368.832L405.477 361.73L424.284 376.417Z" fill="#B97964"/>
<path d="M414.85 382.142L420.479 372.153C420.574 371.981 420.728 371.85 420.912 371.784C421.097 371.717 421.299 371.719 421.482 371.791L430.033 375.1C430.245 375.192 430.435 375.328 430.59 375.498C430.746 375.668 430.864 375.869 430.937 376.087C431.01 376.306 431.036 376.538 431.013 376.767C430.991 376.997 430.92 377.219 430.806 377.419C428.789 380.874 427.642 382.432 425.166 386.829C423.644 389.534 420.672 395.73 418.571 399.463C416.469 403.195 412.664 401.311 413.208 399.571C415.624 391.757 415.213 387.396 414.561 383.942C414.441 383.326 414.544 382.689 414.85 382.142Z" fill="#263238"/>
<path d="M305.95 423.645H318.028C318.245 423.649 318.455 423.723 318.627 423.856C318.798 423.988 318.923 424.173 318.982 424.381L321.615 433.96C321.682 434.186 321.694 434.425 321.651 434.657C321.608 434.889 321.511 435.107 321.367 435.295C321.223 435.482 321.038 435.632 320.825 435.734C320.612 435.836 320.378 435.886 320.142 435.88C315.902 435.808 313.837 435.554 308.51 435.554C305.237 435.554 294.572 435.904 290.042 435.904C285.513 435.904 284.691 431.423 286.527 431.073C294.741 429.249 301.674 426.749 304.198 424.357C304.665 423.898 305.295 423.642 305.95 423.645Z" fill="#263238"/>
<path d="M299.645 403.232L303.908 415.334H314.199L309.585 402.265L299.645 403.232Z" fill="#A76755"/>
<path d="M405.489 361.73L398.157 368.844L407.856 376.405L415.188 369.303L405.489 361.73Z" fill="#A76755"/>
<path d="M256.294 162.771C256.294 162.771 252.188 165.9 279.86 219.903L319.308 207.16C313.462 191.325 310.249 181.433 307.23 146.006C301.378 146.653 295.582 147.723 289.885 149.207C283.793 150.74 277.81 152.673 271.972 154.993C264.435 158.23 256.294 162.771 256.294 162.771Z" fill="#164589"/>
<path opacity="0.3" d="M256.294 162.771C256.294 162.771 252.188 165.9 279.86 219.903L319.308 207.16C313.462 191.325 310.249 181.433 307.23 146.006C301.378 146.653 295.582 147.723 289.885 149.207C283.793 150.74 277.81 152.673 271.972 154.993C264.435 158.23 256.294 162.771 256.294 162.771Z" fill="#164589"/>
<path d="M281.539 129.604C282.264 135.739 284.546 146.658 289.825 149.207C289.825 149.207 290.127 155.56 279.425 159.015C267.648 162.82 271.912 154.993 271.912 154.993C277.843 151.369 276.128 146.658 273.567 142.552L281.539 129.604Z" fill="#B97964"/>
<path d="M261.742 159.848C264.653 158.339 268.361 156.503 271.913 155.017C277.757 152.654 283.764 150.713 289.885 149.207C293.328 148.265 296.807 147.565 299.742 147.069C300.019 147.891 299.186 150.017 297.145 152.952C290.683 158.315 276.901 165.284 266.743 165.03C262.298 163.375 261.187 161.624 261.742 159.848Z" fill="#B97964"/>
<path d="M297.133 152.951C292.746 158.833 287.502 164.024 281.576 168.351C276.53 167.737 271.558 166.624 266.731 165.03C276.841 165.283 290.623 158.314 297.133 152.951Z" fill="#164589"/>
<path d="M278.29 134.882L273.567 142.527C274.184 143.48 274.714 144.487 275.15 145.535C277.493 144.387 280.476 140.993 279.909 138.288C279.572 137.067 279.024 135.914 278.29 134.882Z" fill="#A76755"/>
<path d="M283.931 118.274C284.535 128.384 285.018 132.647 280.573 138.421C273.893 147.093 261.344 145.668 257.72 135.908C254.471 127.152 254.024 112.09 263.361 106.92C265.412 105.767 267.724 105.157 270.077 105.148C272.431 105.139 274.747 105.732 276.807 106.869C278.868 108.006 280.603 109.65 281.85 111.646C283.096 113.642 283.813 115.923 283.931 118.274Z" fill="#B97964"/>
<path d="M303.899 100.155C306.182 90.1116 299.892 80.1185 289.849 77.8349C279.805 75.5512 269.812 81.8418 267.528 91.8851C265.245 101.929 271.535 111.922 281.579 114.205C291.622 116.489 301.615 110.198 303.899 100.155Z" fill="#263238"/>
<path d="M281.055 104.118C284.896 106.654 286.805 110.544 285.319 112.802C283.833 115.061 279.509 114.844 275.656 112.307C271.803 109.771 269.907 105.881 271.392 103.623C272.878 101.364 277.202 101.581 281.055 104.118Z" fill="#164589"/>
<path opacity="0.6" d="M281.055 104.118C284.896 106.654 286.805 110.544 285.319 112.802C283.833 115.061 279.509 114.844 275.656 112.307C271.803 109.771 269.907 105.881 271.392 103.623C272.878 101.364 277.202 101.581 281.055 104.118Z" fill="white"/>
<path d="M279.015 125.171C280.017 122.852 276.526 115.967 277.275 113.394C275.27 111.522 254.942 118.141 256.585 113.309C258.155 108.671 263.107 102.523 274.413 105.096C286.491 107.85 287.542 118.298 286.189 121.632C284.836 124.965 282.916 128.432 282.916 128.432L279.015 125.171Z" fill="#263238"/>
<path d="M286.587 127.139C286.613 129.096 285.866 130.983 284.51 132.393C282.686 134.241 280.488 132.913 279.92 130.521C279.401 128.371 279.739 124.808 282.082 123.866C282.599 123.665 283.157 123.596 283.707 123.667C284.257 123.738 284.78 123.946 285.229 124.272C285.677 124.598 286.037 125.031 286.274 125.532C286.511 126.033 286.619 126.586 286.587 127.139Z" fill="#B97964"/>
<path d="M279.859 219.903C279.859 219.903 261.572 309.091 271.767 338.502C282.372 369.097 299.632 411.807 299.632 411.807L315.757 410.889C315.757 410.889 302.471 356.922 299.197 332.548C294.716 298.945 313.909 208.959 313.909 208.959L279.859 219.903Z" fill="#164589"/>
<path opacity="0.6" d="M279.859 219.903C279.859 219.903 261.572 309.091 271.767 338.502C282.372 369.097 299.632 411.807 299.632 411.807L315.757 410.889C315.757 410.889 302.471 356.922 299.197 332.548C294.716 298.945 313.909 208.959 313.909 208.959L279.859 219.903Z" fill="white" fill-opacity="0.8"/>
<path d="M317.026 411.276L298.365 412.351L295.369 405.007L315.951 402.869L317.026 411.276Z" fill="#164589"/>
<path opacity="0.2" d="M317.026 411.276L298.365 412.351L295.369 405.007L315.951 402.869L317.026 411.276Z" fill="black"/>
<path d="M299.197 226.764C296.395 237.127 298.738 252.66 304.029 263.555C305.321 255.1 306.698 246.911 308.003 239.579C305.285 234.325 302.289 229.663 299.197 226.764Z" fill="#164589"/>
<path opacity="0.4" d="M299.197 226.764C296.395 237.127 298.738 252.66 304.029 263.555C305.321 255.1 306.698 246.911 308.003 239.579C305.285 234.325 302.289 229.663 299.197 226.764Z" fill="white" fill-opacity="0.8"/>
<path d="M290.272 216.533C290.272 216.533 317.425 281.431 335.41 317.063C349.904 345.883 403.69 376.043 403.69 376.043L413.353 365.8C413.353 365.8 373.156 330.108 363.13 310.565C331.05 248.01 337.645 220.688 319.334 207.16L290.272 216.533Z" fill="#164589"/>
<path opacity="0.6" d="M290.272 216.533C290.272 216.533 317.425 281.431 335.41 317.063C349.904 345.883 403.69 376.043 403.69 376.043L413.353 365.8C413.353 365.8 373.156 330.108 363.13 310.565C331.05 248.01 337.645 220.688 319.334 207.16L290.272 216.533Z" fill="white" fill-opacity="0.8"/>
<path d="M415.152 364.338L401.866 378.458L393.459 374.037L408.763 358.432L415.152 364.338Z" fill="#164589"/>
<path opacity="0.2" d="M415.152 364.338L401.866 378.458L393.459 374.037L408.763 358.432L415.152 364.338Z" fill="black"/>
<path d="M319.151 204.66L322.062 207.619C322.292 207.848 322.062 208.235 321.603 208.38L280.234 221.666C279.872 221.787 279.522 221.666 279.425 221.485L277.939 218.079C277.831 217.837 278.072 217.535 278.459 217.403L318.402 204.515C318.529 204.472 318.665 204.463 318.796 204.488C318.927 204.514 319.05 204.573 319.151 204.66Z" fill="#263238"/>
<path d="M315.251 210.856L316.313 210.518C316.531 210.446 316.652 210.276 316.603 210.156L314.622 205.723C314.622 205.602 314.333 205.554 314.127 205.614L313.052 205.964C312.847 205.964 312.714 206.194 312.774 206.327L314.755 210.748C314.792 210.88 315.009 210.929 315.251 210.856Z" fill="#164589"/>
<path opacity="0.6" d="M315.251 210.856L316.313 210.518C316.531 210.446 316.652 210.276 316.603 210.156L314.622 205.723C314.622 205.602 314.333 205.554 314.127 205.614L313.052 205.964C312.847 205.964 312.714 206.194 312.774 206.327L314.755 210.748C314.792 210.88 315.009 210.929 315.251 210.856Z" fill="white"/>
<path d="M283.364 221.147L284.439 220.797C284.644 220.724 284.777 220.567 284.717 220.434L282.736 216.013C282.675 215.881 282.458 215.832 282.24 215.905L281.166 216.243C280.96 216.315 280.827 216.472 280.888 216.605L282.869 221.026C282.929 221.159 283.146 221.207 283.364 221.147Z" fill="#164589"/>
<path opacity="0.6" d="M283.364 221.147L284.439 220.797C284.644 220.724 284.777 220.567 284.717 220.434L282.736 216.013C282.675 215.881 282.458 215.832 282.24 215.905L281.166 216.243C280.96 216.315 280.827 216.472 280.888 216.605L282.869 221.026C282.929 221.159 283.146 221.207 283.364 221.147Z" fill="white"/>
<path d="M299.294 216.002L300.357 215.651C300.575 215.651 300.708 215.422 300.647 215.289L298.666 210.868C298.606 210.735 298.376 210.687 298.171 210.759L297.096 211.11C296.891 211.17 296.758 211.339 296.818 211.46L298.799 215.893C298.859 215.962 298.939 216.01 299.029 216.03C299.118 216.049 299.211 216.039 299.294 216.002Z" fill="#164589"/>
<path opacity="0.6" d="M299.294 216.002L300.357 215.651C300.575 215.651 300.708 215.422 300.647 215.289L298.666 210.868C298.606 210.735 298.376 210.687 298.171 210.759L297.096 211.11C296.891 211.17 296.758 211.339 296.818 211.46L298.799 215.893C298.859 215.962 298.939 216.01 299.029 216.03C299.118 216.049 299.211 216.039 299.294 216.002Z" fill="white"/>
<path d="M269.05 122.936C269.147 123.745 268.797 124.47 268.265 124.531C267.734 124.591 267.214 123.987 267.118 123.166C267.021 122.344 267.371 121.632 267.903 121.571C268.434 121.511 268.954 122.115 269.05 122.936Z" fill="#263238"/>
<path d="M259.809 124.059C259.918 124.881 259.555 125.593 259.024 125.654C258.492 125.714 257.973 125.11 257.876 124.301C257.78 123.492 258.13 122.767 258.661 122.695C259.193 122.622 259.688 123.202 259.809 124.059Z" fill="#263238"/>
<path d="M258.904 122.719L256.875 122.393C256.875 122.393 258.071 123.806 258.904 122.719Z" fill="#263238"/>
<path d="M262.43 125.171C261.925 127.122 261.157 128.995 260.147 130.739C260.602 130.981 261.104 131.124 261.618 131.158C262.133 131.191 262.648 131.114 263.131 130.932L262.43 125.171Z" fill="#A24E3F"/>
<path d="M266.368 133.794C266.31 133.795 266.253 133.775 266.209 133.737C266.164 133.699 266.135 133.647 266.126 133.589C266.122 133.524 266.142 133.46 266.182 133.409C266.223 133.358 266.28 133.323 266.344 133.311C267.362 133.21 268.341 132.871 269.203 132.321C270.066 131.771 270.787 131.026 271.308 130.147C271.321 130.117 271.34 130.09 271.364 130.068C271.387 130.046 271.415 130.028 271.446 130.017C271.476 130.006 271.508 130.001 271.541 130.002C271.573 130.004 271.605 130.012 271.634 130.026C271.663 130.04 271.689 130.06 271.71 130.084C271.731 130.108 271.747 130.136 271.757 130.166C271.767 130.197 271.771 130.229 271.769 130.26C271.766 130.292 271.757 130.323 271.743 130.352C271.194 131.312 270.423 132.125 269.494 132.724C268.564 133.324 267.505 133.69 266.404 133.794H266.368Z" fill="#263238"/>
<path d="M270.197 120.037C270.081 120.036 269.97 119.993 269.883 119.916C269.437 119.503 268.898 119.203 268.311 119.041C267.725 118.879 267.108 118.861 266.513 118.986C266.451 119.004 266.386 119.01 266.322 119.003C266.258 118.996 266.196 118.976 266.14 118.944C266.084 118.913 266.034 118.87 265.995 118.82C265.955 118.769 265.926 118.71 265.909 118.648C265.891 118.587 265.885 118.523 265.893 118.459C265.9 118.396 265.92 118.335 265.952 118.28C265.983 118.224 266.026 118.176 266.077 118.138C266.128 118.099 266.186 118.071 266.247 118.056C266.996 117.892 267.774 117.908 268.515 118.103C269.256 118.298 269.941 118.667 270.511 119.179C270.557 119.224 270.593 119.278 270.618 119.337C270.643 119.396 270.655 119.46 270.655 119.524C270.655 119.588 270.643 119.651 270.618 119.71C270.593 119.769 270.557 119.823 270.511 119.868C270.431 119.961 270.319 120.022 270.197 120.037Z" fill="#263238"/>
<path d="M255.039 120.315C254.968 120.332 254.893 120.332 254.822 120.315C254.71 120.254 254.627 120.152 254.588 120.03C254.55 119.909 254.56 119.777 254.616 119.663C254.947 118.972 255.437 118.37 256.046 117.906C256.655 117.442 257.365 117.129 258.119 116.994C258.245 116.98 258.372 117.017 258.472 117.096C258.571 117.175 258.635 117.29 258.651 117.416C258.659 117.48 258.655 117.544 258.638 117.606C258.621 117.668 258.592 117.726 258.553 117.777C258.514 117.827 258.465 117.869 258.409 117.901C258.353 117.932 258.291 117.952 258.228 117.96C257.632 118.071 257.071 118.323 256.592 118.695C256.112 119.067 255.729 119.548 255.474 120.098C255.427 120.169 255.362 120.227 255.286 120.265C255.209 120.303 255.124 120.321 255.039 120.315Z" fill="#263238"/>
<path d="M315.25 155.44L315.709 156.02L316.277 156.708C316.663 157.167 317.062 157.638 317.485 158.097C318.318 159.027 319.188 159.945 320.118 160.815C321.939 162.6 323.863 164.278 325.879 165.839C327.927 167.391 330.052 168.838 332.245 170.176C333.344 170.84 334.467 171.468 335.603 172.084L337.33 172.966L338.163 173.389C338.368 173.485 338.574 173.582 338.767 173.654C339.384 173.911 340.044 174.047 340.712 174.053C341.326 174.018 341.915 173.799 342.403 173.425C344.021 172.083 345.3 170.378 346.135 168.448C347.256 166.122 348.158 163.695 348.829 161.201C349.575 158.658 350.192 156.077 350.677 153.471L355.834 153.797C355.995 159.743 355.146 165.674 353.322 171.335C352.805 172.879 352.137 174.367 351.329 175.78C350.432 177.39 349.272 178.839 347.898 180.068C346.263 181.521 344.263 182.502 342.113 182.906C340.023 183.271 337.876 183.122 335.856 182.472C335.385 182.339 334.95 182.17 334.503 182.001L333.453 181.566L331.399 180.708C330.034 180.092 328.694 179.5 327.377 178.751C324.734 177.357 322.188 175.787 319.755 174.053C317.319 172.296 314.999 170.384 312.81 168.328C311.723 167.289 310.672 166.19 309.646 165.054C309.138 164.475 308.631 163.846 308.148 163.291L307.411 162.337C307.157 161.998 306.964 161.733 306.626 161.25L315.25 155.44Z" fill="#B97964"/>
<path d="M323.814 161.805L316.253 174.499L312.569 171.021L319.551 158.302L323.814 161.805Z" fill="#164589"/>
<path d="M307.278 146.006C311.626 145.933 322.183 158.399 322.183 158.399L313.003 174.379C313.003 174.379 301.311 164.075 301.323 158.435C301.335 152.553 302.326 146.151 307.278 146.006Z" fill="#164589"/>
<path opacity="0.3" d="M307.278 146.006C311.626 145.933 322.183 158.399 322.183 158.399L313.003 174.379C313.003 174.379 301.311 164.075 301.323 158.435C301.335 152.553 302.326 146.151 307.278 146.006Z" fill="#164589"/>
<path d="M412.87 387.565C412.533 387.553 412.211 387.429 411.952 387.215C411.83 387.134 411.734 387.022 411.672 386.89C411.61 386.758 411.586 386.611 411.601 386.466C411.71 385.162 414.983 383.447 415.346 383.253C415.385 383.227 415.431 383.214 415.479 383.214C415.526 383.214 415.572 383.227 415.611 383.253C415.648 383.284 415.675 383.323 415.69 383.368C415.705 383.413 415.707 383.461 415.696 383.507C415.322 384.812 414.488 387.058 413.28 387.457C413.151 387.517 413.012 387.554 412.87 387.565ZM415.056 383.942C413.775 384.667 412.145 385.802 412.084 386.478C412.075 386.544 412.086 386.61 412.116 386.669C412.147 386.727 412.195 386.775 412.254 386.805C412.366 386.914 412.507 386.991 412.66 387.027C412.813 387.064 412.973 387.058 413.123 387.01C413.788 386.817 414.488 385.681 415.056 383.966V383.942Z" fill="#164589"/>
<path d="M412.423 384.401C411.892 384.446 411.361 384.314 410.913 384.026C410.768 383.901 410.67 383.73 410.634 383.541C410.599 383.352 410.629 383.157 410.72 382.988C410.785 382.812 410.89 382.655 411.026 382.527C411.162 382.399 411.326 382.304 411.505 382.251C412.906 381.78 415.467 383.193 415.576 383.253C415.615 383.275 415.648 383.306 415.671 383.344C415.695 383.382 415.707 383.426 415.708 383.471C415.707 383.512 415.695 383.553 415.674 383.588C415.653 383.624 415.623 383.654 415.588 383.676C414.601 384.154 413.519 384.402 412.423 384.401ZM412.169 382.637C411.998 382.635 411.826 382.659 411.662 382.71C411.551 382.745 411.448 382.804 411.363 382.883C411.277 382.963 411.21 383.06 411.167 383.169C411.046 383.459 411.167 383.579 411.167 383.664C411.71 384.123 413.715 383.93 414.863 383.459C414.026 383.014 413.112 382.735 412.169 382.637Z" fill="#164589"/>
<path d="M300.587 425.65C299.742 425.721 298.896 425.522 298.171 425.082C297.981 424.943 297.827 424.761 297.72 424.551C297.613 424.341 297.557 424.11 297.555 423.874C297.541 423.747 297.561 423.617 297.615 423.5C297.668 423.384 297.752 423.283 297.857 423.21C298.956 422.461 303.087 424.345 303.896 424.72C303.943 424.742 303.981 424.779 304.004 424.825C304.028 424.87 304.037 424.922 304.029 424.973C304.025 425.023 304.005 425.069 303.973 425.106C303.94 425.143 303.896 425.169 303.848 425.179C302.78 425.445 301.687 425.603 300.587 425.65ZM298.654 423.56C298.491 423.545 298.327 423.579 298.183 423.657C298.147 423.682 298.118 423.717 298.101 423.757C298.084 423.798 298.079 423.843 298.087 423.886C298.091 424.044 298.131 424.2 298.204 424.34C298.278 424.48 298.382 424.602 298.509 424.696C299.464 425.42 301.734 425.142 303.063 424.901C301.669 424.235 300.183 423.783 298.654 423.56Z" fill="#164589"/>
<path d="M303.848 425.227H303.751C302.387 424.671 299.633 422.461 299.79 421.313C299.79 421.06 299.983 420.746 300.611 420.673C303.027 420.359 304.041 424.768 304.078 424.949C304.088 424.992 304.086 425.037 304.073 425.079C304.061 425.122 304.037 425.16 304.005 425.191C303.958 425.219 303.903 425.231 303.848 425.227ZM300.828 421.132H300.671C300.418 421.132 300.273 421.241 300.261 421.362C300.176 422.014 302.072 423.777 303.474 424.526C303.172 423.488 302.278 421.132 300.828 421.132Z" fill="#164589"/>
<path d="M268.144 121.583L266.115 121.257C266.115 121.257 267.311 122.67 268.144 121.583Z" fill="#263238"/>
<path d="M192.58 37.178C190.442 39.8594 178.666 43.0119 169.305 42.1423C166.08 63.304 177.349 87.6665 177.349 87.6665C177.349 87.6665 201.808 84.7555 202.412 74.682C203.016 64.6084 192.58 37.178 192.58 37.178Z" fill="#164589"/>
<path opacity="0.4" d="M192.58 37.178C190.442 39.8594 178.666 43.0119 169.305 42.1423C166.08 63.304 177.349 87.6665 177.349 87.6665C177.349 87.6665 201.808 84.7555 202.412 74.682C203.016 64.6084 192.58 37.178 192.58 37.178Z" fill="white"/>
<path d="M377.733 21.0774C379.92 24.1574 391.02 27.2133 399.608 25.6189C404.21 50.6699 395.682 80.4316 395.682 80.4316C395.682 80.4316 372.89 78.4024 371.525 66.4325C370.16 54.4626 377.733 21.0774 377.733 21.0774Z" fill="#164589"/>
<path opacity="0.4" d="M377.733 21.0774C379.92 24.1574 391.02 27.2133 399.608 25.6189C404.21 50.6699 395.682 80.4316 395.682 80.4316C395.682 80.4316 372.89 78.4024 371.525 66.4325C370.16 54.4626 377.733 21.0774 377.733 21.0774Z" fill="white"/>
<path d="M217.414 238.033C217.24 238.059 217.063 238.049 216.893 238.006C216.722 237.963 216.563 237.886 216.422 237.78C216.282 237.675 216.164 237.542 216.075 237.391C215.986 237.239 215.928 237.072 215.904 236.898L187.218 33.4097C187.194 33.23 187.207 33.0474 187.255 32.8728C187.304 32.6981 187.387 32.535 187.499 32.393C187.612 32.2511 187.752 32.1332 187.911 32.0464C188.07 31.9596 188.245 31.9057 188.425 31.8878C188.6 31.864 188.777 31.8748 188.948 31.9196C189.118 31.9643 189.278 32.0422 189.418 32.1488C189.558 32.2553 189.676 32.3885 189.765 32.5406C189.854 32.6927 189.911 32.8608 189.935 33.0353L218.622 236.511C218.645 236.691 218.633 236.873 218.584 237.048C218.536 237.223 218.453 237.386 218.34 237.528C218.227 237.67 218.087 237.788 217.928 237.874C217.769 237.961 217.594 238.015 217.414 238.033Z" fill="#164589"/>
<path opacity="0.2" d="M217.414 238.033C217.24 238.059 217.063 238.049 216.893 238.006C216.722 237.963 216.563 237.886 216.422 237.78C216.282 237.675 216.164 237.542 216.075 237.391C215.986 237.239 215.928 237.072 215.904 236.898L187.218 33.4097C187.194 33.23 187.207 33.0474 187.255 32.8728C187.304 32.6981 187.387 32.535 187.499 32.393C187.612 32.2511 187.752 32.1332 187.911 32.0464C188.07 31.9596 188.245 31.9057 188.425 31.8878C188.6 31.864 188.777 31.8748 188.948 31.9196C189.118 31.9643 189.278 32.0422 189.418 32.1488C189.558 32.2553 189.676 32.3885 189.765 32.5406C189.854 32.6927 189.911 32.8608 189.935 33.0353L218.622 236.511C218.645 236.691 218.633 236.873 218.584 237.048C218.536 237.223 218.453 237.386 218.34 237.528C218.227 237.67 218.087 237.788 217.928 237.874C217.769 237.961 217.594 238.015 217.414 238.033Z" fill="black"/>
<path d="M354.107 222.91C354.287 222.934 354.469 222.921 354.644 222.873C354.819 222.824 354.982 222.741 355.124 222.629C355.266 222.516 355.384 222.376 355.47 222.217C355.557 222.058 355.611 221.883 355.629 221.703L384.376 18.2267C384.402 18.0522 384.393 17.8743 384.349 17.7033C384.306 17.5323 384.23 17.3715 384.124 17.2302C384.019 17.0888 383.886 16.9696 383.735 16.8794C383.583 16.7893 383.415 16.73 383.241 16.7048C383.061 16.6813 382.878 16.6941 382.704 16.7425C382.529 16.7909 382.366 16.8739 382.224 16.9865C382.082 17.0992 381.964 17.2392 381.877 17.3983C381.79 17.5574 381.737 17.7323 381.719 17.9127L352.972 221.389C352.923 221.74 353.015 222.097 353.227 222.382C353.44 222.667 353.756 222.857 354.107 222.91Z" fill="#164589"/>
<path opacity="0.2" d="M354.107 222.91C354.287 222.934 354.469 222.921 354.644 222.873C354.819 222.824 354.982 222.741 355.124 222.629C355.266 222.516 355.384 222.376 355.47 222.217C355.557 222.058 355.611 221.883 355.629 221.703L384.376 18.2267C384.402 18.0522 384.393 17.8743 384.349 17.7033C384.306 17.5323 384.23 17.3715 384.124 17.2302C384.019 17.0888 383.886 16.9696 383.735 16.8794C383.583 16.7893 383.415 16.73 383.241 16.7048C383.061 16.6813 382.878 16.6941 382.704 16.7425C382.529 16.7909 382.366 16.8739 382.224 16.9865C382.082 17.0992 381.964 17.2392 381.877 17.3983C381.79 17.5574 381.737 17.7323 381.719 17.9127L352.972 221.389C352.923 221.74 353.015 222.097 353.227 222.382C353.44 222.667 353.756 222.857 354.107 222.91Z" fill="black"/>
<path d="M186.07 37.7095L191.505 77.6655C191.538 77.918 191.626 78.1603 191.762 78.3757C191.897 78.5912 192.078 78.7747 192.292 78.9135C192.505 79.0524 192.746 79.1434 192.998 79.1803C193.25 79.2171 193.507 79.1989 193.752 79.127C205.903 75.6483 273.47 58.3035 377.262 69.3433C377.702 69.3941 378.146 69.2769 378.504 69.0149C378.863 68.753 379.109 68.3656 379.194 67.9301C381.151 57.8083 384.521 28.9767 385.378 21.5967C385.43 21.1314 385.297 20.6646 385.007 20.2965C384.718 19.9284 384.296 19.6883 383.832 19.6279C369.894 17.8644 274.751 7.31979 187.29 35.7769C186.894 35.908 186.556 36.1723 186.334 36.5247C186.111 36.8772 186.018 37.2959 186.07 37.7095Z" fill="#164589"/>
<path opacity="0.6" d="M186.07 37.7095L191.505 77.6655C191.538 77.918 191.626 78.1603 191.762 78.3757C191.897 78.5912 192.078 78.7747 192.292 78.9135C192.505 79.0524 192.746 79.1434 192.998 79.1803C193.25 79.2171 193.507 79.1989 193.752 79.127C205.903 75.6483 273.47 58.3035 377.262 69.3433C377.702 69.3941 378.146 69.2769 378.504 69.0149C378.863 68.753 379.109 68.3656 379.194 67.9301C381.151 57.8083 384.521 28.9767 385.378 21.5967C385.43 21.1314 385.297 20.6646 385.007 20.2965C384.718 19.9284 384.296 19.6883 383.832 19.6279C369.894 17.8644 274.751 7.31979 187.29 35.7769C186.894 35.908 186.556 36.1723 186.334 36.5247C186.111 36.8772 186.018 37.2959 186.07 37.7095Z" fill="white"/>
<path d="M203.499 44.6911L209.224 43.4832L213.271 54.0037L214.297 42.4566L220.01 41.2487L225.023 51.5638L225.096 40.222L230.797 39.0142L230.048 59.427L224.141 60.6348L218.476 49.0152L217.269 62.0118L211.362 63.2196L203.499 44.6911Z" fill="white"/>
<path d="M233.6 38.7966L249.894 36.3809L250.425 40.5842L240.231 42.0819L240.629 45.2224L250.087 43.8333L250.594 47.8555L241.137 49.2445L241.571 53.1459L252.068 51.612L252.635 56.081L236.039 58.4967L233.6 38.7966Z" fill="white"/>
<path d="M254.036 35.9097L260.148 35.2454L261.452 50.1866L270.982 49.1599L271.417 53.9913L255.715 55.6823L254.036 35.9097Z" fill="white"/>
<path d="M286.334 44.7635L291.782 45.9713C291.556 47.3667 291.042 48.6996 290.272 49.8848C289.565 50.9518 288.601 51.8241 287.47 52.4213C286.113 53.0749 284.638 53.4448 283.133 53.5084C281.338 53.6998 279.522 53.5063 277.807 52.9407C276.322 52.2989 275.061 51.2312 274.183 49.8727C273.027 48.0959 272.403 46.0257 272.383 43.9059C272.067 41.1249 272.866 38.3318 274.606 36.1394C275.538 35.1498 276.661 34.3584 277.906 33.8126C279.151 33.2667 280.494 32.9777 281.853 32.9627C283.903 32.6948 285.985 33.0749 287.808 34.0498C289.409 35.1141 290.614 36.6763 291.238 38.4947L285.887 40.0891C285.74 39.624 285.516 39.187 285.223 38.7967C284.853 38.358 284.38 38.0177 283.846 37.8062C282.978 37.4516 282.011 37.4226 281.123 37.7244C280.235 38.0262 279.487 38.6387 279.015 39.4489C278.428 40.6901 278.206 42.0724 278.374 43.4348C278.479 45.6331 278.882 47.1188 279.582 47.8918C279.947 48.2771 280.397 48.5709 280.897 48.7493C281.396 48.9277 281.931 48.9857 282.457 48.9185C282.952 48.9124 283.441 48.8017 283.891 48.5935C284.34 48.3854 284.741 48.0845 285.066 47.7107C285.734 46.8529 286.171 45.8382 286.334 44.7635Z" fill="white"/>
<path d="M294.016 42.4566C293.921 41.0672 294.103 39.6729 294.551 38.3543C294.999 37.0357 295.703 35.819 296.625 34.7746C297.612 33.8024 298.785 33.0385 300.074 32.5281C301.362 32.0177 302.74 31.7712 304.125 31.8032C305.501 31.6663 306.89 31.8097 308.208 32.2249C309.526 32.6401 310.747 33.3185 311.795 34.219C312.737 35.197 313.468 36.3574 313.943 37.6287C314.419 38.9001 314.629 40.2553 314.561 41.6111C314.666 43.5948 314.293 45.5748 313.474 47.3846C312.735 48.892 311.572 50.1512 310.128 51.0082C308.449 51.946 306.556 52.4368 304.633 52.4335C302.733 52.567 300.827 52.2611 299.064 51.5396C297.548 50.8425 296.283 49.6954 295.441 48.2543C294.45 46.4861 293.958 44.4824 294.016 42.4566ZM300.139 42.2875C300.033 43.8173 300.459 45.3369 301.347 46.5874C301.724 47.0136 302.196 47.345 302.725 47.5548C303.254 47.7647 303.824 47.847 304.391 47.7953C304.97 47.8083 305.545 47.6902 306.072 47.4496C306.599 47.2091 307.065 46.8524 307.435 46.4063C308.277 45.0017 308.638 43.3602 308.462 41.7318C308.565 40.2735 308.136 38.8273 307.254 37.6614C306.868 37.2368 306.389 36.907 305.855 36.6975C305.321 36.488 304.745 36.4045 304.174 36.4535C303.606 36.4518 303.045 36.5779 302.533 36.8225C302.02 37.0672 301.57 37.4241 301.214 37.8667C300.365 39.171 299.985 40.7263 300.139 42.2754V42.2875Z" fill="white"/>
<path d="M318.282 31.7549H326.338L329.116 43.918L332.535 31.8394L340.591 31.9119L340.047 51.8416H335.023L335.433 36.6346L331.158 51.8053H326.616L323.174 36.5622L322.763 51.7691H317.738L318.282 31.7549Z" fill="white"/>
<path d="M345.012 32.105L361.403 32.8418L361.149 37.0934L350.882 36.6344L350.677 39.8594L360.195 40.2822L359.941 44.2802L350.423 43.8574L350.182 47.7951L360.738 48.254L360.448 52.7714L343.756 52.0226L345.012 32.105Z" fill="white"/>
</svg>
