<svg width="562" height="544" viewBox="0 0 562 544" fill="none" xmlns="http://www.w3.org/2000/svg">
<path d="M504.796 127.582C470.467 49.3826 388.066 19.939 323.05 72.4439C297.662 92.9276 281.822 125.528 250.735 138.609C221.566 150.877 184.615 147.266 153.073 153.91C85.9049 167.97 -4.52665 221.316 2.37231 303.512C5.39406 339.517 29.706 379.506 41.724 413.195C55.5219 451.957 63.8006 500.45 100.324 523.622C162.939 563.404 238.469 530.886 294.874 498.81C325.23 481.566 341.939 470.966 374.626 476.879C404.885 482.393 432.136 501.691 461.705 478.795C483.906 461.606 485.741 426.773 504.382 406.317C525.382 383.269 546.673 381.601 557.587 346.961C570.819 304.932 551.323 278.673 538.146 241.124C524.969 203.575 520.967 164.372 504.796 127.582Z" fill="#FD8500" fill-opacity="0.16"/>
<path d="M241.574 543.45C359.37 543.45 454.862 537.501 454.862 530.163C454.862 522.824 359.37 516.875 241.574 516.875C123.778 516.875 28.2856 522.824 28.2856 530.163C28.2856 537.501 123.778 543.45 241.574 543.45Z" fill="#92E3A9"/>
<path opacity="0.8" d="M241.574 543.45C359.37 543.45 454.862 537.501 454.862 530.163C454.862 522.824 359.37 516.875 241.574 516.875C123.778 516.875 28.2856 522.824 28.2856 530.163C28.2856 537.501 123.778 543.45 241.574 543.45Z" fill="white"/>
<path d="M401.85 24.8967H187.389C172.583 24.8967 160.58 36.8997 160.58 51.7061V504.471C160.58 519.278 172.583 531.28 187.389 531.28H401.85C416.656 531.28 428.659 519.278 428.659 504.471V51.7061C428.659 36.8997 416.656 24.8967 401.85 24.8967Z" fill="#FD8500" fill-opacity="0.7"/>
<path d="M416.738 80.5026H172.487V475.675H416.738V80.5026Z" fill="white"/>
<path d="M332.055 240.519C352.731 219.844 352.731 186.322 332.055 165.647C311.38 144.972 277.859 144.972 257.183 165.647C236.508 186.322 236.508 219.844 257.183 240.519C277.859 261.195 311.38 261.195 332.055 240.519Z" fill="#FD8500" fill-opacity="0.7"/>
<path d="M364.127 450.825H225.126C224.814 450.827 224.503 450.767 224.214 450.649C223.924 450.53 223.661 450.356 223.439 450.135C223.217 449.914 223.041 449.652 222.921 449.363C222.801 449.075 222.739 448.765 222.739 448.452C222.737 448.138 222.798 447.827 222.917 447.536C223.037 447.246 223.212 446.982 223.434 446.76C223.656 446.538 223.92 446.362 224.211 446.243C224.501 446.124 224.812 446.063 225.126 446.065H364.127C364.439 446.065 364.749 446.127 365.038 446.247C365.327 446.367 365.589 446.543 365.81 446.765C366.03 446.987 366.205 447.25 366.323 447.54C366.442 447.829 366.502 448.139 366.5 448.452C366.5 449.081 366.25 449.685 365.805 450.13C365.36 450.575 364.756 450.825 364.127 450.825Z" fill="#FD8500" fill-opacity="0.7"/>
<path d="M368.652 285.788H220.587C217.531 285.788 215.054 288.265 215.054 291.321V308.775C215.054 311.831 217.531 314.308 220.587 314.308H368.652C371.708 314.308 374.185 311.831 374.185 308.775V291.321C374.185 288.265 371.708 285.788 368.652 285.788Z" fill="#FD8500" fill-opacity="0.7"/>
<path d="M368.652 339.131H220.587C217.531 339.131 215.054 341.608 215.054 344.664V362.118C215.054 365.174 217.531 367.651 220.587 367.651H368.652C371.708 367.651 374.185 365.174 374.185 362.118V344.664C374.185 341.608 371.708 339.131 368.652 339.131Z" fill="#FD8500" fill-opacity="0.7"/>
<path d="M320.981 229.492L305.403 220.524V213.114C307.658 210.385 309.292 207.198 310.191 203.773C310.727 203.964 311.291 204.062 311.86 204.063C313.792 204.063 315.02 198.075 315.227 193.797C317.476 189.037 314.413 186.25 314.413 186.25C314.413 186.25 315.682 184.98 316.524 179.889C317.366 174.798 313.557 176.922 310.591 172.259C307.624 167.595 305.499 162.517 295.758 162.517C293.074 162.429 290.425 163.15 288.156 164.587C285.888 166.025 284.104 168.111 283.036 170.575C280.612 170.584 278.195 170.866 275.834 171.417C272.854 172.259 272.012 182.014 274.551 185.836C275.687 187.925 276.294 190.26 276.317 192.638C275.641 191.81 274.937 191.59 274.551 193.466C273.709 197.702 277.103 203.635 277.103 203.635L278.856 203.138C279.738 206.798 281.442 210.21 283.837 213.114V220.524L268.259 229.492C266.44 230.543 264.929 232.053 263.878 233.872C262.826 235.691 262.272 237.754 262.271 239.855V244.988C271.535 252.145 282.912 256.027 294.62 256.027C306.327 256.027 317.704 252.145 326.969 244.988V239.855C326.97 237.753 326.417 235.689 325.366 233.87C324.314 232.051 322.802 230.541 320.981 229.492Z" fill="white"/>
<path d="M235.212 360.559C234.855 360.554 234.514 360.411 234.26 360.159C234.125 360.038 234.016 359.889 233.943 359.722C233.869 359.556 233.831 359.375 233.833 359.193C233.837 358.944 233.908 358.701 234.04 358.489L236.523 354.516L231.68 354.667C231.498 354.679 231.315 354.652 231.144 354.587C230.972 354.523 230.817 354.423 230.687 354.295C230.462 354.042 230.337 353.716 230.337 353.377C230.337 353.039 230.462 352.712 230.687 352.46C230.814 352.326 230.969 352.223 231.14 352.156C231.312 352.089 231.496 352.061 231.68 352.073L236.454 352.253L233.998 348.293C233.865 348.077 233.793 347.829 233.791 347.575C233.79 347.393 233.827 347.213 233.901 347.046C233.975 346.88 234.083 346.731 234.219 346.609C234.473 346.358 234.814 346.214 235.171 346.209C235.406 346.211 235.636 346.279 235.834 346.406C236.032 346.533 236.189 346.714 236.289 346.927L238.648 351.19L240.98 346.954C241.091 346.728 241.261 346.537 241.472 346.401C241.684 346.264 241.929 346.189 242.18 346.182C242.355 346.183 242.527 346.22 242.686 346.291C242.845 346.363 242.988 346.466 243.105 346.596C243.358 346.858 243.497 347.21 243.491 347.575C243.49 347.812 243.429 348.045 243.312 348.251L240.814 352.253L245.657 352.073C245.841 352.061 246.026 352.089 246.197 352.156C246.369 352.223 246.524 352.326 246.651 352.46C246.886 352.704 247.015 353.031 247.01 353.37C247.009 353.712 246.881 354.042 246.651 354.295C246.521 354.423 246.365 354.523 246.194 354.587C246.023 354.652 245.84 354.679 245.657 354.667L240.787 354.516L243.215 358.448C243.351 358.668 243.423 358.921 243.422 359.179C243.422 359.545 243.277 359.896 243.018 360.155C242.759 360.414 242.408 360.559 242.042 360.559C241.806 360.556 241.575 360.484 241.379 360.351C241.183 360.219 241.03 360.032 240.939 359.814L238.634 355.675L236.344 359.814C236.242 360.03 236.083 360.214 235.883 360.346C235.683 360.477 235.451 360.551 235.212 360.559Z" fill="white"/>
<path d="M257.593 360.559C257.235 360.554 256.894 360.411 256.641 360.159C256.505 360.038 256.396 359.889 256.323 359.722C256.249 359.556 256.211 359.375 256.213 359.193C256.217 358.944 256.289 358.701 256.42 358.489L258.903 354.516L254.074 354.667C253.89 354.676 253.706 354.647 253.533 354.583C253.36 354.519 253.201 354.421 253.067 354.295C252.884 354.106 252.762 353.866 252.717 353.607C252.672 353.348 252.706 353.081 252.814 352.841C252.923 352.602 253.101 352.4 253.326 352.263C253.551 352.126 253.811 352.06 254.074 352.073L258.834 352.253L256.378 348.293C256.245 348.077 256.173 347.829 256.171 347.575C256.17 347.393 256.208 347.213 256.281 347.046C256.355 346.88 256.463 346.731 256.599 346.609C256.853 346.358 257.194 346.214 257.551 346.209C257.786 346.211 258.016 346.279 258.214 346.406C258.412 346.533 258.57 346.714 258.669 346.927L261.028 351.19L263.36 346.954C263.471 346.728 263.641 346.537 263.853 346.401C264.064 346.265 264.309 346.189 264.561 346.182C264.735 346.181 264.908 346.217 265.067 346.289C265.227 346.36 265.369 346.465 265.485 346.596C265.613 346.725 265.714 346.877 265.783 347.046C265.851 347.214 265.886 347.394 265.885 347.575C265.88 347.814 265.814 348.046 265.692 348.251L263.195 352.253L268.051 352.101C268.233 352.089 268.415 352.117 268.585 352.184C268.754 352.251 268.907 352.354 269.031 352.487C269.266 352.732 269.395 353.059 269.39 353.398C269.389 353.74 269.261 354.069 269.031 354.322C268.904 354.451 268.75 354.55 268.581 354.615C268.413 354.679 268.232 354.706 268.051 354.695L263.167 354.543L265.595 358.476C265.731 358.695 265.803 358.949 265.802 359.207C265.802 359.573 265.657 359.924 265.398 360.183C265.139 360.441 264.788 360.587 264.423 360.587C264.186 360.584 263.955 360.511 263.759 360.379C263.563 360.247 263.41 360.06 263.319 359.842L261.014 355.702L258.724 359.842C258.619 360.053 258.458 360.231 258.258 360.358C258.059 360.484 257.829 360.554 257.593 360.559Z" fill="white"/>
<path d="M279.987 360.559C279.625 360.558 279.278 360.414 279.021 360.159C278.885 360.038 278.777 359.889 278.703 359.722C278.629 359.556 278.592 359.375 278.593 359.193C278.597 358.944 278.669 358.701 278.8 358.489L281.284 354.516L276.454 354.667C276.194 354.678 275.937 354.61 275.715 354.474C275.494 354.338 275.318 354.139 275.21 353.902C275.102 353.665 275.066 353.401 275.109 353.145C275.151 352.888 275.269 352.649 275.447 352.46C275.577 352.327 275.735 352.224 275.909 352.157C276.082 352.09 276.269 352.062 276.454 352.073L281.215 352.253L278.759 348.293C278.625 348.077 278.553 347.829 278.552 347.575C278.556 347.394 278.596 347.216 278.669 347.05C278.743 346.884 278.848 346.734 278.979 346.609C279.236 346.354 279.583 346.211 279.945 346.209C280.178 346.213 280.405 346.283 280.6 346.41C280.795 346.537 280.951 346.716 281.049 346.927L283.409 351.19L285.74 346.954C285.851 346.728 286.021 346.537 286.233 346.401C286.444 346.265 286.689 346.189 286.941 346.182C287.115 346.181 287.288 346.217 287.448 346.289C287.607 346.36 287.749 346.465 287.865 346.596C287.993 346.725 288.094 346.877 288.163 347.046C288.232 347.214 288.266 347.394 288.265 347.575C288.26 347.814 288.194 348.046 288.072 348.251L285.575 352.253L290.432 352.073C290.61 352.056 290.791 352.076 290.96 352.134C291.13 352.192 291.286 352.285 291.417 352.408C291.548 352.531 291.65 352.68 291.719 352.846C291.787 353.012 291.818 353.191 291.811 353.37C291.814 353.711 291.692 354.04 291.467 354.295C291.337 354.423 291.181 354.523 291.01 354.587C290.838 354.652 290.656 354.679 290.473 354.667L285.602 354.516L288.017 358.448C288.153 358.668 288.225 358.921 288.224 359.179C288.22 359.361 288.18 359.539 288.106 359.705C288.033 359.87 287.928 360.02 287.796 360.145C287.676 360.274 287.531 360.378 287.37 360.449C287.208 360.52 287.034 360.558 286.858 360.559C286.623 360.555 286.395 360.482 286.201 360.35C286.008 360.217 285.857 360.031 285.768 359.814L283.45 355.675L281.159 359.814C281.056 360.038 280.891 360.227 280.683 360.359C280.475 360.491 280.233 360.561 279.987 360.559Z" fill="white"/>
<path d="M302.367 360.559C302.005 360.558 301.659 360.414 301.401 360.159C301.142 359.904 300.993 359.557 300.988 359.193C300.983 358.945 301.05 358.701 301.181 358.489L303.664 354.516L298.835 354.667C298.651 354.676 298.467 354.647 298.294 354.583C298.121 354.519 297.962 354.421 297.828 354.295C297.603 354.042 297.479 353.716 297.479 353.377C297.479 353.039 297.603 352.712 297.828 352.46C297.961 352.331 298.119 352.23 298.292 352.164C298.465 352.098 298.65 352.067 298.835 352.073L303.609 352.253L301.167 348.293C301.033 348.077 300.962 347.829 300.96 347.575C300.964 347.394 301.004 347.216 301.078 347.05C301.151 346.884 301.256 346.734 301.388 346.609C301.645 346.354 301.992 346.211 302.354 346.209C302.589 346.211 302.818 346.279 303.016 346.406C303.214 346.533 303.372 346.714 303.471 346.927L305.817 351.19L308.149 346.954C308.259 346.728 308.43 346.537 308.641 346.401C308.853 346.265 309.098 346.189 309.349 346.182C309.524 346.181 309.697 346.217 309.856 346.289C310.015 346.36 310.158 346.465 310.274 346.596C310.401 346.725 310.503 346.877 310.571 347.046C310.64 347.214 310.675 347.394 310.674 347.575C310.669 347.814 310.602 348.046 310.481 348.251L307.983 352.253L312.84 352.073C313.019 352.056 313.199 352.076 313.369 352.134C313.539 352.192 313.694 352.285 313.825 352.408C313.956 352.531 314.059 352.68 314.127 352.846C314.195 353.012 314.227 353.191 314.22 353.37C314.223 353.711 314.1 354.04 313.875 354.295C313.745 354.423 313.589 354.523 313.418 354.587C313.247 354.652 313.064 354.679 312.881 354.667L308.011 354.516L310.425 358.448C310.561 358.668 310.633 358.921 310.632 359.179C310.634 359.361 310.596 359.542 310.522 359.708C310.449 359.875 310.34 360.024 310.205 360.145C310.084 360.274 309.939 360.378 309.778 360.449C309.617 360.52 309.443 360.558 309.266 360.559C309.032 360.555 308.803 360.482 308.61 360.35C308.416 360.217 308.265 360.031 308.176 359.814L305.858 355.675L303.568 359.814C303.463 360.042 303.293 360.234 303.079 360.367C302.866 360.499 302.618 360.566 302.367 360.559Z" fill="white"/>
<path d="M324.747 360.559C324.385 360.558 324.038 360.414 323.781 360.159C323.568 359.942 323.431 359.661 323.394 359.359C323.357 359.057 323.42 358.752 323.574 358.489L326.044 354.516L321.215 354.667C321.031 354.676 320.847 354.647 320.674 354.583C320.501 354.519 320.342 354.421 320.208 354.295C319.983 354.042 319.858 353.716 319.858 353.377C319.858 353.039 319.983 352.712 320.208 352.46C320.341 352.331 320.499 352.23 320.672 352.164C320.845 352.098 321.03 352.067 321.215 352.073L325.989 352.253L323.533 348.293C323.399 348.077 323.328 347.829 323.326 347.575C323.331 347.211 323.48 346.864 323.74 346.609C323.997 346.354 324.344 346.211 324.706 346.209C324.941 346.211 325.171 346.279 325.369 346.406C325.566 346.533 325.724 346.714 325.823 346.927L328.169 351.19L330.501 346.954C330.612 346.728 330.782 346.537 330.993 346.401C331.205 346.265 331.45 346.189 331.701 346.182C331.878 346.181 332.053 346.217 332.215 346.288C332.376 346.36 332.521 346.464 332.64 346.596C332.893 346.858 333.032 347.21 333.026 347.575C333.021 347.814 332.955 348.046 332.833 348.251L330.335 352.253L335.192 352.073C335.371 352.056 335.551 352.076 335.721 352.134C335.891 352.192 336.047 352.285 336.177 352.408C336.308 352.531 336.411 352.68 336.479 352.846C336.547 353.012 336.579 353.191 336.572 353.37C336.575 353.711 336.452 354.04 336.227 354.295C336.097 354.423 335.941 354.523 335.77 354.587C335.599 354.652 335.416 354.679 335.234 354.667L330.363 354.516L332.778 358.448C332.914 358.668 332.985 358.921 332.985 359.179C332.986 359.361 332.948 359.542 332.875 359.708C332.801 359.875 332.693 360.024 332.557 360.145C332.437 360.274 332.292 360.378 332.13 360.449C331.969 360.52 331.795 360.558 331.619 360.559C331.384 360.555 331.156 360.482 330.962 360.35C330.768 360.217 330.618 360.031 330.529 359.814L328.211 355.675L325.92 359.814C325.817 360.038 325.651 360.227 325.443 360.359C325.235 360.491 324.994 360.561 324.747 360.559Z" fill="white"/>
<path d="M347.128 360.559C346.77 360.554 346.429 360.411 346.175 360.159C346.04 360.038 345.931 359.889 345.858 359.722C345.784 359.556 345.746 359.375 345.748 359.193C345.752 358.944 345.823 358.701 345.955 358.489L348.425 354.516L343.595 354.667C343.418 354.681 343.239 354.657 343.071 354.598C342.903 354.538 342.749 354.445 342.62 354.323C342.49 354.201 342.387 354.053 342.317 353.889C342.248 353.725 342.213 353.549 342.215 353.37C342.215 353.202 342.247 353.034 342.311 352.878C342.375 352.722 342.469 352.58 342.588 352.46C342.715 352.326 342.87 352.223 343.042 352.156C343.213 352.089 343.398 352.061 343.581 352.073L348.356 352.253L345.9 348.293C345.766 348.077 345.694 347.829 345.693 347.575C345.698 347.211 345.847 346.864 346.106 346.609C346.363 346.354 346.71 346.211 347.072 346.209C347.307 346.211 347.537 346.279 347.735 346.406C347.933 346.533 348.091 346.714 348.19 346.927L350.536 351.19L352.881 346.954C352.991 346.73 353.159 346.54 353.368 346.404C353.577 346.268 353.819 346.191 354.068 346.182C354.245 346.181 354.42 346.217 354.581 346.288C354.743 346.36 354.888 346.464 355.006 346.596C355.259 346.858 355.398 347.21 355.392 347.575C355.392 347.812 355.33 348.045 355.213 348.251L352.716 352.253L357.559 352.073C357.743 352.061 357.927 352.089 358.099 352.156C358.27 352.223 358.425 352.326 358.552 352.46C358.787 352.704 358.916 353.031 358.911 353.37C358.91 353.712 358.782 354.042 358.552 354.295C358.422 354.423 358.267 354.523 358.095 354.587C357.924 354.652 357.741 354.679 357.559 354.667L352.688 354.516L355.103 358.448C355.239 358.668 355.31 358.921 355.31 359.179C355.304 359.543 355.156 359.89 354.896 360.145C354.644 360.402 354.303 360.55 353.944 360.559C353.709 360.555 353.481 360.482 353.287 360.35C353.093 360.217 352.943 360.031 352.854 359.814L350.536 355.675L348.245 359.814C348.146 360.029 347.989 360.213 347.792 360.344C347.594 360.476 347.364 360.55 347.128 360.559Z" fill="white"/>
<g style="mix-blend-mode:multiply">
<path d="M416.738 81.0269H172.487V96.3287H416.738V81.0269Z" fill="white"/>
</g>
<path d="M321.174 52.8375H268.052C267.093 52.8375 266.173 52.4567 265.495 51.7787C264.817 51.1008 264.437 50.1812 264.437 49.2225C264.437 48.2637 264.817 47.3442 265.495 46.6662C266.173 45.9883 267.093 45.6074 268.052 45.6074H321.174C322.132 45.6074 323.052 45.9883 323.73 46.6662C324.408 47.3442 324.789 48.2637 324.789 49.2225C324.789 50.1812 324.408 51.1008 323.73 51.7787C323.052 52.4567 322.132 52.8375 321.174 52.8375Z" fill="#FD8500" fill-opacity="0.7"/>
<path d="M309.101 498C309.103 495.133 308.256 492.33 306.665 489.946C305.074 487.561 302.811 485.702 300.163 484.604C297.516 483.506 294.601 483.217 291.79 483.776C288.978 484.335 286.395 485.715 284.368 487.742C282.341 489.769 280.961 492.351 280.403 495.163C279.844 497.975 280.132 500.889 281.23 503.537C282.329 506.185 284.188 508.447 286.572 510.038C288.957 511.629 291.76 512.477 294.627 512.474C298.464 512.47 302.144 510.944 304.857 508.231C307.571 505.517 309.097 501.838 309.101 498Z" fill="#FD8500" fill-opacity="0.8"/>
<path d="M301.967 490.659H287.286V505.34H301.967V490.659Z" fill="white"/>
<path d="M469.502 331.404C469.502 331.404 450.268 282.532 467.391 276.723C485.218 270.665 484.431 302.939 483.741 318.668C482.293 352.28 478.581 358.531 475.808 350.321L469.502 331.404ZM463.721 369.527C469.005 376.426 470.495 369.279 460.961 337.006C456.49 321.828 446.777 291.128 431.875 302.649C417.566 313.687 451.62 353.701 451.62 353.701L463.721 369.527ZM453.51 397.537C458.546 402.008 458.643 396.364 446.68 373.06C441.064 362.146 429.184 340.055 419.457 350.983C410.116 361.525 441.947 387.147 441.947 387.147L453.51 397.537ZM442.472 430.845C447.508 435.33 447.605 429.673 435.642 406.382C430.026 395.468 418.146 373.363 408.418 384.305C399.132 394.874 430.868 420.497 430.868 420.497L442.472 430.845ZM474.345 363.042C466.287 366.188 472.689 369.61 506.342 369.514C522.127 369.514 554.359 368.796 547.488 351.259C540.906 334.412 492.972 355.868 492.972 355.868L474.345 363.042ZM465.169 385.45C456.642 386.927 462.244 391.563 495.249 398.158C510.716 401.263 542.438 406.989 539.195 388.5C536.091 370.673 484.845 382.18 484.845 382.18L465.169 385.45ZM454.904 412.812C447.646 413.86 452.282 417.903 480.03 424.25C493.041 427.23 519.74 432.819 517.422 417.048C515.214 401.87 471.613 410.452 471.613 410.452L454.904 412.812ZM447.108 438.158C440.002 439.966 445.038 443.498 473.324 446.865C486.57 448.438 513.71 451.17 509.75 435.73C505.928 420.911 463.486 434.033 463.486 434.033L447.108 438.158ZM488.695 335.543C484.555 344.815 493.151 343.408 522.375 317.909C536.063 305.947 563.521 280.917 541.775 268.458C520.899 256.481 498.45 314.267 498.45 314.267L488.695 335.543ZM448.184 471.177C443.81 473.729 448.101 474.723 468.163 470.721C477.574 468.859 496.711 464.719 490.24 456.551C483.976 448.686 458.312 465.244 458.312 465.244L448.184 471.177Z" fill="#164589" fill-opacity="0.7"/>
<path opacity="0.3" d="M469.502 331.404C469.502 331.404 450.268 282.532 467.391 276.723C485.218 270.665 484.431 302.939 483.741 318.668C482.293 352.28 478.581 358.531 475.807 350.321L469.502 331.404ZM463.72 369.527C469.005 376.426 470.495 369.279 460.961 337.006C456.49 321.828 446.777 291.128 431.875 302.649C417.566 313.687 451.62 353.701 451.62 353.701L463.72 369.527ZM453.51 397.537C458.546 402.008 458.643 396.364 446.68 373.06C441.064 362.146 429.184 340.055 419.457 350.983C410.116 361.525 441.947 387.147 441.947 387.147L453.51 397.537ZM442.472 430.845C447.508 435.33 447.605 429.673 435.642 406.382C430.026 395.468 418.146 373.363 408.418 384.305C399.132 394.874 430.868 420.497 430.868 420.497L442.472 430.845ZM474.345 363.042C466.287 366.188 472.689 369.61 506.342 369.514C522.127 369.514 554.359 368.796 547.488 351.259C540.906 334.412 492.972 355.868 492.972 355.868L474.345 363.042ZM465.169 385.45C456.642 386.927 462.244 391.563 495.249 398.158C510.716 401.263 542.438 406.989 539.195 388.5C536.091 370.673 484.845 382.18 484.845 382.18L465.169 385.45ZM454.904 412.812C447.646 413.86 452.282 417.903 480.03 424.25C493.041 427.23 519.74 432.819 517.422 417.048C515.214 401.87 471.613 410.452 471.613 410.452L454.904 412.812ZM447.108 438.158C440.002 439.966 445.038 443.498 473.324 446.865C486.57 448.438 513.71 451.17 509.75 435.73C505.928 420.911 463.486 434.033 463.486 434.033L447.108 438.158ZM488.695 335.543C484.555 344.815 493.151 343.408 522.375 317.909C536.063 305.947 563.521 280.917 541.775 268.458C520.899 256.481 498.45 314.267 498.45 314.267L488.695 335.543ZM448.184 471.177C443.81 473.729 448.101 474.723 468.163 470.721C477.574 468.859 496.711 464.719 490.24 456.551C483.976 448.686 458.312 465.244 458.312 465.244L448.184 471.177Z" fill="#164589" fill-opacity="0.7"/>
<path d="M477.987 354.157L474.634 298.372L477.987 354.157ZM467.377 372.563L446.183 324.588L467.377 372.563ZM522.072 358.614L471.282 365.899L522.072 358.614ZM456.394 398.421L428.894 363.139L456.394 398.421ZM461.223 387.603L499.112 389.507L461.223 387.603ZM452.254 414.661L481.23 417.531L452.254 414.661ZM445.259 431.853L430.867 410.204L445.259 431.853ZM443.603 439.497L477.67 439.814L443.603 439.497ZM436.704 503.409C436.932 503.391 437.144 503.284 437.294 503.111C437.444 502.938 437.519 502.713 437.504 502.485C435.338 469.949 447.922 416.661 468.108 372.922C481.009 344.967 531.578 290.024 532.117 289.472C532.279 289.309 532.371 289.088 532.371 288.858C532.371 288.628 532.279 288.407 532.117 288.244C532.037 288.164 531.942 288.101 531.838 288.057C531.734 288.014 531.622 287.991 531.509 287.991C531.397 287.991 531.285 288.014 531.181 288.057C531.076 288.101 530.982 288.164 530.902 288.244C530.392 288.796 479.615 343.946 466.604 372.149C446.045 416.951 433.627 469.273 435.835 502.595C435.852 502.815 435.951 503.02 436.111 503.171C436.272 503.321 436.484 503.406 436.704 503.409ZM477.974 355.012C478.202 354.998 478.415 354.895 478.567 354.724C478.72 354.554 478.799 354.33 478.788 354.102L475.49 298.289C475.485 298.175 475.457 298.064 475.408 297.961C475.359 297.859 475.29 297.767 475.206 297.691C475.121 297.615 475.022 297.557 474.914 297.52C474.807 297.483 474.693 297.468 474.579 297.475C474.351 297.489 474.138 297.593 473.985 297.763C473.833 297.934 473.754 298.157 473.765 298.386L477.118 354.171C477.129 354.39 477.224 354.597 477.383 354.749C477.542 354.901 477.754 354.985 477.974 354.985V355.012ZM467.68 373.35C467.887 373.256 468.049 373.085 468.131 372.874C468.214 372.663 468.21 372.427 468.122 372.218L446.914 324.243C446.823 324.034 446.652 323.871 446.44 323.788C446.228 323.705 445.992 323.71 445.783 323.801C445.574 323.893 445.411 324.064 445.328 324.276C445.245 324.488 445.25 324.724 445.341 324.933L466.535 372.908C466.602 373.062 466.711 373.194 466.851 373.287C466.99 373.38 467.154 373.43 467.322 373.433C467.464 373.44 467.607 373.412 467.735 373.35H467.68ZM471.351 366.727L522.113 359.469C522.236 359.467 522.356 359.438 522.467 359.386C522.578 359.333 522.676 359.258 522.756 359.165C522.836 359.071 522.895 358.962 522.929 358.845C522.964 358.727 522.973 358.603 522.956 358.482C522.94 358.36 522.897 358.244 522.833 358.14C522.768 358.036 522.682 357.947 522.58 357.878C522.478 357.81 522.363 357.764 522.242 357.743C522.121 357.723 521.997 357.728 521.879 357.758L471.116 365.016C470.889 365.03 470.677 365.135 470.527 365.305C470.377 365.476 470.301 365.7 470.316 365.927C470.33 366.153 470.434 366.365 470.605 366.515C470.776 366.665 470.999 366.741 471.226 366.727H471.351ZM456.877 399.111C457.057 398.969 457.174 398.762 457.202 398.535C457.231 398.307 457.168 398.078 457.028 397.896L429.515 362.546C429.374 362.363 429.167 362.244 428.938 362.214C428.709 362.184 428.477 362.246 428.294 362.387C428.111 362.528 427.992 362.736 427.962 362.965C427.932 363.194 427.995 363.425 428.135 363.608L455.704 399.014C455.784 399.117 455.886 399.2 456.003 399.258C456.121 399.315 456.249 399.345 456.38 399.345C456.586 399.335 456.781 399.252 456.932 399.111H456.877ZM499.871 389.549C499.878 389.32 499.796 389.098 499.641 388.93C499.486 388.763 499.271 388.662 499.043 388.652L461.223 386.734C461.01 386.748 460.811 386.841 460.662 386.993C460.512 387.145 460.424 387.347 460.414 387.559C460.404 387.772 460.472 387.981 460.606 388.147C460.74 388.313 460.93 388.424 461.14 388.459L499.029 390.376C499.257 390.384 499.48 390.301 499.647 390.146C499.815 389.991 499.915 389.777 499.926 389.549H499.871ZM482.03 417.614C482.043 417.5 482.034 417.385 482.002 417.275C481.97 417.165 481.917 417.063 481.845 416.974C481.773 416.886 481.684 416.812 481.583 416.758C481.482 416.705 481.371 416.672 481.257 416.661L452.282 413.805C452.169 413.794 452.056 413.805 451.948 413.838C451.839 413.87 451.739 413.924 451.652 413.996C451.564 414.068 451.492 414.156 451.439 414.256C451.386 414.356 451.354 414.465 451.344 414.578C451.324 414.804 451.394 415.029 451.539 415.205C451.683 415.38 451.89 415.492 452.116 415.516L481.092 418.386H481.175C481.397 418.402 481.617 418.329 481.787 418.185C481.957 418.041 482.064 417.836 482.085 417.614H482.03ZM445.673 432.57C445.864 432.444 445.998 432.246 446.044 432.021C446.091 431.797 446.047 431.562 445.921 431.37L431.599 409.721C431.468 409.535 431.269 409.406 431.046 409.362C430.822 409.319 430.59 409.363 430.398 409.487C430.207 409.613 430.073 409.811 430.026 410.036C429.98 410.26 430.024 410.495 430.15 410.687L444.472 432.336C444.554 432.454 444.663 432.551 444.791 432.618C444.918 432.686 445.06 432.721 445.203 432.722C445.39 432.732 445.575 432.679 445.728 432.57H445.673ZM478.539 439.814C478.536 439.587 478.445 439.37 478.286 439.208C478.126 439.046 477.911 438.952 477.684 438.945L443.617 438.628C443.39 438.628 443.172 438.718 443.012 438.878C442.851 439.039 442.761 439.256 442.761 439.483C442.757 439.597 442.777 439.711 442.818 439.817C442.86 439.923 442.923 440.02 443.003 440.101C443.083 440.183 443.178 440.247 443.284 440.29C443.389 440.333 443.503 440.354 443.617 440.353L477.684 440.67C477.8 440.675 477.917 440.658 478.026 440.617C478.135 440.577 478.235 440.515 478.32 440.435C478.405 440.355 478.473 440.259 478.52 440.153C478.568 440.046 478.593 439.931 478.594 439.814H478.539ZM432.827 490.756C432.896 490.605 438.705 474.599 456.173 470.777C456.398 470.727 456.594 470.591 456.718 470.397C456.842 470.203 456.884 469.967 456.835 469.742C456.779 469.522 456.641 469.331 456.448 469.21C456.255 469.089 456.023 469.048 455.8 469.094C437.38 473.123 431.268 490.025 431.199 490.191C431.128 490.408 431.144 490.645 431.244 490.851C431.345 491.057 431.521 491.216 431.737 491.294H432.013C432.196 491.31 432.38 491.266 432.536 491.17C432.693 491.073 432.814 490.928 432.882 490.756H432.827ZM436.704 503.409C436.932 503.391 437.144 503.284 437.294 503.111C437.444 502.938 437.519 502.713 437.504 502.485C435.338 469.949 447.922 416.661 468.108 372.922C481.009 344.967 531.578 290.024 532.117 289.472C532.279 289.309 532.371 289.088 532.371 288.858C532.371 288.628 532.279 288.407 532.117 288.244C532.037 288.164 531.942 288.101 531.838 288.057C531.734 288.014 531.622 287.991 531.509 287.991C531.397 287.991 531.285 288.014 531.181 288.057C531.076 288.101 530.982 288.164 530.902 288.244C530.392 288.796 479.615 343.946 466.604 372.149C446.045 416.951 433.627 469.273 435.835 502.595C435.852 502.815 435.951 503.02 436.111 503.171C436.272 503.321 436.484 503.406 436.704 503.409ZM477.974 355.012C478.202 354.998 478.415 354.895 478.567 354.724C478.72 354.554 478.799 354.33 478.788 354.102L475.49 298.289C475.485 298.175 475.457 298.064 475.408 297.961C475.359 297.859 475.29 297.767 475.206 297.691C475.121 297.615 475.022 297.557 474.914 297.52C474.807 297.483 474.693 297.468 474.579 297.475C474.351 297.489 474.138 297.593 473.985 297.763C473.833 297.934 473.754 298.157 473.765 298.386L477.118 354.171C477.129 354.39 477.224 354.597 477.383 354.749C477.542 354.901 477.754 354.985 477.974 354.985V355.012ZM467.68 373.35C467.887 373.256 468.049 373.085 468.131 372.874C468.214 372.663 468.21 372.427 468.122 372.218L446.914 324.243C446.823 324.034 446.652 323.871 446.44 323.788C446.228 323.705 445.992 323.71 445.783 323.801C445.574 323.893 445.411 324.064 445.328 324.276C445.245 324.488 445.25 324.724 445.341 324.933L466.535 372.908C466.602 373.062 466.711 373.194 466.851 373.287C466.99 373.38 467.154 373.43 467.322 373.433C467.464 373.44 467.607 373.412 467.735 373.35H467.68ZM471.351 366.727L522.113 359.469C522.236 359.467 522.356 359.438 522.467 359.386C522.578 359.333 522.676 359.258 522.756 359.165C522.836 359.071 522.895 358.962 522.929 358.845C522.964 358.727 522.973 358.603 522.956 358.482C522.94 358.36 522.897 358.244 522.833 358.14C522.768 358.036 522.682 357.947 522.58 357.878C522.478 357.81 522.363 357.764 522.242 357.743C522.121 357.723 521.997 357.728 521.879 357.758L471.116 365.016C470.889 365.03 470.677 365.135 470.527 365.305C470.377 365.476 470.301 365.7 470.316 365.927C470.33 366.153 470.434 366.365 470.605 366.515C470.776 366.665 470.999 366.741 471.226 366.727H471.351ZM456.877 399.111C457.057 398.969 457.174 398.762 457.202 398.535C457.231 398.307 457.168 398.078 457.028 397.896L429.515 362.546C429.445 362.455 429.359 362.379 429.259 362.322C429.16 362.265 429.051 362.229 428.938 362.214C428.824 362.199 428.709 362.207 428.599 362.237C428.488 362.266 428.385 362.318 428.294 362.387C428.204 362.457 428.128 362.544 428.071 362.643C428.014 362.742 427.977 362.852 427.962 362.965C427.947 363.078 427.955 363.194 427.985 363.304C428.014 363.414 428.066 363.518 428.135 363.608L455.704 399.014C455.784 399.117 455.886 399.2 456.003 399.258C456.121 399.315 456.249 399.345 456.38 399.345C456.586 399.335 456.781 399.252 456.932 399.111H456.877ZM499.871 389.549C499.878 389.32 499.796 389.098 499.641 388.93C499.486 388.763 499.271 388.662 499.043 388.652L461.223 386.734C461.01 386.748 460.811 386.841 460.662 386.993C460.512 387.145 460.424 387.347 460.414 387.559C460.404 387.772 460.472 387.981 460.606 388.147C460.74 388.313 460.93 388.424 461.14 388.459L499.029 390.376C499.257 390.384 499.48 390.301 499.647 390.146C499.815 389.991 499.915 389.777 499.926 389.549H499.871ZM482.03 417.614C482.043 417.5 482.034 417.385 482.002 417.275C481.97 417.165 481.917 417.063 481.845 416.974C481.773 416.886 481.684 416.812 481.583 416.758C481.482 416.705 481.371 416.672 481.257 416.661L452.282 413.805C452.169 413.794 452.056 413.805 451.948 413.838C451.839 413.87 451.739 413.924 451.652 413.996C451.564 414.068 451.492 414.156 451.439 414.256C451.386 414.356 451.354 414.465 451.344 414.578C451.324 414.804 451.394 415.029 451.539 415.205C451.683 415.38 451.89 415.492 452.116 415.516L481.092 418.386H481.175C481.397 418.402 481.617 418.329 481.787 418.185C481.957 418.041 482.064 417.836 482.085 417.614H482.03ZM445.673 432.57C445.864 432.444 445.998 432.246 446.044 432.021C446.091 431.797 446.047 431.562 445.921 431.37L431.599 409.721C431.468 409.535 431.269 409.406 431.046 409.362C430.822 409.319 430.59 409.363 430.398 409.487C430.207 409.613 430.073 409.811 430.026 410.036C429.98 410.26 430.024 410.495 430.15 410.687L444.472 432.336C444.554 432.454 444.663 432.551 444.791 432.618C444.918 432.686 445.06 432.721 445.203 432.722C445.39 432.732 445.575 432.679 445.728 432.57H445.673ZM478.539 439.814C478.536 439.587 478.445 439.37 478.286 439.208C478.126 439.046 477.911 438.952 477.684 438.945L443.617 438.628C443.39 438.628 443.172 438.718 443.012 438.878C442.851 439.039 442.761 439.256 442.761 439.483C442.757 439.597 442.777 439.711 442.818 439.817C442.86 439.923 442.923 440.02 443.003 440.101C443.083 440.183 443.178 440.247 443.284 440.29C443.389 440.333 443.503 440.354 443.617 440.353L477.684 440.67C477.8 440.675 477.917 440.658 478.026 440.617C478.135 440.577 478.235 440.515 478.32 440.435C478.405 440.355 478.473 440.259 478.52 440.153C478.568 440.046 478.593 439.931 478.594 439.814H478.539ZM432.827 490.756C432.896 490.605 438.705 474.599 456.173 470.777C456.398 470.727 456.594 470.591 456.718 470.397C456.842 470.203 456.884 469.967 456.835 469.742C456.779 469.522 456.641 469.331 456.448 469.21C456.255 469.089 456.023 469.048 455.8 469.094C437.38 473.123 431.268 490.025 431.199 490.191C431.128 490.408 431.144 490.645 431.244 490.851C431.345 491.057 431.521 491.216 431.737 491.294H432.013C432.196 491.31 432.38 491.266 432.536 491.17C432.693 491.073 432.814 490.928 432.882 490.756H432.827Z" fill="#164589" fill-opacity="0.7"/>
<path opacity="0.2" d="M477.987 354.157L474.634 298.372L477.987 354.157ZM467.377 372.563L446.183 324.588L467.377 372.563ZM522.072 358.614L471.282 365.899L522.072 358.614ZM456.394 398.421L428.894 363.139L456.394 398.421ZM461.223 387.603L499.112 389.507L461.223 387.603ZM452.254 414.661L481.23 417.531L452.254 414.661ZM445.259 431.853L430.867 410.204L445.259 431.853ZM443.603 439.497L477.67 439.814L443.603 439.497ZM436.704 503.409C436.932 503.391 437.144 503.284 437.294 503.111C437.444 502.938 437.519 502.713 437.504 502.485C435.338 469.949 447.922 416.661 468.108 372.922C481.009 344.967 531.578 290.024 532.117 289.472C532.279 289.309 532.371 289.088 532.371 288.858C532.371 288.628 532.279 288.407 532.117 288.244C532.037 288.164 531.942 288.101 531.838 288.057C531.734 288.014 531.622 287.991 531.509 287.991C531.397 287.991 531.285 288.014 531.181 288.057C531.076 288.101 530.982 288.164 530.902 288.244C530.392 288.796 479.615 343.946 466.604 372.149C446.045 416.951 433.627 469.273 435.835 502.595C435.852 502.815 435.951 503.02 436.111 503.171C436.272 503.321 436.484 503.406 436.704 503.409ZM477.974 355.012C478.202 354.998 478.415 354.895 478.567 354.724C478.72 354.554 478.799 354.33 478.788 354.102L475.49 298.289C475.485 298.175 475.457 298.064 475.408 297.961C475.359 297.859 475.29 297.767 475.206 297.691C475.121 297.615 475.022 297.557 474.914 297.52C474.807 297.483 474.693 297.468 474.579 297.475C474.351 297.489 474.138 297.593 473.985 297.763C473.833 297.934 473.754 298.157 473.765 298.386L477.118 354.171C477.129 354.39 477.224 354.597 477.383 354.749C477.542 354.901 477.754 354.985 477.974 354.985V355.012ZM467.68 373.35C467.887 373.256 468.049 373.085 468.131 372.874C468.214 372.663 468.21 372.427 468.122 372.218L446.914 324.243C446.823 324.034 446.652 323.871 446.44 323.788C446.228 323.705 445.992 323.71 445.783 323.801C445.574 323.893 445.411 324.064 445.328 324.276C445.245 324.488 445.25 324.724 445.341 324.933L466.535 372.908C466.602 373.062 466.711 373.194 466.851 373.287C466.99 373.38 467.154 373.43 467.322 373.433C467.464 373.44 467.607 373.412 467.735 373.35H467.68ZM471.351 366.727L522.113 359.469C522.236 359.467 522.356 359.438 522.467 359.386C522.578 359.333 522.676 359.258 522.756 359.165C522.836 359.071 522.895 358.962 522.929 358.845C522.964 358.727 522.973 358.603 522.956 358.482C522.94 358.36 522.897 358.244 522.833 358.14C522.768 358.036 522.682 357.947 522.58 357.878C522.478 357.81 522.363 357.764 522.242 357.743C522.121 357.723 521.997 357.728 521.879 357.758L471.116 365.016C470.889 365.03 470.677 365.135 470.527 365.305C470.377 365.476 470.301 365.7 470.316 365.927C470.33 366.153 470.434 366.365 470.605 366.515C470.776 366.665 470.999 366.741 471.226 366.727H471.351ZM456.877 399.111C457.057 398.969 457.174 398.762 457.202 398.535C457.231 398.307 457.168 398.078 457.028 397.896L429.515 362.546C429.374 362.363 429.167 362.244 428.938 362.214C428.709 362.184 428.477 362.246 428.294 362.387C428.111 362.528 427.992 362.736 427.962 362.965C427.932 363.194 427.995 363.425 428.135 363.608L455.704 399.014C455.784 399.117 455.886 399.2 456.003 399.258C456.121 399.315 456.249 399.345 456.38 399.345C456.586 399.335 456.781 399.252 456.932 399.111H456.877ZM499.871 389.549C499.878 389.32 499.796 389.098 499.641 388.93C499.486 388.763 499.271 388.662 499.043 388.652L461.223 386.734C461.01 386.748 460.811 386.841 460.662 386.993C460.512 387.145 460.424 387.347 460.414 387.559C460.404 387.772 460.472 387.981 460.606 388.147C460.74 388.313 460.93 388.424 461.14 388.459L499.029 390.376C499.257 390.384 499.48 390.301 499.647 390.146C499.815 389.991 499.915 389.777 499.926 389.549H499.871ZM482.03 417.614C482.043 417.5 482.034 417.385 482.002 417.275C481.97 417.165 481.917 417.063 481.845 416.974C481.773 416.886 481.684 416.812 481.583 416.758C481.482 416.705 481.371 416.672 481.257 416.661L452.282 413.805C452.169 413.794 452.056 413.805 451.948 413.838C451.839 413.87 451.739 413.924 451.652 413.996C451.564 414.068 451.492 414.156 451.439 414.256C451.386 414.356 451.354 414.465 451.344 414.578C451.324 414.804 451.394 415.029 451.539 415.205C451.683 415.38 451.89 415.492 452.116 415.516L481.092 418.386H481.175C481.397 418.402 481.617 418.329 481.787 418.185C481.957 418.041 482.064 417.836 482.085 417.614H482.03ZM445.673 432.57C445.864 432.444 445.998 432.246 446.044 432.021C446.091 431.797 446.047 431.562 445.921 431.37L431.599 409.721C431.468 409.535 431.269 409.406 431.046 409.362C430.822 409.319 430.59 409.363 430.398 409.487C430.207 409.613 430.073 409.811 430.026 410.036C429.98 410.26 430.024 410.495 430.15 410.687L444.472 432.336C444.554 432.454 444.663 432.551 444.791 432.618C444.918 432.686 445.06 432.721 445.203 432.722C445.39 432.732 445.575 432.679 445.728 432.57H445.673ZM478.539 439.814C478.536 439.587 478.445 439.37 478.286 439.208C478.126 439.046 477.911 438.952 477.684 438.945L443.617 438.628C443.39 438.628 443.172 438.718 443.012 438.878C442.851 439.039 442.761 439.256 442.761 439.483C442.757 439.597 442.777 439.711 442.818 439.817C442.86 439.923 442.923 440.02 443.003 440.101C443.083 440.183 443.178 440.247 443.284 440.29C443.389 440.333 443.503 440.354 443.617 440.353L477.684 440.67C477.8 440.675 477.917 440.658 478.026 440.617C478.135 440.577 478.235 440.515 478.32 440.435C478.405 440.355 478.473 440.259 478.52 440.153C478.568 440.046 478.593 439.931 478.594 439.814H478.539ZM432.827 490.756C432.896 490.605 438.705 474.599 456.173 470.777C456.398 470.727 456.594 470.591 456.718 470.397C456.842 470.203 456.884 469.967 456.835 469.742C456.779 469.522 456.641 469.331 456.448 469.21C456.255 469.089 456.023 469.048 455.8 469.094C437.38 473.123 431.268 490.025 431.199 490.191C431.128 490.408 431.144 490.645 431.244 490.851C431.345 491.057 431.521 491.216 431.737 491.294H432.013C432.196 491.31 432.38 491.266 432.536 491.17C432.693 491.073 432.814 490.928 432.882 490.756H432.827ZM436.704 503.409C436.932 503.391 437.144 503.284 437.294 503.111C437.444 502.938 437.519 502.713 437.504 502.485C435.338 469.949 447.922 416.661 468.108 372.922C481.009 344.967 531.578 290.024 532.117 289.472C532.279 289.309 532.371 289.088 532.371 288.858C532.371 288.628 532.279 288.407 532.117 288.244C532.037 288.164 531.942 288.101 531.838 288.057C531.734 288.014 531.622 287.991 531.509 287.991C531.397 287.991 531.285 288.014 531.181 288.057C531.076 288.101 530.982 288.164 530.902 288.244C530.392 288.796 479.615 343.946 466.604 372.149C446.045 416.951 433.627 469.273 435.835 502.595C435.852 502.815 435.951 503.02 436.111 503.171C436.272 503.321 436.484 503.406 436.704 503.409ZM477.974 355.012C478.202 354.998 478.415 354.895 478.567 354.724C478.72 354.554 478.799 354.33 478.788 354.102L475.49 298.289C475.485 298.175 475.457 298.064 475.408 297.961C475.359 297.859 475.29 297.767 475.206 297.691C475.121 297.615 475.022 297.557 474.914 297.52C474.807 297.483 474.693 297.468 474.579 297.475C474.351 297.489 474.138 297.593 473.985 297.763C473.833 297.934 473.754 298.157 473.765 298.386L477.118 354.171C477.129 354.39 477.224 354.597 477.383 354.749C477.542 354.901 477.754 354.985 477.974 354.985V355.012ZM467.68 373.35C467.887 373.256 468.049 373.085 468.131 372.874C468.214 372.663 468.21 372.427 468.122 372.218L446.914 324.243C446.823 324.034 446.652 323.871 446.44 323.788C446.228 323.705 445.992 323.71 445.783 323.801C445.574 323.893 445.411 324.064 445.328 324.276C445.245 324.488 445.25 324.724 445.341 324.933L466.535 372.908C466.602 373.062 466.711 373.194 466.851 373.287C466.99 373.38 467.154 373.43 467.322 373.433C467.464 373.44 467.607 373.412 467.735 373.35H467.68ZM471.351 366.727L522.113 359.469C522.236 359.467 522.356 359.438 522.467 359.386C522.578 359.333 522.676 359.258 522.756 359.165C522.836 359.071 522.895 358.962 522.929 358.845C522.964 358.727 522.973 358.603 522.956 358.482C522.94 358.36 522.897 358.244 522.833 358.14C522.768 358.036 522.682 357.947 522.58 357.878C522.478 357.81 522.363 357.764 522.242 357.743C522.121 357.723 521.997 357.728 521.879 357.758L471.116 365.016C470.889 365.03 470.677 365.135 470.527 365.305C470.377 365.476 470.301 365.7 470.316 365.927C470.33 366.153 470.434 366.365 470.605 366.515C470.776 366.665 470.999 366.741 471.226 366.727H471.351ZM456.877 399.111C457.057 398.969 457.174 398.762 457.202 398.535C457.231 398.307 457.168 398.078 457.028 397.896L429.515 362.546C429.445 362.455 429.359 362.379 429.259 362.322C429.16 362.265 429.051 362.229 428.938 362.214C428.824 362.199 428.709 362.207 428.599 362.237C428.488 362.266 428.385 362.318 428.294 362.387C428.204 362.457 428.128 362.544 428.071 362.643C428.014 362.742 427.977 362.852 427.962 362.965C427.947 363.078 427.955 363.194 427.985 363.304C428.014 363.414 428.066 363.518 428.135 363.608L455.704 399.014C455.784 399.117 455.886 399.2 456.003 399.258C456.121 399.315 456.249 399.345 456.38 399.345C456.586 399.335 456.781 399.252 456.932 399.111H456.877ZM499.871 389.549C499.878 389.32 499.796 389.098 499.641 388.93C499.486 388.763 499.271 388.662 499.043 388.652L461.223 386.734C461.01 386.748 460.811 386.841 460.662 386.993C460.512 387.145 460.424 387.347 460.414 387.559C460.404 387.772 460.472 387.981 460.606 388.147C460.74 388.313 460.93 388.424 461.14 388.459L499.029 390.376C499.257 390.384 499.48 390.301 499.647 390.146C499.815 389.991 499.915 389.777 499.926 389.549H499.871ZM482.03 417.614C482.043 417.5 482.034 417.385 482.002 417.275C481.97 417.165 481.917 417.063 481.845 416.974C481.773 416.886 481.684 416.812 481.583 416.758C481.482 416.705 481.371 416.672 481.257 416.661L452.282 413.805C452.169 413.794 452.056 413.805 451.948 413.838C451.839 413.87 451.739 413.924 451.652 413.996C451.564 414.068 451.492 414.156 451.439 414.256C451.386 414.356 451.354 414.465 451.344 414.578C451.324 414.804 451.394 415.029 451.539 415.205C451.683 415.38 451.89 415.492 452.116 415.516L481.092 418.386H481.175C481.397 418.402 481.617 418.329 481.787 418.185C481.957 418.041 482.064 417.836 482.085 417.614H482.03ZM445.673 432.57C445.864 432.444 445.998 432.246 446.044 432.021C446.091 431.797 446.047 431.562 445.921 431.37L431.599 409.721C431.468 409.535 431.269 409.406 431.046 409.362C430.822 409.319 430.59 409.363 430.398 409.487C430.207 409.613 430.073 409.811 430.026 410.036C429.98 410.26 430.024 410.495 430.15 410.687L444.472 432.336C444.554 432.454 444.663 432.551 444.791 432.618C444.918 432.686 445.06 432.721 445.203 432.722C445.39 432.732 445.575 432.679 445.728 432.57H445.673ZM478.539 439.814C478.536 439.587 478.445 439.37 478.286 439.208C478.126 439.046 477.911 438.952 477.684 438.945L443.617 438.628C443.39 438.628 443.172 438.718 443.012 438.878C442.851 439.039 442.761 439.256 442.761 439.483C442.757 439.597 442.777 439.711 442.818 439.817C442.86 439.923 442.923 440.02 443.003 440.101C443.083 440.183 443.178 440.247 443.284 440.29C443.389 440.333 443.503 440.354 443.617 440.353L477.684 440.67C477.8 440.675 477.917 440.658 478.026 440.617C478.135 440.577 478.235 440.515 478.32 440.435C478.405 440.355 478.473 440.259 478.52 440.153C478.568 440.046 478.593 439.931 478.594 439.814H478.539ZM432.827 490.756C432.896 490.605 438.705 474.599 456.173 470.777C456.398 470.727 456.594 470.591 456.718 470.397C456.842 470.203 456.884 469.967 456.835 469.742C456.779 469.522 456.641 469.331 456.448 469.21C456.255 469.089 456.023 469.048 455.8 469.094C437.38 473.123 431.268 490.025 431.199 490.191C431.128 490.408 431.144 490.645 431.244 490.851C431.345 491.057 431.521 491.216 431.737 491.294H432.013C432.196 491.31 432.38 491.266 432.536 491.17C432.693 491.073 432.814 490.928 432.882 490.756H432.827Z" fill="white"/>
<path d="M459.236 479.083H420.174V487.169H423.582L430.633 531.281H448.777L455.828 487.169H459.236V479.083Z" fill="#164589" fill-opacity="0.7"/>
<path opacity="0.3" d="M459.236 479.083H420.174V487.169H423.582L430.633 531.281H448.777L455.828 487.169H459.236V479.083Z" fill="#164589" fill-opacity="0.7"/>
<path d="M107.555 234.584L62.118 219.751L58.0752 209.071L48.8444 208.782L32.0938 205.608L34.1082 209.071L55.1915 224.373L60.3933 226.967L107.913 251.79L107.555 234.584Z" fill="white" stroke="#263238" stroke-opacity="0.7" stroke-width="1.00396" stroke-miterlimit="10"/>
<path d="M58.0751 209.072L53.7426 206.478L45.0913 209.651L46.5263 211.376L58.0751 209.072Z" fill="white" stroke="#263238" stroke-opacity="0.7" stroke-width="1.00396" stroke-linejoin="round"/>
<path d="M107.555 234.584L62.118 219.751L58.0752 209.071L48.8444 208.782L32.0938 205.608L34.1082 209.071L55.1915 224.373L60.3933 226.967L107.913 251.79L107.555 234.584Z" fill="white"/>
<mask id="mask0_753_20308" style="mask-type:luminance" maskUnits="userSpaceOnUse" x="32" y="205" width="76" height="47">
<path d="M107.555 234.584L62.118 219.752L58.0752 209.072L48.8444 208.782L32.0938 205.609L34.1082 209.072L55.1915 224.374L60.3933 226.968L107.913 251.79L107.555 234.584Z" fill="white"/>
</mask>
<g mask="url(#mask0_753_20308)">
<path opacity="0.5" d="M107.555 234.584L62.118 219.752L58.0752 209.072L48.8444 208.782L32.0938 205.609L34.1082 209.072L55.1915 224.374L60.3933 226.968L107.913 251.79L107.555 234.584Z" fill="#164589" fill-opacity="0.7" stroke="#263238" stroke-opacity="0.7" stroke-width="1.00396" stroke-miterlimit="10"/>
</g>
<path d="M107.555 234.584L62.118 219.751L58.0752 209.071L48.8444 208.782L32.0938 205.608L34.1082 209.071L55.1915 224.373L60.3933 226.967L107.913 251.79L107.555 234.584Z" stroke="#263238" stroke-opacity="0.7" stroke-width="1.00396" stroke-miterlimit="10"/>
<path d="M58.0751 209.072L53.7426 206.478L45.0913 209.651L46.5263 211.376L58.0751 209.072Z" fill="white"/>
<mask id="mask1_753_20308" style="mask-type:luminance" maskUnits="userSpaceOnUse" x="45" y="206" width="14" height="6">
<path d="M58.0751 209.072L53.7426 206.478L45.0913 209.651L46.5263 211.376L58.0751 209.072Z" fill="white"/>
</mask>
<g mask="url(#mask1_753_20308)">
<path opacity="0.5" d="M58.0751 209.072L53.7426 206.478L45.0913 209.651L46.5263 211.376L58.0751 209.072Z" fill="#164589" fill-opacity="0.7" stroke="#263238" stroke-opacity="0.7" stroke-width="1.00396" stroke-linejoin="round"/>
</g>
<path d="M58.0751 209.072L53.7426 206.478L45.0913 209.651L46.5263 211.376L58.0751 209.072Z" stroke="#263238" stroke-opacity="0.7" stroke-width="1.00396" stroke-linejoin="round"/>
<path d="M117.199 138.316C117.199 138.316 116.495 144.525 118.248 148.512C120 152.5 129.728 166.008 129.728 166.008L111.569 180.565C111.569 180.565 104.036 165.387 102.601 162.931C101.166 160.475 99.4411 149.906 104.119 142.331C108.796 134.756 115.529 132.714 117.199 138.316Z" fill="white"/>
<mask id="mask2_753_20308" style="mask-type:luminance" maskUnits="userSpaceOnUse" x="101" y="135" width="29" height="46">
<path d="M117.2 138.316C117.2 138.316 116.496 144.525 118.248 148.512C120 152.5 129.728 166.008 129.728 166.008L111.57 180.565C111.57 180.565 104.036 165.387 102.601 162.931C101.166 160.475 99.4416 149.906 104.119 142.331C108.797 134.756 115.53 132.714 117.2 138.316Z" fill="white"/>
</mask>
<g mask="url(#mask2_753_20308)">
<g style="mix-blend-mode:multiply" opacity="0.5">
<path d="M107.872 158.267L115.75 174.604L111.556 180.579L103.636 166.436L107.872 158.267Z" fill="#164589" fill-opacity="0.7"/>
</g>
</g>
<path d="M117.199 138.316C117.199 138.316 116.495 144.525 118.248 148.512C120 152.5 129.728 166.008 129.728 166.008L111.569 180.565C111.569 180.565 104.036 165.387 102.601 162.931C101.166 160.475 99.4411 149.906 104.119 142.331C108.796 134.756 115.529 132.714 117.199 138.316Z" stroke="#263238" stroke-opacity="0.7" stroke-width="1.00396" stroke-miterlimit="10"/>
<path d="M122.829 126.946C121.711 120.047 113.805 106.015 101.263 106.553C93.1218 106.912 89.3135 108.554 85.7813 110.554C82.902 112.251 80.2182 114.259 77.7785 116.543C71.6522 123.897 69.4997 125.911 70.6863 131.541C70.589 133.786 70.9408 136.029 71.7212 138.136C73.5977 143.145 74.8809 146.415 76.5091 148.802C76.0123 151.134 74.7153 157.288 74.6463 158.695C74.5773 160.103 78.7857 159.123 80.9106 158.585C84.8568 167.416 92.0869 173.542 94.336 174.245C98.2546 175.474 104.45 169.03 107.734 164.035C111.018 159.04 108.534 153.424 108.548 151.189C108.562 148.954 115.93 144.042 118.662 142.483C121.394 140.924 123.933 133.831 122.829 126.946Z" fill="white"/>
<mask id="mask3_753_20308" style="mask-type:luminance" maskUnits="userSpaceOnUse" x="70" y="106" width="54" height="69">
<path d="M122.829 126.947C121.711 120.048 113.805 106.015 101.263 106.553C93.1218 106.912 89.3135 108.554 85.7813 110.555C82.902 112.251 80.2182 114.259 77.7785 116.543C71.6522 123.897 69.4997 125.912 70.6863 131.541C70.589 133.787 70.9408 136.029 71.7212 138.137C73.5977 143.145 74.8809 146.415 76.5091 148.802C76.0123 151.134 74.7153 157.288 74.6463 158.696C74.5773 160.103 78.7857 159.123 80.9106 158.585C84.8568 167.416 92.0869 173.542 94.336 174.246C98.2546 175.474 104.45 169.03 107.734 164.035C111.018 159.041 108.534 153.425 108.548 151.19C108.562 148.954 115.93 144.042 118.662 142.483C121.394 140.924 123.933 133.832 122.829 126.947Z" fill="white"/>
</mask>
<g mask="url(#mask3_753_20308)">
<g style="mix-blend-mode:multiply" opacity="0.5">
<path d="M70.7414 131.541C70.6441 133.786 70.9959 136.029 71.7763 138.136C73.6528 143.145 74.936 146.415 76.5641 148.802C76.0674 151.134 74.7704 157.288 74.7014 158.695C74.6324 160.103 78.8408 159.123 80.9657 158.585C84.9119 167.415 92.142 173.542 94.391 174.245C98.3097 175.473 104.505 169.03 107.789 164.035C108.609 162.788 109.142 161.374 109.348 159.896C109.169 159.247 109.044 158.847 109.044 158.847C109.044 158.847 107.196 165.953 103.525 165.028C99.855 164.104 94.2393 156.75 91.1071 154.211C87.975 151.672 89.2582 148.333 88.6373 144.552C88.0164 140.772 78.7442 137.446 78.1233 135.28C77.5024 133.114 79.6687 124.145 79.6687 124.145C79.6687 124.145 83.1871 119.454 82.4283 121.386C81.8919 123.061 81.6973 124.826 81.8561 126.578C82.0149 128.329 82.5238 130.031 83.3527 131.582C83.9343 132.806 84.857 133.836 86.0098 134.548C87.1627 135.261 88.4967 135.625 89.8515 135.597L93.2182 118.916L86.1123 113.038L77.8335 116.487C71.6521 123.897 69.541 125.911 70.7414 131.541Z" fill="#164589" fill-opacity="0.7"/>
</g>
</g>
<path d="M122.829 126.946C121.711 120.047 113.805 106.015 101.263 106.553C93.1218 106.912 89.3135 108.554 85.7813 110.554C82.902 112.251 80.2182 114.259 77.7785 116.543C71.6522 123.897 69.4997 125.911 70.6863 131.541C70.589 133.786 70.9408 136.029 71.7212 138.136C73.5977 143.145 74.8809 146.415 76.5091 148.802C76.0123 151.134 74.7153 157.288 74.6463 158.695C74.5773 160.103 78.7857 159.123 80.9106 158.585C84.8568 167.416 92.0869 173.542 94.336 174.245C98.2546 175.474 104.45 169.03 107.734 164.035C111.018 159.04 108.534 153.424 108.548 151.189C108.562 148.954 115.93 144.042 118.662 142.483C121.394 140.924 123.933 133.831 122.829 126.946Z" stroke="#263238" stroke-opacity="0.7" stroke-miterlimit="10"/>
<path d="M78.2202 144.635L79.6 148.581C79.6 148.581 82.5666 149.561 86.1816 145.615" stroke="#263238" stroke-opacity="0.7" stroke-miterlimit="10" stroke-linecap="round"/>
<path d="M88.4165 163.069C88.4165 163.069 91.7004 162.738 93.025 158.13" stroke="#263238" stroke-opacity="0.7" stroke-miterlimit="10" stroke-linecap="round"/>
<path d="M75.916 141.338C75.916 141.338 76.8957 138.371 82.815 138.371" stroke="#263238" stroke-opacity="0.7" stroke-miterlimit="10" stroke-linecap="round"/>
<path d="M106.257 101.061C101.956 100.443 97.6188 100.111 93.2736 100.068C93.2736 100.068 80.276 92.5753 67.7888 100.564C55.3017 108.553 61.3038 122.544 61.3038 126.035C61.3038 129.526 57.3024 129.54 59.7999 134.038C62.2973 138.536 70.7416 136.053 70.7416 136.053C70.8308 134.356 71.2792 132.698 72.057 131.187C72.8348 129.677 73.9243 128.349 75.2535 127.291C79.7516 123.8 83.3391 123.041 84.8293 124.048C84.8293 124.048 83.8358 131.541 85.326 134.535C85.326 134.535 90.3209 137.032 91.8248 137.032C93.3288 137.032 90.8452 139.143 95.8262 141.02C96.7337 141.346 97.7044 141.457 98.662 141.344C99.6197 141.232 100.538 140.899 101.345 140.371C102.077 137.336 103.677 132.769 106.658 133.831C111.032 135.39 115.019 146.153 109.1 149.823C116.22 151.12 124.843 138.522 125.354 127.043C125.864 115.563 113.653 102.358 106.257 101.061Z" fill="#263238" fill-opacity="0.7"/>
<path d="M85.0498 119.123C85.0498 119.123 88.72 117.15 93.2182 121.372C97.7163 125.594 106.464 131.237 118.054 128.133" stroke="white" stroke-width="0.5" stroke-linecap="round" stroke-linejoin="round"/>
<path d="M84.5396 115.742C84.5396 115.742 87.0646 111.796 91.2867 111.796C95.5089 111.796 105.374 117.715 113.253 117.715" stroke="white" stroke-width="0.5" stroke-linecap="round" stroke-linejoin="round"/>
<path d="M81.6696 123.345C81.6696 123.345 76.8817 117.439 72.3836 122.227C67.8855 127.015 70.7416 131.541 70.7416 131.541" stroke="white" stroke-width="0.5" stroke-linecap="round" stroke-linejoin="round"/>
<path d="M62.5317 127.291C65.2754 124.817 66.9811 121.396 67.3058 117.715C67.8715 111.52 76.3297 106.167 81.6694 111.244" stroke="white" stroke-width="0.5" stroke-linecap="round" stroke-linejoin="round"/>
<path d="M71.2524 104.759C71.2524 104.759 79.7106 96.5906 86.7475 107.008" stroke="white" stroke-width="0.5" stroke-linecap="round" stroke-linejoin="round"/>
<path d="M140.09 506.375C140.09 506.375 145.292 514.461 144.712 519.662L144.146 524.864C144.146 524.864 125.064 530.094 121.021 530.094C116.978 530.094 95.5778 528.065 95.5778 528.065L94.6533 524.395C94.5886 524.124 94.6191 523.839 94.7397 523.588C94.8603 523.336 95.0636 523.134 95.3156 523.015L114.398 514.116L120.414 507.534L140.09 506.375Z" fill="white" stroke="#263238" stroke-opacity="0.7" stroke-width="1.00396" stroke-miterlimit="10"/>
<path d="M123.919 526.023C129.093 526.423 138.917 523.264 144.616 521.249L144.215 524.864C144.215 524.864 125.064 530.094 121.021 530.094C116.978 530.094 95.5778 528.065 95.5778 528.065L94.9155 525.444C98.3374 525.458 117.075 525.499 123.919 526.023Z" fill="#164589" fill-opacity="0.7" stroke="#263238" stroke-opacity="0.7" stroke-width="1.00396" stroke-miterlimit="10"/>
<path d="M114.426 514.116L86.6505 526.203C86.6505 526.203 84.2772 532.15 86.6505 533.336C89.0237 534.523 140.766 533.336 140.766 533.336C140.766 533.336 144.34 523.94 138.696 517.634C133.053 511.329 114.426 514.116 114.426 514.116Z" fill="white" stroke="#263238" stroke-opacity="0.7" stroke-width="1.00396" stroke-miterlimit="10"/>
<path d="M140.766 533.336C140.766 533.336 89.0239 534.523 86.6507 533.336C85.5054 532.757 85.4641 531.087 85.7262 529.5H141.677C141.494 530.805 141.189 532.089 140.766 533.336Z" fill="#164589" fill-opacity="0.7" stroke="#263238" stroke-opacity="0.7" stroke-width="1.00396" stroke-miterlimit="10"/>
<path d="M101.29 304.098C101.29 304.098 94.0325 336.261 91.2867 356.378C88.5409 376.495 86.9265 416.799 87.5061 421.421C88.0856 426.044 116.978 503.492 116.978 503.492L119.862 510.39L140.09 506.348C140.09 506.348 130.845 476.875 127.382 460.69C123.919 444.505 116.344 417.917 116.344 413.294C116.344 408.672 134.281 320.393 135.564 314.598C136.847 308.803 142.67 299.903 142.67 299.903L103.939 299.117L101.29 304.098Z" fill="#164589" fill-opacity="0.7" stroke="#263238" stroke-opacity="0.7" stroke-width="1.00396" stroke-miterlimit="10"/>
<path d="M101.29 304.098C101.29 304.098 97.0405 333.474 98.7928 353.895C100.545 374.315 104.312 417.793 104.312 424.264C104.312 430.735 114.757 469.383 115.35 481.525C116.275 499.062 114.978 507.741 114.978 507.741L114.357 514.102C114.357 514.102 126.54 515.841 129.203 516.6C132.279 517.392 135.453 517.736 138.627 517.621C138.627 517.621 143.057 498.124 143.057 481.511C143.057 464.899 139.373 430.708 137.537 416.854C135.702 403.001 141.484 349.562 144.767 339.586C148.051 329.61 155.226 308.486 150.397 297.696C145.568 286.906 101.29 304.098 101.29 304.098Z" fill="#164589" fill-opacity="0.7" stroke="#263238" stroke-opacity="0.7" stroke-width="1.00396" stroke-miterlimit="10"/>
<path d="M155.765 292.287L155.323 305.422C155.323 305.422 147.458 306.982 136.861 308.817C128.114 310.334 106.147 308.417 98.7515 307.699C98.0776 307.639 97.4545 307.316 97.0178 306.799C96.5811 306.282 96.3661 305.614 96.4197 304.939L97.1372 293.073L155.765 292.287Z" fill="#263238" fill-opacity="0.7"/>
<path d="M125.023 161.345C125.023 161.345 112.605 174.77 107.927 183.118C103.25 191.466 101.401 204.256 99.6485 214.329C97.8961 224.401 102.643 248.051 101.304 258.91L97.0683 293.115C97.0683 293.115 96.1576 295.433 99.2069 297.972C102.256 300.511 117.144 301.435 130.597 302.111C135.509 302.359 150.176 299.2 152.577 299.048C155.475 298.869 155.571 295.185 155.696 292.287C156.275 278.668 158.731 242.366 160.346 226.554C163.671 194.308 145.471 163.18 125.023 161.345Z" fill="white" stroke="#263238" stroke-opacity="0.7" stroke-width="1.00396" stroke-miterlimit="10"/>
<g style="mix-blend-mode:multiply">
<path d="M158.828 244.891C159.38 237.73 159.932 231.231 160.415 226.554C160.553 225.174 160.635 223.794 160.704 222.414L127.713 227.934L99.3726 218.275C99.3757 224.139 99.7073 229.999 100.366 235.826L128.169 243.608L158.828 244.891Z" fill="#164589" fill-opacity="0.7"/>
</g>
<g style="mix-blend-mode:multiply">
<path d="M123.795 162.697C121.918 164.78 118.193 169.016 114.646 173.514L135.592 194.804L142.491 192.045L123.795 162.697Z" fill="#164589" fill-opacity="0.7"/>
</g>
<path d="M125.023 161.345C125.023 161.345 112.605 174.77 107.927 183.118C106.54 185.655 105.417 188.327 104.574 191.093L129.548 162.242C128.073 161.795 126.557 161.494 125.023 161.345Z" fill="#263238" fill-opacity="0.7"/>
<g style="mix-blend-mode:multiply">
<path d="M100.614 208.892L127.713 217.806L160.621 214.025C160.106 205.827 158.284 197.764 155.226 190.141L128.693 200.779L104.974 190.03C103.035 196.195 101.577 202.502 100.614 208.892Z" fill="#164589" fill-opacity="0.7"/>
</g>
<g style="mix-blend-mode:multiply">
<path d="M147.265 278.668C133.521 280.976 119.418 279.824 106.23 275.315L99.6208 273.052L97.5649 289.61L105.099 291.721C119.42 295.725 134.389 296.878 149.155 295.115L155.24 294.384C155.557 293.714 155.735 292.986 155.765 292.245C155.93 288.561 156.22 283.208 156.592 277.068L147.265 278.668Z" fill="#164589" fill-opacity="0.7"/>
</g>
<g style="mix-blend-mode:multiply">
<path d="M150.949 256.123C137.204 258.44 123.098 257.282 109.914 252.756L101.497 249.872C101.706 252.879 101.665 255.897 101.373 258.896L100.394 266.858L108.783 269.203C123.099 273.212 138.063 274.37 152.826 272.611L156.965 272.115C157.31 266.595 157.71 260.717 158.138 254.909L150.949 256.123Z" fill="#164589" fill-opacity="0.7"/>
</g>
<path d="M21.4985 197.774L48.1772 219.224L49.3271 217.794L22.6483 196.344L21.4985 197.774Z" fill="#263238" fill-opacity="0.7"/>
<path d="M137.869 176.232C137.869 176.232 147.651 182.897 147.872 198.64C147.969 205.539 147.251 211.983 145.664 223.283C144.078 234.584 134.226 271.383 126.554 275.853C118.883 280.324 106.975 271.88 106.975 271.88L49.3826 233.645L35.4605 222.4L28.5615 209.375L30.7278 205.236L47.713 218.261L38.565 209.803L40.3588 207.526L43.6702 209.83L53.3288 213.445L55.4399 227.243L58.4202 229.285L113.515 249.416C113.515 249.416 112.825 219.765 113.336 214.094C113.846 208.423 114.55 194.17 120.621 183.835" fill="white"/>
<mask id="mask4_753_20308" style="mask-type:luminance" maskUnits="userSpaceOnUse" x="28" y="176" width="120" height="102">
<path d="M137.869 176.232C137.869 176.232 147.651 182.897 147.872 198.64C147.969 205.539 147.251 211.983 145.664 223.283C144.078 234.584 134.226 271.383 126.554 275.853C118.883 280.324 106.975 271.88 106.975 271.88L49.3826 233.645L35.4605 222.4L28.5615 209.375L30.7278 205.236L47.713 218.261L38.565 209.803L40.3588 207.526L43.6702 209.83L53.3288 213.445L55.4399 227.243L58.4202 229.285L113.515 249.416C113.515 249.416 112.825 219.765 113.336 214.094C113.846 208.423 114.55 194.17 120.621 183.835" fill="white"/>
</mask>
<g mask="url(#mask4_753_20308)">
<g style="mix-blend-mode:multiply" opacity="0.5">
<path d="M113.129 227.009C113.129 237.247 113.474 249.417 113.474 249.417L58.434 229.368L55.4536 227.326L53.3426 213.528L43.684 209.913L40.3863 207.568L38.5926 209.844L47.713 218.261L30.7278 205.236L28.6719 209.306L35.5708 222.331L49.4929 233.646L52.9976 235.978L129.093 260.497L113.129 227.009Z" fill="#164589" fill-opacity="0.7"/>
</g>
</g>
<path d="M137.869 176.232C137.869 176.232 147.651 182.897 147.872 198.64C147.969 205.539 147.251 211.983 145.664 223.283C144.078 234.584 134.226 271.383 126.554 275.853C118.883 280.324 106.975 271.879 106.975 271.879L49.3826 233.645L35.4605 222.4L28.5615 209.375L30.7278 205.236L47.713 218.261L38.565 209.803L40.3588 207.526L43.6702 209.83L53.3288 213.445L55.4399 227.243L58.4202 229.285L113.515 249.416C113.515 249.416 112.825 219.765 113.336 214.094C113.846 208.423 114.55 194.17 120.621 183.835" stroke="#263238" stroke-opacity="0.7" stroke-width="1.00396" stroke-miterlimit="10"/>
<path d="M113.515 249.416L134.543 264.594L139.993 254.936C139.993 254.936 143.76 251.969 144.312 249.734C144.864 247.499 144.16 243.87 144.726 241.634C145.292 239.399 148.106 237.302 148.369 231.893C148.631 226.484 148.369 221.972 148.369 221.972C148.369 221.972 152.922 203.249 152.425 195.108C151.929 186.967 144.077 172.576 137.786 172.259C131.494 171.941 123.312 172.893 116.965 182.497C110.618 192.1 111.915 220.137 110.921 221.89C109.928 223.642 111.307 232.293 111.307 232.293C110.756 232.705 110.298 233.229 109.965 233.831C109.632 234.432 109.431 235.098 109.376 235.784C109.265 238.033 111.694 243.566 111.694 243.566L113.515 249.416Z" fill="white" stroke="#263238" stroke-opacity="0.7" stroke-width="1.00396" stroke-miterlimit="10"/>
<g style="mix-blend-mode:multiply">
<path d="M111.473 214.687C111.516 217.095 111.336 219.502 110.935 221.876C110.052 223.449 111.059 230.555 111.28 232.004C123.107 235.677 135.613 236.621 147.858 234.763C148.121 233.804 148.278 232.818 148.327 231.824C148.603 226.429 148.327 221.904 148.327 221.904C148.327 221.904 148.727 220.234 149.279 217.695C136.598 218.501 123.867 217.488 111.473 214.687Z" fill="#164589" fill-opacity="0.7"/>
</g>
<g style="mix-blend-mode:multiply">
<path d="M116.109 184.028C114.136 187.988 113.032 193.935 112.397 199.965C124.923 204.745 138.428 206.389 151.735 204.753C152.266 201.562 152.502 198.328 152.439 195.094C152.2 192.538 151.596 190.028 150.645 187.643C139.026 187.914 127.42 186.7 116.109 184.028Z" fill="#164589" fill-opacity="0.7"/>
</g>
<path d="M111.694 243.718L113.474 249.417L134.502 264.594L139.952 254.936C139.952 254.936 143.719 251.969 144.271 249.734C144.369 249.345 144.429 248.948 144.45 248.547C133.369 248.356 122.359 246.733 111.694 243.718Z" fill="#263238" fill-opacity="0.7"/>
<path d="M126.913 516.42C126.913 516.42 127.382 504.471 129.673 487.003C131.963 469.535 126.458 444.726 125.533 440.587C124.609 436.448 126.002 427.258 125.078 424.029C124.153 420.801 119.683 407.03 122.318 391.052C124.954 375.074 127.092 332.839 127.092 332.839C127.092 332.839 120.456 327.444 118.51 320.421C116.565 313.398 118.055 311.19 118.055 311.19" stroke="#263238" stroke-opacity="0.7" stroke-width="1.00396" stroke-miterlimit="10"/>
<path d="M129.99 311.839L127.438 325.968" stroke="#263238" stroke-opacity="0.7" stroke-width="1.00396" stroke-miterlimit="10"/>
</svg>
