<svg width="200" height="30" viewBox="0 0 200 30" fill="none" xmlns="http://www.w3.org/2000/svg">
<path d="M48.025 4.6499V0.399902H34.625V29.5999H48.025V25.3499C45.28 25.3499 42.6474 24.2594 40.7064 22.3184C38.7654 20.3774 37.675 17.7449 37.675 14.9999C37.675 12.2549 38.7654 9.62231 40.7064 7.68135C42.6474 5.74035 45.28 4.6499 48.025 4.6499Z" fill="#697077"/>
<path d="M48.0254 4.6499V25.3499C50.7704 25.3499 53.403 24.2594 55.344 22.3184C57.285 20.3774 58.3754 17.7449 58.3754 14.9999C58.3754 12.2549 57.285 9.62231 55.344 7.68135C53.403 5.74035 50.7704 4.6499 48.0254 4.6499Z" fill="#697077"/>
<path d="M71.0625 4.98828V23H67.6875V4.98828H71.0625ZM79.0547 10.3203L73.5469 16.6016L70.5938 19.5898L69.3633 17.1523L71.707 14.1758L75 10.3203H79.0547ZM75.5508 23L71.8008 17.1406L74.1328 15.1016L79.4414 23H75.5508ZM79.9688 16.7891V16.543C79.9688 15.6133 80.1016 14.7578 80.3672 13.9766C80.6328 13.1875 81.0195 12.5039 81.5273 11.9258C82.0352 11.3477 82.6602 10.8984 83.4023 10.5781C84.1445 10.25 84.9961 10.0859 85.957 10.0859C86.918 10.0859 87.7734 10.25 88.5234 10.5781C89.2734 10.8984 89.9023 11.3477 90.4102 11.9258C90.9258 12.5039 91.3164 13.1875 91.582 13.9766C91.8477 14.7578 91.9805 15.6133 91.9805 16.543V16.7891C91.9805 17.7109 91.8477 18.5664 91.582 19.3555C91.3164 20.1367 90.9258 20.8203 90.4102 21.4062C89.9023 21.9844 89.2773 22.4336 88.5352 22.7539C87.793 23.0742 86.9414 23.2344 85.9805 23.2344C85.0195 23.2344 84.1641 23.0742 83.4141 22.7539C82.6719 22.4336 82.043 21.9844 81.5273 21.4062C81.0195 20.8203 80.6328 20.1367 80.3672 19.3555C80.1016 18.5664 79.9688 17.7109 79.9688 16.7891ZM83.3438 16.543V16.7891C83.3438 17.3203 83.3906 17.8164 83.4844 18.2773C83.5781 18.7383 83.7266 19.1445 83.9297 19.4961C84.1406 19.8398 84.4141 20.1094 84.75 20.3047C85.0859 20.5 85.4961 20.5977 85.9805 20.5977C86.4492 20.5977 86.8516 20.5 87.1875 20.3047C87.5234 20.1094 87.793 19.8398 87.9961 19.4961C88.1992 19.1445 88.3477 18.7383 88.4414 18.2773C88.543 17.8164 88.5938 17.3203 88.5938 16.7891V16.543C88.5938 16.0273 88.543 15.543 88.4414 15.0898C88.3477 14.6289 88.1953 14.2227 87.9844 13.8711C87.7812 13.5117 87.5117 13.2305 87.1758 13.0273C86.8398 12.8242 86.4336 12.7227 85.957 12.7227C85.4805 12.7227 85.0742 12.8242 84.7383 13.0273C84.4102 13.2305 84.1406 13.5117 83.9297 13.8711C83.7266 14.2227 83.5781 14.6289 83.4844 15.0898C83.3906 15.543 83.3438 16.0273 83.3438 16.543ZM97.3594 13.0273V23H93.9844V10.3203H97.1484L97.3594 13.0273ZM96.8672 16.2148H95.9531C95.9531 15.2773 96.0742 14.4336 96.3164 13.6836C96.5586 12.9258 96.8984 12.2812 97.3359 11.75C97.7734 11.2109 98.293 10.8008 98.8945 10.5195C99.5039 10.2305 100.184 10.0859 100.934 10.0859C101.527 10.0859 102.07 10.1719 102.562 10.3438C103.055 10.5156 103.477 10.7891 103.828 11.1641C104.188 11.5391 104.461 12.0352 104.648 12.6523C104.844 13.2695 104.941 14.0234 104.941 14.9141V23H101.543V14.9023C101.543 14.3398 101.465 13.9023 101.309 13.5898C101.152 13.2773 100.922 13.0586 100.617 12.9336C100.32 12.8008 99.9531 12.7344 99.5156 12.7344C99.0625 12.7344 98.668 12.8242 98.332 13.0039C98.0039 13.1836 97.7305 13.4336 97.5117 13.7539C97.3008 14.0664 97.1406 14.4336 97.0312 14.8555C96.9219 15.2773 96.8672 15.7305 96.8672 16.2148ZM113.719 10.3203V12.7109H106.336V10.3203H113.719ZM108.164 7.19141H111.539V19.1797C111.539 19.5469 111.586 19.8281 111.68 20.0234C111.781 20.2188 111.93 20.3555 112.125 20.4336C112.32 20.5039 112.566 20.5391 112.863 20.5391C113.074 20.5391 113.262 20.5312 113.426 20.5156C113.598 20.4922 113.742 20.4688 113.859 20.4453L113.871 22.9297C113.582 23.0234 113.27 23.0977 112.934 23.1523C112.598 23.207 112.227 23.2344 111.82 23.2344C111.078 23.2344 110.43 23.1133 109.875 22.8711C109.328 22.6211 108.906 22.2227 108.609 21.6758C108.312 21.1289 108.164 20.4102 108.164 19.5195V7.19141ZM119.016 13.0859V23H115.641V10.3203H118.816L119.016 13.0859ZM122.836 10.2383L122.777 13.3672C122.613 13.3438 122.414 13.3242 122.18 13.3086C121.953 13.2852 121.746 13.2734 121.559 13.2734C121.082 13.2734 120.668 13.3359 120.316 13.4609C119.973 13.5781 119.684 13.7539 119.449 13.9883C119.223 14.2227 119.051 14.5078 118.934 14.8438C118.824 15.1797 118.762 15.5625 118.746 15.9922L118.066 15.7812C118.066 14.9609 118.148 14.207 118.312 13.5195C118.477 12.8242 118.715 12.2188 119.027 11.7031C119.348 11.1875 119.738 10.7891 120.199 10.5078C120.66 10.2266 121.188 10.0859 121.781 10.0859C121.969 10.0859 122.16 10.1016 122.355 10.1328C122.551 10.1562 122.711 10.1914 122.836 10.2383ZM130.875 20.1406V14.4922C130.875 14.0859 130.809 13.7383 130.676 13.4492C130.543 13.1523 130.336 12.9219 130.055 12.7578C129.781 12.5938 129.426 12.5117 128.988 12.5117C128.613 12.5117 128.289 12.5781 128.016 12.7109C127.742 12.8359 127.531 13.0195 127.383 13.2617C127.234 13.4961 127.16 13.7734 127.16 14.0938H123.785C123.785 13.5547 123.91 13.043 124.16 12.5586C124.41 12.0742 124.773 11.6484 125.25 11.2812C125.727 10.9062 126.293 10.6133 126.949 10.4023C127.613 10.1914 128.355 10.0859 129.176 10.0859C130.16 10.0859 131.035 10.25 131.801 10.5781C132.566 10.9062 133.168 11.3984 133.605 12.0547C134.051 12.7109 134.273 13.5312 134.273 14.5156V19.9414C134.273 20.6367 134.316 21.207 134.402 21.6523C134.488 22.0898 134.613 22.4727 134.777 22.8008V23H131.367C131.203 22.6562 131.078 22.2266 130.992 21.7109C130.914 21.1875 130.875 20.6641 130.875 20.1406ZM131.32 15.2773L131.344 17.1875H129.457C129.012 17.1875 128.625 17.2383 128.297 17.3398C127.969 17.4414 127.699 17.5859 127.488 17.7734C127.277 17.9531 127.121 18.1641 127.02 18.4062C126.926 18.6484 126.879 18.9141 126.879 19.2031C126.879 19.4922 126.945 19.7539 127.078 19.9883C127.211 20.2148 127.402 20.3945 127.652 20.5273C127.902 20.6523 128.195 20.7148 128.531 20.7148C129.039 20.7148 129.48 20.6133 129.855 20.4102C130.23 20.207 130.52 19.957 130.723 19.6602C130.934 19.3633 131.043 19.082 131.051 18.8164L131.941 20.2461C131.816 20.5664 131.645 20.8984 131.426 21.2422C131.215 21.5859 130.945 21.9102 130.617 22.2148C130.289 22.5117 129.895 22.7578 129.434 22.9531C128.973 23.1406 128.426 23.2344 127.793 23.2344C126.988 23.2344 126.258 23.0742 125.602 22.7539C124.953 22.4258 124.438 21.9766 124.055 21.4062C123.68 20.8281 123.492 20.1719 123.492 19.4375C123.492 18.7734 123.617 18.1836 123.867 17.668C124.117 17.1523 124.484 16.7188 124.969 16.3672C125.461 16.0078 126.074 15.7383 126.809 15.5586C127.543 15.3711 128.395 15.2773 129.363 15.2773H131.32ZM143.73 19.4961C143.73 19.2539 143.66 19.0352 143.52 18.8398C143.379 18.6445 143.117 18.4648 142.734 18.3008C142.359 18.1289 141.816 17.9727 141.105 17.832C140.465 17.6914 139.867 17.5156 139.312 17.3047C138.766 17.0859 138.289 16.8242 137.883 16.5195C137.484 16.2148 137.172 15.8555 136.945 15.4414C136.719 15.0195 136.605 14.5391 136.605 14C136.605 13.4688 136.719 12.9688 136.945 12.5C137.18 12.0312 137.512 11.6172 137.941 11.2578C138.379 10.8906 138.91 10.6055 139.535 10.4023C140.168 10.1914 140.879 10.0859 141.668 10.0859C142.77 10.0859 143.715 10.2617 144.504 10.6133C145.301 10.9648 145.91 11.4492 146.332 12.0664C146.762 12.6758 146.977 13.3711 146.977 14.1523H143.602C143.602 13.8242 143.531 13.5312 143.391 13.2734C143.258 13.0078 143.047 12.8008 142.758 12.6523C142.477 12.4961 142.109 12.418 141.656 12.418C141.281 12.418 140.957 12.4844 140.684 12.6172C140.41 12.7422 140.199 12.9141 140.051 13.1328C139.91 13.3438 139.84 13.5781 139.84 13.8359C139.84 14.0312 139.879 14.207 139.957 14.3633C140.043 14.5117 140.18 14.6484 140.367 14.7734C140.555 14.8984 140.797 15.0156 141.094 15.125C141.398 15.2266 141.773 15.3203 142.219 15.4062C143.133 15.5938 143.949 15.8398 144.668 16.1445C145.387 16.4414 145.957 16.8477 146.379 17.3633C146.801 17.8711 147.012 18.5391 147.012 19.3672C147.012 19.9297 146.887 20.4453 146.637 20.9141C146.387 21.3828 146.027 21.793 145.559 22.1445C145.09 22.4883 144.527 22.7578 143.871 22.9531C143.223 23.1406 142.492 23.2344 141.68 23.2344C140.5 23.2344 139.5 23.0234 138.68 22.6016C137.867 22.1797 137.25 21.6445 136.828 20.9961C136.414 20.3398 136.207 19.668 136.207 18.9805H139.406C139.422 19.4414 139.539 19.8125 139.758 20.0938C139.984 20.375 140.27 20.5781 140.613 20.7031C140.965 20.8281 141.344 20.8906 141.75 20.8906C142.188 20.8906 142.551 20.832 142.84 20.7148C143.129 20.5898 143.348 20.4258 143.496 20.2227C143.652 20.0117 143.73 19.7695 143.73 19.4961ZM155.414 10.3203V12.7109H148.031V10.3203H155.414ZM149.859 7.19141H153.234V19.1797C153.234 19.5469 153.281 19.8281 153.375 20.0234C153.477 20.2188 153.625 20.3555 153.82 20.4336C154.016 20.5039 154.262 20.5391 154.559 20.5391C154.77 20.5391 154.957 20.5312 155.121 20.5156C155.293 20.4922 155.438 20.4688 155.555 20.4453L155.566 22.9297C155.277 23.0234 154.965 23.0977 154.629 23.1523C154.293 23.207 153.922 23.2344 153.516 23.2344C152.773 23.2344 152.125 23.1133 151.57 22.8711C151.023 22.6211 150.602 22.2227 150.305 21.6758C150.008 21.1289 149.859 20.4102 149.859 19.5195V7.19141ZM160.711 13.0859V23H157.336V10.3203H160.512L160.711 13.0859ZM164.531 10.2383L164.473 13.3672C164.309 13.3438 164.109 13.3242 163.875 13.3086C163.648 13.2852 163.441 13.2734 163.254 13.2734C162.777 13.2734 162.363 13.3359 162.012 13.4609C161.668 13.5781 161.379 13.7539 161.145 13.9883C160.918 14.2227 160.746 14.5078 160.629 14.8438C160.52 15.1797 160.457 15.5625 160.441 15.9922L159.762 15.7812C159.762 14.9609 159.844 14.207 160.008 13.5195C160.172 12.8242 160.41 12.2188 160.723 11.7031C161.043 11.1875 161.434 10.7891 161.895 10.5078C162.355 10.2266 162.883 10.0859 163.477 10.0859C163.664 10.0859 163.855 10.1016 164.051 10.1328C164.246 10.1562 164.406 10.1914 164.531 10.2383Z" fill="#697077"/>
</svg>
