<svg width="101" height="80" viewBox="0 0 101 80" fill="none" xmlns="http://www.w3.org/2000/svg">
<g clip-path="url(#clip0_261_15092)">
<path fill-rule="evenodd" clip-rule="evenodd" d="M2.77063 15.8234H12.4112C12.7898 15.8012 13.1688 15.8602 13.5249 15.9969C13.881 16.1335 14.2068 16.3448 14.4823 16.618C14.7578 16.8911 14.9773 17.2203 15.1273 17.5854C15.2773 17.9505 15.3547 18.3438 15.3547 18.7413C15.3547 19.1389 15.2773 19.5322 15.1273 19.8973C14.9773 20.2624 14.7578 20.5916 14.4823 20.8647C14.2068 21.1379 13.881 21.3492 13.5249 21.4858C13.1688 21.6224 12.7898 21.6815 12.4112 21.6593H2.77063C2.05926 21.6176 1.39008 21.292 0.900537 20.7494C0.410992 20.2067 0.138251 19.4882 0.138251 18.7413C0.138251 17.9945 0.410992 17.2759 0.900537 16.7333C1.39008 16.1906 2.05926 15.8651 2.77063 15.8234ZM21.3222 56.3469H23.0592V62.1919H21.3222C20.5828 62.1919 19.8737 61.884 19.3508 61.3359C18.828 60.7878 18.5343 60.0445 18.5343 59.2694C18.5343 58.4943 18.828 57.7509 19.3508 57.2029C19.8737 56.6548 20.5828 56.3469 21.3222 56.3469ZM2.77063 56.3469H12.4112C12.7773 56.3469 13.1398 56.4225 13.4781 56.5693C13.8163 56.7162 14.1237 56.9315 14.3826 57.2029C14.6414 57.4743 14.8468 57.7964 14.9869 58.151C15.127 58.5056 15.1991 58.8856 15.1991 59.2694C15.1991 59.6532 15.127 60.0332 14.9869 60.3878C14.8468 60.7424 14.6414 61.0645 14.3826 61.3359C14.1237 61.6073 13.8163 61.8226 13.4781 61.9694C13.1398 62.1163 12.7773 62.1919 12.4112 62.1919H2.77063C2.03122 62.1919 1.32208 61.884 0.799234 61.3359C0.276394 60.7878 -0.017334 60.0445 -0.017334 59.2694C-0.017334 58.4943 0.276394 57.7509 0.799234 57.2029C1.32208 56.6548 2.03122 56.3469 2.77063 56.3469ZM15.4944 42.8633H23.1113V48.7083H15.5118C14.7724 48.7083 14.0633 48.4004 13.5404 47.8524C13.0176 47.3043 12.7239 46.5609 12.7239 45.7858C12.7239 45.0107 13.0176 44.2674 13.5404 43.7193C14.0633 43.1712 14.7724 42.8633 15.5118 42.8633H15.4944ZM2.77063 42.8633H6.64424C7.38365 42.8633 8.09274 43.1712 8.61558 43.7193C9.13842 44.2674 9.43215 45.0107 9.43215 45.7858C9.43215 46.5609 9.13842 47.3043 8.61558 47.8524C8.09274 48.4004 7.38365 48.7083 6.64424 48.7083H2.77063C2.03122 48.7083 1.32208 48.4004 0.799234 47.8524C0.276394 47.3043 -0.017334 46.5609 -0.017334 45.7858C-0.017334 45.0107 0.276394 44.2674 0.799234 43.7193C1.32208 43.1712 2.03122 42.8633 2.77063 42.8633ZM8.32047 29.3525H23.1461V35.1975H8.32917C7.58976 35.1975 6.88061 34.8896 6.35777 34.3415C5.83493 33.7934 5.5412 33.0501 5.5412 32.275C5.5412 31.4999 5.83493 30.7565 6.35777 30.2085C6.88061 29.6604 7.58976 29.3525 8.32917 29.3525H8.32047ZM21.3482 15.8507H23.2155V21.6866H21.3569C20.9783 21.7088 20.5993 21.6498 20.2432 21.5131C19.8871 21.3765 19.5613 21.1652 19.2858 20.892C19.0103 20.6189 18.7908 20.2897 18.6408 19.9246C18.4908 19.5595 18.4134 19.1662 18.4134 18.7687C18.4134 18.3711 18.4908 17.9778 18.6408 17.6127C18.7908 17.2476 19.0103 16.9184 19.2858 16.6453C19.5613 16.3721 19.8871 16.1608 20.2432 16.0242C20.5993 15.8876 20.9783 15.8285 21.3569 15.8507H21.3482Z" fill="#FD8500"/>
<path fill-rule="evenodd" clip-rule="evenodd" d="M29.217 0.218382L54.2998 6.59143C55.3842 6.88135 56.3532 7.52378 57.0678 8.42661C57.7824 9.32945 58.2059 10.4463 58.2776 11.617V15.7413L29.2865 9.91452V68.2735L58.6076 62.5468V68.1096C58.558 69.3037 58.1451 70.4499 57.4294 71.3804C56.7136 72.3109 55.7326 72.9769 54.6298 73.2809L29.0954 79.7814C25.7863 80.6281 23.0157 78.9347 23.0157 76.0122L23.2068 3.8237C23.2068 1.01045 25.9687 -0.601018 29.1996 0.181957L29.217 0.218382ZM42.7919 5.82666C43.2166 5.82485 43.6322 5.95522 43.9861 6.20122C44.34 6.44722 44.6163 6.79779 44.78 7.20854C44.9437 7.61928 44.9874 8.07173 44.9057 8.50855C44.8239 8.94537 44.6202 9.34691 44.3206 9.66232C44.0209 9.97773 43.6387 10.1928 43.2223 10.2803C42.8059 10.3678 42.3742 10.3238 41.9817 10.1539C41.5892 9.98396 41.2536 9.69573 41.0175 9.32573C40.7814 8.95572 40.6554 8.52059 40.6554 8.07543C40.6553 7.4806 40.8802 6.90999 41.2806 6.48852C41.681 6.06705 42.2245 5.82906 42.7919 5.82666ZM39.4481 69.0928L45.6841 67.6088C45.9415 67.5346 46.2123 67.5266 46.4733 67.5855C46.7344 67.6445 46.978 67.7686 47.1834 67.9473C47.3889 68.1261 47.5502 68.3542 47.6535 68.6123C47.7569 68.8703 47.7994 69.1508 47.7772 69.4297C47.7604 70.0703 47.548 70.6884 47.1713 71.1932C46.7945 71.6979 46.2732 72.0627 45.6841 72.2339L39.4481 73.7178C39.1908 73.7899 38.9208 73.7963 38.6606 73.7365C38.4005 73.6767 38.1578 73.5525 37.9528 73.3742C37.7479 73.1959 37.5867 72.9688 37.4826 72.7118C37.3786 72.4548 37.3349 72.1754 37.355 71.897C37.3718 71.2563 37.5842 70.6383 37.961 70.1335C38.3377 69.6288 38.8589 69.264 39.4481 69.0928Z" fill="#164589"/>
<path fill-rule="evenodd" clip-rule="evenodd" d="M28.9737 79.8271C25.7428 80.5736 23.0244 78.9166 23.0331 76.0123L23.2242 3.83298C23.2242 1.04705 25.9079 -0.555321 29.0866 0.191237C28.272 0.349255 27.535 0.798667 27.0012 1.4628C26.4675 2.12693 26.17 2.96463 26.1597 3.83298L25.9687 76.0123C25.9658 76.916 26.2647 77.7921 26.8136 78.4889C27.3625 79.1857 28.1267 79.6591 28.9737 79.8271Z" fill="#164589"/>
<path d="M55.6026 31.9383C55.6026 39.7134 51.3295 44.2565 44.833 44.2565C38.3364 44.2565 34.0026 39.7043 34.0026 31.9383C34.0026 24.1723 38.3451 19.6201 44.833 19.6201C51.3208 19.6201 55.6026 24.1359 55.6026 31.9383ZM40.473 31.9383C40.473 36.008 42.0189 38.0838 44.8156 38.0838C47.6122 38.0838 49.1582 36.0444 49.1582 31.9383C49.1582 27.8322 47.6383 25.7929 44.8156 25.7929C41.9929 25.7929 40.473 27.8687 40.473 31.9383Z" fill="#FD8500"/>
<path d="M58.6337 43.883V19.9932H66.7109L73.3638 34.4964V19.9932H79.2002V43.883H71.7396L64.4701 28.4056V43.883H58.6337Z" fill="#FD8500"/>
<path d="M82.9261 43.883V19.9932H100.436V25.7926H89.0232V29.1248H98.1773V34.7513H89.0232V38.0835H100.844V43.883H82.9261Z" fill="#FD8500"/>
<path d="M34.0372 59.0053V47.6431H37.8761L40.9854 54.526V47.6522H43.7473V59.0144H40.2037L36.7296 51.6763V59.0144L34.0372 59.0053Z" fill="#FD8500"/>
<path d="M54.8817 47.6431V54.0981C54.8817 57.5395 53.275 59.1874 50.1309 59.1874C46.9869 59.1874 45.3888 57.5395 45.3888 54.0981V47.6431H48.3939V54.1527C48.3939 55.5001 48.8889 56.2467 50.1309 56.2467C51.3729 56.2467 51.868 55.4728 51.868 54.1527V47.6431H54.8817Z" fill="#FD8500"/>
<path d="M56.5405 59.0053V47.6431H61.0916L62.8286 55.145L64.6959 47.6431H69.1167V59.0053H66.2158V50.9662L64.0966 59.0053H61.3869L59.2851 50.8842V58.9689L56.5405 59.0053Z" fill="#FD8500"/>
<path d="M70.9059 59.0053V47.6431H76.2907C78.8355 47.6431 80.0861 48.7083 80.0861 50.7112C80.1173 51.3139 79.9351 51.9074 79.5744 52.3778C79.2138 52.8483 78.7001 53.1626 78.132 53.2605C78.4405 53.2802 78.7423 53.3634 79.0201 53.5054C79.2979 53.6474 79.5464 53.8453 79.7512 54.088C79.9561 54.3306 80.1133 54.6132 80.214 54.9195C80.3147 55.2259 80.3568 55.55 80.338 55.8734C80.338 57.8399 79.0873 58.9871 76.586 58.9871L70.9059 59.0053ZM73.8067 52.0951H75.7262C76.5339 52.0951 76.9768 51.7764 76.9768 51.0663C76.9768 50.3562 76.5512 50.0375 75.7262 50.0375H73.772L73.8067 52.0951ZM73.8067 56.5835H75.9954C76.8639 56.5835 77.2634 56.2467 77.2634 55.5183C77.2634 54.79 76.8205 54.4895 75.9954 54.4895H73.8067V56.5835Z" fill="#FD8500"/>
<path d="M81.5886 59.0053V47.6431H89.9177V50.3744H84.4895V51.9585H88.8321V54.6352H84.4895V56.2194H90.1088V58.9507L81.5886 59.0053Z" fill="#FD8500"/>
<path d="M101 59.0053H97.6996L95.8149 55.4364H94.3471V59.0326H91.4028V47.6431H96.6139C99.1326 47.6431 100.592 49.0998 100.592 51.3394C100.645 52.051 100.49 52.7627 100.147 53.3794C99.8038 53.996 99.2894 54.4881 98.6723 54.79L101 59.0053ZM94.3471 50.3106V52.7961H96.0842C96.8919 52.7961 97.5346 52.5503 97.5346 51.5488C97.5346 50.5474 96.8745 50.3106 96.0842 50.3106H94.3471Z" fill="#FD8500"/>
</g>
<defs>
<clipPath id="clip0_261_15092">
<rect width="101" height="80" fill="white"/>
</clipPath>
</defs>
</svg>
