<svg width="200" height="32" viewBox="0 0 200 32" fill="none" xmlns="http://www.w3.org/2000/svg">
<path fill-rule="evenodd" clip-rule="evenodd" d="M37.8008 16.3482L37.8023 16.1879L37.8055 16.0275L37.8103 15.8671L37.8168 15.7067L37.8249 15.5463L37.8347 15.3859L37.8461 15.2256L37.8592 15.0653L37.8739 14.905L37.8903 14.7448L37.9083 14.5848L37.928 14.4248L37.9493 14.265L37.9722 14.1053L37.9968 13.9458L38.0231 13.7865L38.051 13.6273L38.0805 13.4684L38.1117 13.3097L38.1445 13.1512L38.1789 12.993L38.215 12.835L38.2528 12.6774L38.2921 12.5201L38.3331 12.3631L38.3757 12.2064L38.4199 12.0501L38.4658 11.8942L38.5132 11.7386L38.5623 11.5835L38.613 11.4288L38.6653 11.2745L38.7192 11.1206L38.7747 10.9673L38.8318 10.8144L38.8904 10.662L38.9507 10.5102L39.0125 10.3588L39.0759 10.2081L39.1409 10.0578L39.2075 9.90816L39.2756 9.75912L39.3453 9.61072L39.4165 9.46288L39.4892 9.31568L39.5635 9.1692L39.6394 9.02336L39.7167 8.87816L39.7956 8.73376L39.8759 8.59L39.9578 8.44696L40.0412 8.30472L40.1261 8.1632L40.2124 8.02248L40.3003 7.88256L40.3896 7.74344L40.4803 7.6052L40.5725 7.46768L40.6662 7.33112L40.7613 7.19536L40.8578 7.06048L40.9557 6.92656L41.0551 6.79344L41.1559 6.66136L41.258 6.53016L41.3615 6.39987L41.4664 6.27059L41.5727 6.14229L41.6803 6.01498L41.7893 5.88866L41.8996 5.76338L42.0113 5.63913L42.1242 5.51592L42.2385 5.39378L42.354 5.2727L42.4709 5.15272L42.589 5.03383L42.7083 4.91606L42.829 4.79941L42.9509 4.6839L43.074 4.56954L43.1983 4.45634L43.3238 4.34433L43.4505 4.2335L43.5784 4.12386L43.7075 4.01544L43.8378 3.90825L43.9692 3.80229L44.1017 3.69758L44.2353 3.59412L44.3701 3.49194L44.506 3.39104L44.6429 3.29144L44.7809 3.19314L44.92 3.09616L45.0601 3.0005L45.2013 2.90618L45.3434 2.81321L45.4866 2.72159L45.6309 2.63135L45.776 2.54249L45.9221 2.45501L46.0692 2.36894L46.2172 2.28427L46.3661 2.20102L46.516 2.11921L46.6667 2.03882L46.8183 1.9599L46.9708 1.88242L47.1241 1.80641L47.2783 1.73187L47.4333 1.65882L47.5891 1.58726L47.7457 1.5172L47.9031 1.44865L48.0613 1.38162L48.2201 1.31611L48.3797 1.25214L48.5401 1.1897L48.7011 1.12882L48.8628 1.06948L49.0252 1.01172L49.1882 0.95552L49.3519 0.900896L49.5161 0.847864L49.681 0.796416L49.8465 0.746568L50.0126 0.698328L50.1792 0.651696L50.3464 0.606672L50.5141 0.563272L50.6822 0.521504L50.8509 0.481376L51.0201 0.442872L51.1897 0.406024L51.3597 0.370816L51.5301 0.337264L51.701 0.305376L51.8723 0.275144L52.044 0.246584L52.216 0.219696L52.3883 0.19448L52.5609 0.170952L52.7339 0.149104L52.9072 0.128944L53.0807 0.110464L53.2545 0.093696L53.4285 0.078616L53.6027 0.0652321L53.7771 0.0535601L54.715 0L54.7685 4.51894L54.7992 4.51858L54.9287 4.5184L55.0582 4.51949L55.1877 4.52185L55.3174 4.52549L55.447 4.5304L55.5767 4.53658L55.7064 4.54404L55.8361 4.55278L55.9657 4.56279L56.0953 4.57409L56.2249 4.58666L56.3544 4.60052L56.4837 4.61565L56.6131 4.63206L56.7423 4.64974L56.8714 4.6687L57.0004 4.68895L57.1293 4.71047L57.2579 4.73326L57.3865 4.75734L57.5148 4.78268L57.6429 4.8093L57.7709 4.83719L57.8985 4.86635L58.026 4.89678L58.1533 4.92847L58.2802 4.96144L58.4069 4.99566L58.5333 5.03115L58.6594 5.0679L58.7852 5.1059L58.9106 5.14515L59.0357 5.18566L59.1605 5.22742L59.2849 5.27042L59.4089 5.31467L59.5326 5.36015L59.6558 5.40688L59.7786 5.45483L59.901 5.50402L60.0229 5.55444L60.1444 5.60607L60.2654 5.65893L60.386 5.713L60.506 5.76828L60.6255 5.82476L60.7445 5.88245L60.863 5.94134L60.9809 6.00142L61.0983 6.06268L61.2151 6.12513L61.3313 6.18876L61.4469 6.25356L61.562 6.31953L61.6764 6.38666L61.7901 6.45496L61.9033 6.5244L62.0157 6.59496L62.1275 6.66672L62.2386 6.73952L62.349 6.81352L62.4588 6.88864L62.5677 6.9648L62.6761 7.04216L62.7836 7.12056L62.8903 7.20008L62.9964 7.28072L63.1016 7.3624L63.2061 7.4452L63.3097 7.52896L63.4125 7.61384L63.5145 7.69984L63.6157 7.7868L63.7161 7.8748L63.8157 7.96384L63.9142 8.05392L64.012 8.14504L64.1089 8.23712L64.2049 8.33016L64.2999 8.42424L64.3941 8.51928L64.4873 8.61536L64.5796 8.71232L64.6709 8.81024L64.7613 8.90912L64.8506 9.00896L64.939 9.10968L65.0265 9.21136L65.1129 9.31392L65.1983 9.41736L65.2827 9.52176L65.3661 9.62696L65.4484 9.73304L65.5297 9.84L65.6099 9.94784L65.689 10.0565L65.7671 10.166L65.8441 10.2763L65.92 10.3874L65.9948 10.4993L66.0685 10.612L66.141 10.7255L66.2124 10.8398L66.2827 10.9547L66.3518 11.0705L66.4198 11.187L66.4866 11.3042L66.5523 11.4221L66.6168 11.5407L66.6801 11.66L66.7421 11.78L66.803 11.9006L66.8627 12.0219L66.9212 12.1439L66.9785 12.2665L67.0345 12.3897L67.0893 12.5135L67.1428 12.6379L67.195 12.763L67.2461 12.8885L67.2958 13.0146L67.3443 13.1413L67.3915 13.2686L67.4374 13.3962L67.4821 13.5246L67.5254 13.6533L67.5675 13.7826L67.6082 13.9122L67.6477 14.0424L67.6857 14.173L67.7225 14.3041L67.758 14.4356L67.7921 14.5675L67.8249 14.6998L67.8564 14.8325L67.8865 14.9655L67.9152 15.099L67.9426 15.2326L67.9686 15.3668L67.9933 15.5012L68.0166 15.6359L68.0385 15.7709L68.0591 15.9062L68.0783 16.0418L68.0961 16.1775L68.1125 16.3136L68.1275 16.4498L68.1411 16.5863L68.1533 16.723L68.1642 16.8598L68.1737 16.9969L68.1817 17.1341L68.1883 17.2714L68.1936 17.4089L68.1973 17.5464L68.1998 17.6841L68.2008 17.8218L68.2004 17.9597L68.1985 18.0976L68.1953 18.2356L68.1906 18.3735L68.1845 18.5115L68.1771 18.6495L68.1681 18.7875L68.1578 18.9255L68.1461 19.0634L68.1329 19.2014L68.1183 19.3392L68.1022 19.4769L68.0848 19.6146L68.066 19.7521L68.0457 19.8895L68.024 20.0268L68.0009 20.1639L67.9763 20.3009L67.9504 20.4377L67.923 20.5743L67.8942 20.7107L67.864 20.8469L67.8324 20.9829L67.7994 21.1186L67.7649 21.254L67.7291 21.3891L67.6919 21.524L67.6533 21.6586L67.6133 21.7928L67.5718 21.9268L67.5289 22.0603L67.4848 22.1936L67.4392 22.3264L67.3921 22.4589L67.3438 22.591L67.2941 22.7226L67.2429 22.8538L67.1905 22.9846L67.1366 23.1149L67.0814 23.2447L67.0249 23.3742L66.9669 23.503L66.9077 23.6314L66.847 23.7592L66.7851 23.8865L66.7217 24.0133L66.6572 24.1394L66.5912 24.2651L66.524 24.3901L66.4553 24.5146L66.3855 24.6383L66.3143 24.7615L66.2418 24.8841L66.1681 25.0059L66.093 25.1272L66.0166 25.2477L65.939 25.3675L65.8602 25.4866L65.7801 25.605L65.6987 25.7227L65.6161 25.8397L65.5322 25.9558L65.4471 26.0713L65.3608 26.1859L65.2733 26.2998L65.1845 26.4127L65.0946 26.525L65.0035 26.6363L64.9112 26.7468L64.8177 26.8565L64.723 26.9653L64.6272 27.0732L64.5302 27.1802L64.4321 27.2864L64.3329 27.3916L64.2325 27.4959L64.1311 27.5992L64.0285 27.7016L63.9248 27.803L63.8201 27.9035L63.7142 28.003L63.6073 28.1015L63.4993 28.199L63.3903 28.2954L63.2803 28.3909L63.1692 28.4854L63.0571 28.5787L62.944 28.671L62.8299 28.7622L62.7148 28.8524L62.5987 28.9414L62.4817 29.0294L62.3637 29.1162L62.2448 29.202L62.1249 29.2866L62.0041 29.3701L61.8824 29.4524L61.7598 29.5335L61.6363 29.6135L61.512 29.6924L61.3868 29.77L61.2607 29.8465L61.1337 29.9217L61.006 29.9958L60.8775 30.0686L60.7481 30.1401L60.618 30.2105L60.487 30.2795L60.3553 30.3474L60.2229 30.414L60.0897 30.4793L59.9557 30.5433L59.8211 30.6061L59.6857 30.6675L59.5497 30.7277L59.413 30.7865L59.2757 30.844L59.1377 30.9002L58.999 30.9551L58.8597 31.0086L58.7198 31.0609L58.5793 31.1117L58.4382 31.1612L58.2966 31.2093L58.1545 31.2561L58.0117 31.3014L57.8684 31.3454L57.7246 31.3881L57.5804 31.4293L57.4356 31.4691L57.2904 31.5076L57.1446 31.5446L56.9985 31.5802L56.852 31.6144L56.7049 31.6471L56.5576 31.6785L56.4098 31.7084L56.2617 31.7369L56.1132 31.7639L55.9644 31.7894L55.8152 31.8136L55.6657 31.8363L55.5159 31.8575L55.3659 31.8773L55.2156 31.8956L55.0649 31.9124L54.9141 31.9278L54.7631 31.9417L54.6119 31.9541L54.4605 31.965L54.3089 31.9745L54.157 31.9825L54.0051 31.989L53.8531 31.9939L53.7009 31.9974L53.5486 31.9994L53.3962 32L53.2438 31.999L53.0913 31.9966L52.9388 31.9926L52.7862 31.9871L52.6337 31.9802L52.4811 31.9718L52.3286 31.9618L52.1761 31.9503L52.0237 31.9374L51.8713 31.9229L51.7189 31.907L51.5668 31.8895L51.4147 31.8706L51.2627 31.8501L51.1109 31.8281L50.9593 31.8046L50.8078 31.7797L50.6565 31.7533L50.5054 31.7253L50.3546 31.6958L50.204 31.665L50.0537 31.6325L49.9035 31.5986L49.7537 31.5632L49.6042 31.5263L49.455 31.4879L49.3061 31.4481L49.1577 31.4068L49.0095 31.364L48.8617 31.3198L48.7143 31.274L48.5673 31.2268L48.4208 31.1782L48.2746 31.128L48.1289 31.0764L47.9837 31.0234L47.839 30.969L47.6948 30.913L47.5511 30.8557L47.4079 30.7969L47.2653 30.7366L47.1232 30.675L46.9817 30.612L46.8407 30.5475L46.7004 30.4816L46.5607 30.4143L46.4217 30.3456L46.2832 30.2755L46.1454 30.2041L46.0084 30.1312L45.8719 30.057L45.7362 29.9814L45.6013 29.9045L45.467 29.8262L45.3335 29.7465L45.2008 29.6655L45.0688 29.5831L44.9376 29.4995L44.8073 29.4145L44.6777 29.3282L44.5489 29.2406L44.4211 29.1517L44.2941 29.0615L44.1679 28.97L44.0426 28.8773L43.9183 28.7832L43.7948 28.6879L43.6723 28.5914L43.5507 28.4936L43.4301 28.3946L43.3104 28.2944L43.1917 28.193L43.074 28.0903L42.9573 27.9864L42.8416 27.8814L42.727 27.7752L42.6134 27.6678L42.5008 27.5593L42.3893 27.4495L42.2789 27.3387L42.1696 27.2268L42.0614 27.1137L41.9543 26.9995L41.8483 26.8842L41.7435 26.7678L41.6398 26.6504L41.5372 26.5319L41.4359 26.4123L41.3357 26.2918L41.2368 26.1701L41.139 26.0474L41.0424 25.9238L40.9471 25.7991L40.853 25.6734L40.7602 25.5468L40.6686 25.4192L40.5783 25.2906L40.4893 25.1612L40.4016 25.0308L40.3152 24.8994L40.2301 24.7673L40.1463 24.6342L40.0638 24.5002L39.9827 24.3654L39.9029 24.2296L39.8245 24.0931L39.7474 23.9558L39.6718 23.8176L39.5975 23.6786L39.5246 23.5388L39.4531 23.3983L39.383 23.257L39.3144 23.115L39.2472 22.9722L39.1814 22.8288L39.117 22.6846L39.0541 22.5398L38.9927 22.3942L38.9327 22.248L38.8742 22.1011L38.8172 21.9536L38.7617 21.8055L38.7077 21.6568L38.6552 21.5075L38.6042 21.3577L38.5547 21.2072L38.5067 21.0562L38.4603 20.9047L38.4153 20.7527L38.372 20.6002L38.3302 20.4471L38.2899 20.2937L38.2512 20.1398L38.214 19.9854L38.1784 19.8306L38.1444 19.6753L38.112 19.5197L38.0812 19.3637L38.0519 19.2074L38.0242 19.0506L37.9981 18.8936L37.9737 18.7362L37.9508 18.5786L37.9295 18.4206L37.9099 18.2623L37.8918 18.1038L37.8754 17.9451L37.8606 17.7862L37.8474 17.627L37.8359 17.4677L37.826 17.3082L37.8177 17.1485L37.811 16.9886L37.806 16.8287L37.8026 16.6686L37.8009 16.5085L37.8008 16.3482ZM53.3033 4.61359L53.2668 1.53343L53.2321 1.53678L53.0731 1.5537L52.9145 1.57217L52.7559 1.5922L52.598 1.61372L52.4402 1.63681L52.2826 1.66144L52.1255 1.68758L51.9685 1.71529L51.8124 1.74443L51.656 1.77521L51.5007 1.80737L51.3452 1.84115L51.1905 1.87637L51.0359 1.91315L50.8821 1.95134L50.7286 1.99107L50.5756 2.03228L50.423 2.07498L50.2712 2.1191L50.1196 2.16475L49.9688 2.21182L49.8184 2.26038L49.6688 2.31028L49.5194 2.36176L49.3709 2.41462L49.223 2.46887L49.0756 2.52461L48.9289 2.5817L48.7831 2.64018L48.6377 2.70015L48.4929 2.76149L48.3489 2.82422L48.2057 2.88828L48.0633 2.95373L47.9216 3.0205L47.7804 3.08874L47.6402 3.15822L47.5008 3.22906L47.3621 3.30124L47.2243 3.37475L47.0874 3.44952L46.9511 3.52567L46.8157 3.60314L46.6814 3.68172L46.5476 3.76183L46.415 3.84301L46.2833 3.92545L46.1523 4.00924L46.0223 4.09426L45.8933 4.18051L45.7654 4.26778L45.6381 4.3566L45.512 4.44637L45.3869 4.53738L45.2626 4.62963L45.1395 4.72298L45.0175 4.81746L44.8962 4.91326L44.7763 5.00997L44.6573 5.10795L44.5393 5.207L44.4225 5.3072L44.3068 5.40836L44.192 5.5108L44.0785 5.61415L43.9659 5.7187L43.8547 5.82412L43.7445 5.93069L43.6355 6.03822L43.5276 6.14681L43.4208 6.25652L43.3153 6.36698L43.2111 6.4784L43.1078 6.59112L43.0059 6.70456L42.9052 6.8188L42.8056 6.93424L42.7075 7.0504L42.6104 7.1676L42.5146 7.2856L42.4201 7.40456L42.3268 7.52432L42.2349 7.64488L42.1442 7.76632L42.0548 7.88872L41.9668 8.01168L41.8799 8.13568L41.7945 8.26032L41.7103 8.38576L41.6275 8.512L41.546 8.63896L41.4659 8.76656L41.3871 8.89496L41.3097 9.024L41.2336 9.15384L41.1588 9.2844L41.0855 9.41544L41.0136 9.5472L40.943 9.67968L40.8739 9.81272L40.8061 9.9464L40.7397 10.0806L40.6748 10.2154L40.6113 10.3507L40.5491 10.4867L40.4885 10.6231L40.4292 10.7602L40.3713 10.8977L40.315 11.0356L40.26 11.1741L40.2065 11.313L40.1545 11.4524L40.1039 11.5922L40.0548 11.7324L40.0071 11.8731L39.9609 12.0142L39.9161 12.1556L39.8729 12.2973L39.8311 12.4395L39.7908 12.5819L39.752 12.7247L39.7146 12.8678L39.6787 13.0112L39.6444 13.1548L39.6115 13.2987L39.5801 13.4429L39.5502 13.5873L39.5218 13.7318L39.4949 13.8766L39.4695 14.0216L39.4456 14.1668L39.4232 14.3121L39.4023 14.4575L39.3828 14.6031L39.3649 14.7488L39.3485 14.8946L39.3336 15.0405L39.3202 15.1864L39.3083 15.3323L39.2979 15.4784L39.289 15.6245L39.2816 15.7705L39.2757 15.9166L39.2713 16.0626L39.2684 16.2086L39.267 16.3545L39.2671 16.5004L39.2687 16.6462L39.2718 16.7919L39.2763 16.9375L39.2824 17.083L39.29 17.2283L39.299 17.3734L39.3095 17.5185L39.3215 17.6633L39.335 17.8079L39.3499 17.9524L39.3663 18.0966L39.3842 18.2406L39.4035 18.3842L39.4243 18.5277L39.4466 18.6709L39.4703 18.8137L39.4955 18.9562L39.5221 19.0985L39.5502 19.2403L39.5797 19.3819L39.6106 19.523L39.643 19.6638L39.6767 19.8042L39.7119 19.9442L39.7486 20.0838L39.7866 20.2229L39.826 20.3616L39.8669 20.4998L39.9091 20.6376L39.9527 20.7749L39.9977 20.9116L40.044 21.0478L40.0918 21.1835L40.1409 21.3187L40.1913 21.4533L40.2432 21.5874L40.2963 21.7208L40.3508 21.8537L40.4066 21.9859L40.4638 22.1175L40.5223 22.2486L40.582 22.379L40.6431 22.5086L40.7055 22.6377L40.7691 22.766L40.8341 22.8937L40.9003 23.0206L40.9678 23.1469L41.0365 23.2724L41.1065 23.3971L41.1777 23.5211L41.2501 23.6444L41.3238 23.7668L41.3987 23.8885L41.4748 24.0094L41.5521 24.1294L41.6305 24.2486L41.7102 24.367L41.791 24.4846L41.873 24.6013L41.9561 24.7171L42.0404 24.8321L42.1258 24.9462L42.2123 25.0593L42.2999 25.1715L42.3886 25.2828L42.4785 25.3932L42.5694 25.5027L42.6613 25.6112L42.7544 25.7187L42.8485 25.8253L42.9436 25.9309L43.0397 26.0354L43.1369 26.139L43.2351 26.2416L43.3342 26.3432L43.4344 26.4438L43.5355 26.5432L43.6376 26.6417L43.7407 26.739L43.8446 26.8354L43.9496 26.9307L44.0554 27.0249L44.1621 27.1179L44.2697 27.2099L44.3783 27.3008L44.4876 27.3906L44.5979 27.4793L44.7089 27.5667L44.8209 27.6531L44.9336 27.7384L45.0472 27.8225L45.1615 27.9054L45.2766 27.9871L45.3925 28.0677L45.5092 28.1471L45.6265 28.2253L45.7448 28.3023L45.8636 28.3782L45.9832 28.4527L46.1035 28.5262L46.2244 28.5983L46.3461 28.6693L46.4683 28.739L46.5913 28.8074L46.7148 28.8746L46.839 28.9406L46.9637 29.0054L47.0891 29.0689L47.2151 29.131L47.3417 29.192L47.4687 29.2517L47.5963 29.3101L47.7244 29.3671L47.8531 29.423L47.9822 29.4774L48.1119 29.5307L48.242 29.5826L48.3725 29.6332L48.5036 29.6826L48.6349 29.7306L48.7668 29.7772L48.8991 29.8226L49.0317 29.8666L49.1648 29.9094L49.2981 29.9507L49.4319 29.9908L49.5659 30.0295L49.7003 30.0669L49.835 30.103L49.97 30.1377L50.1053 30.171L50.2407 30.203L50.3765 30.2338L50.5125 30.263L50.6487 30.291L50.7852 30.3177L50.9218 30.343L51.0586 30.3669L51.1956 30.3894L51.3327 30.4106L51.47 30.4305L51.6074 30.449L51.7449 30.4662L51.8825 30.4819L52.0201 30.4963L52.1579 30.5094L52.2957 30.5211L52.4336 30.5315L52.5714 30.5405L52.7093 30.5482L52.8472 30.5544L52.985 30.5594L53.1229 30.563L53.2607 30.5651L53.3984 30.566L53.5361 30.5655L53.6737 30.5637L53.8111 30.5606L53.9485 30.556L54.0857 30.5502L54.2229 30.543L54.3597 30.5344L54.4965 30.5246L54.6332 30.5134L54.7696 30.5008L54.9057 30.4869L55.0417 30.4717L55.1774 30.4552L55.3129 30.4374L55.4481 30.4182L55.5831 30.3977L55.7177 30.3759L55.8521 30.3528L55.9862 30.3284L56.1199 30.3027L56.2533 30.2758L56.3863 30.2474L56.5189 30.2179L56.6512 30.187L56.7831 30.1549L56.9145 30.1215L57.0456 30.0868L57.1761 30.0509L57.3064 30.0137L57.4361 29.9752L57.5653 29.9355L57.6941 29.8946L57.8224 29.8524L57.9501 29.809L58.0773 29.7644L58.2041 29.7185L58.3302 29.6714L58.4558 29.6231L58.5809 29.5737L58.7053 29.523L58.8291 29.4711L58.9524 29.4181L59.075 29.3638L59.1969 29.3085L59.3184 29.2519L59.4391 29.1942L59.5591 29.1354L59.6785 29.0753L59.7972 29.0142L59.9152 28.9519L60.0325 28.8885L60.149 28.824L60.2649 28.7584L60.3799 28.6918L60.4944 28.6239L60.6078 28.5551L60.7208 28.4851L60.8327 28.4142L60.9439 28.3421L61.0544 28.269L61.1641 28.1947L61.2727 28.1197L61.3806 28.0434L61.4877 27.9662L61.594 27.8881L61.6994 27.8088L61.8038 27.7287L61.9076 27.6474L62.0102 27.5654L62.112 27.4823L62.213 27.3982L62.313 27.3132L62.412 27.2274L62.5101 27.1405L62.6073 27.0528L62.7035 26.9642L62.7988 26.8746L62.8929 26.7843L62.9863 26.693L63.0786 26.6008L63.1699 26.5078L63.2602 26.414L63.3494 26.3194L63.4376 26.2241L63.5249 26.1276L63.611 26.0306L63.6962 25.9327L63.7802 25.8342L63.8633 25.7347L63.9452 25.6346L64.026 25.5338L64.1058 25.4321L64.1845 25.3298L64.2621 25.2267L64.3385 25.123L64.414 25.0186L64.4884 24.9134L64.5613 24.8078L64.6334 24.7013L64.7042 24.5943L64.774 24.4866L64.8427 24.3782L64.9101 24.2694L64.9763 24.1599L65.0415 24.0496L65.1053 23.9391L65.1681 23.8278L65.2298 23.716L65.2901 23.6038L65.3494 23.4909L65.4075 23.3774L65.4642 23.2639L65.5199 23.1494L65.5744 23.0346L65.6276 22.9194L65.6796 22.8037L65.7304 22.6875L65.7799 22.571L65.8283 22.4539L65.8754 22.3365L65.9213 22.219L65.9659 22.1006L66.0093 21.9822L66.0515 21.8632L66.0925 21.744L66.1321 21.6244L66.1705 21.5048L66.2077 21.3843L66.2436 21.264L66.2782 21.1433L66.3117 21.0224L66.3438 20.901L66.3746 20.7797L66.4043 20.6579L66.4326 20.5359L66.4597 20.4138L66.4856 20.2914L66.5101 20.1691L66.5333 20.0462L66.5553 19.9237L66.5761 19.8006L66.5955 19.6775L66.6137 19.5544L66.6306 19.431L66.6462 19.3078L66.6606 19.1841L66.6737 19.0608L66.6855 18.9371L66.696 18.8137L66.7053 18.6898L66.7133 18.5665L66.72 18.4427L66.7254 18.3189L66.7296 18.1954L66.7325 18.0721L66.7341 17.9483L66.7345 17.8248L66.7337 17.7014L66.7315 17.5782L66.7281 17.4549L66.7233 17.3321L66.7174 17.2088L66.7102 17.0861L66.7017 16.9634L66.6921 16.841L66.6811 16.7185L66.6689 16.5965L66.6555 16.4744L66.6408 16.3527L66.6249 16.2311L66.6077 16.1099L66.5893 15.9886L66.5697 15.8679L66.5489 15.7476L66.5268 15.6272L66.5034 15.5072L66.4789 15.3877L66.4532 15.2681L66.4264 15.1494L66.3981 15.0305L66.3689 14.9124L66.3383 14.7942L66.3066 14.6768L66.2737 14.5596L66.2397 14.4426L66.2045 14.3264L66.1681 14.2106L66.1304 14.0948L66.0917 13.9799L66.0517 13.8651L66.0108 13.751L65.9685 13.6372L65.9253 13.5242L65.8807 13.4113L65.8351 13.299L65.7885 13.1875L65.7407 13.0765L65.6916 12.9656L65.6417 12.8558L65.5905 12.746L65.5383 12.6373L65.485 12.529L65.4305 12.421L65.3752 12.314L65.3186 12.2074L65.2609 12.1014L65.2025 11.9963L65.1428 11.8915L65.0821 11.7876L65.0203 11.6842L64.9577 11.5818L64.8938 11.4796L64.8292 11.3784L64.7633 11.2777L64.6966 11.1778L64.629 11.0789L64.5602 10.9803L64.4905 10.8826L64.42 10.7857L64.3484 10.6896L64.2759 10.5941L64.2025 10.4995L64.1281 10.4056L64.0529 10.3126L63.9767 10.2203L63.8996 10.1288L63.8216 10.0382L63.7428 9.94832L63.6632 9.85936L63.5826 9.7712L63.501 9.68376L63.419 9.59752L63.3357 9.51176L63.2519 9.4272L63.1672 9.34328L63.0817 9.2604L62.9952 9.17816L62.9083 9.0972L62.8203 9.01688L62.7316 8.93752L62.6424 8.8592L62.5523 8.78176L62.4612 8.70504L62.3696 8.62944L62.2773 8.5548L62.1843 8.48112L62.0905 8.40832L61.9963 8.33672L61.901 8.26568L61.8054 8.196L61.709 8.1272L61.6119 8.05928L61.5144 7.99248L61.4158 7.92648L61.3173 7.86184L61.2176 7.79792L61.1176 7.73512L61.0168 7.67328L60.9156 7.61248L60.8138 7.5528L60.7117 7.49424L60.6085 7.4364L60.5054 7.37992L60.4014 7.32432L60.297 7.26984L60.1922 7.21648L60.0868 7.16408L59.9809 7.11272L59.8747 7.06256L59.7679 7.01336L59.6609 6.96536L59.5533 6.91832L59.4418 6.87096L59.337 6.82768L59.228 6.78384L59.1191 6.74136L59.0093 6.69968L58.8996 6.65936L58.7893 6.62L58.6789 6.58184L58.5679 6.54464L58.4569 6.50872L58.3453 6.47384L58.2336 6.44008L58.1217 6.40752L58.0094 6.37597L57.8967 6.3455L57.7841 6.31628L57.6713 6.28817L57.5578 6.26109L57.4447 6.23526L57.331 6.21046L57.2173 6.18686L57.1033 6.16433L56.9893 6.14298L56.8751 6.12274L56.7609 6.10368L56.6462 6.08568L56.5318 6.06887L56.4172 6.05318L56.3024 6.03861L56.1876 6.02518L56.0728 6.01291L55.9579 6.00176L55.8429 5.99174L55.7279 5.98286L55.6128 5.9751L55.498 5.96849L55.3831 5.96301L55.2678 5.95865L55.1532 5.95543L55.0383 5.95334L54.9235 5.95238L54.8085 5.95254L54.7855 5.9528L54.8217 9.01056L54.8869 9.01024L54.9709 9.01072L55.0548 9.012L55.1388 9.01416L55.2229 9.01712L55.3069 9.02096L55.391 9.0256L55.4752 9.03104L55.5593 9.03736L55.6435 9.04448L55.7277 9.05248L55.8117 9.06128L55.8959 9.07096L55.98 9.08144L56.064 9.09272L56.148 9.10496L56.2319 9.11792L56.3157 9.13176L56.3996 9.14648L56.4833 9.162L56.5669 9.1784L56.6504 9.1956L56.7338 9.2136L56.8171 9.23248L56.9002 9.25224L56.9833 9.2728L57.0661 9.29416L57.1488 9.3164L57.2313 9.33944L57.3137 9.36336L57.396 9.38808L57.478 9.4136L57.5597 9.44L57.6413 9.4672L57.7228 9.49528L57.8039 9.52416L57.8849 9.55384L57.9655 9.58432L58.046 9.61568L58.1261 9.64784L58.2061 9.6808L58.2857 9.71464L58.365 9.7492L58.4441 9.78464L58.5228 9.8208L58.6012 9.85784L58.6793 9.89568L58.7571 9.93432L58.8345 9.97376L58.9117 10.014L58.9884 10.055L59.0648 10.0968L59.1408 10.1394L59.2164 10.1827L59.2917 10.2269L59.3665 10.2718L59.4409 10.3175L59.5149 10.364L59.5885 10.4113L59.6617 10.4593L59.7345 10.508L59.8068 10.5575L59.8786 10.6078L59.95 10.6588L60.0209 10.7106L60.0913 10.7631L60.1613 10.8163L60.2306 10.8703L60.2996 10.925L60.368 10.9804L60.4359 11.0366L60.5033 11.0934L60.5701 11.151L60.6365 11.2092L60.7022 11.2682L60.7674 11.3278L60.832 11.3882L60.8961 11.4492L60.9595 11.5109L61.0224 11.5733L61.0847 11.6363L61.1464 11.7001L61.2075 11.7644L61.2679 11.8294L61.3277 11.8951L61.3869 11.9614L61.4455 12.0283L61.5034 12.0959L61.5607 12.1641L61.6173 12.2329L61.6733 12.3023L61.7285 12.3723L61.7831 12.443L61.837 12.5142L61.8902 12.586L61.9427 12.6583L61.9945 12.7313L62.0456 12.8048L62.096 12.8789L62.1456 12.9535L62.1945 13.0286L62.2426 13.1044L62.2901 13.1806L62.3368 13.2574L62.3827 13.3346L62.4278 13.4125L62.4722 13.4907L62.5158 13.5695L62.5586 13.6488L62.6007 13.7286L62.642 13.8088L62.6824 13.8895L62.7221 13.9707L62.7609 14.0523L62.7989 14.1343L62.8361 14.2169L62.8725 14.2998L62.9081 14.3831L62.9429 14.4669L62.9768 14.551L63.0098 14.6356L63.042 14.7205L63.0733 14.8058L63.1038 14.8915L63.1335 14.9776L63.1623 15.064L63.1901 15.1508L63.2172 15.2378L63.2433 15.3253L63.2686 15.413L63.293 15.5011L63.3165 15.5895L63.3391 15.6782L63.3608 15.7671L63.3816 15.8563L63.4015 15.9458L63.4205 16.0356L63.4385 16.1256L63.4557 16.2158L63.4719 16.3064L63.4873 16.3971L63.5017 16.488L63.5151 16.5792L63.5277 16.6705L63.5393 16.762L63.55 16.8538L63.5597 16.9457L63.5685 17.0377L63.5764 17.1299L63.5833 17.2222L63.5893 17.3147L63.5942 17.4073L63.5983 17.5L63.6014 17.5929L63.6036 17.6858L63.6048 17.7788L63.605 17.8719L63.6043 17.965L63.6026 18.0582L63.6 18.1515L63.5964 18.2449L63.5918 18.3382L63.5863 18.4315L63.5798 18.525L63.5724 18.6183L63.5639 18.7117L63.5545 18.805L63.5441 18.8983L63.5329 18.9917L63.5205 19.0849L63.5073 19.1781L63.493 19.2712L63.4778 19.3642L63.4617 19.4572L63.4445 19.5501L63.4264 19.6429L63.4073 19.7355L63.3872 19.8281L63.3662 19.9205L63.3442 20.0127L63.3213 20.1048L63.2973 20.1968L63.2725 20.2886L63.2466 20.3802L63.2198 20.4715L63.1921 20.5627L63.1633 20.6538L63.1336 20.7446L63.1029 20.835L63.0713 20.9254L63.0389 21.0154L63.0053 21.1052L62.9709 21.1947L62.9355 21.284L62.8992 21.373L62.8619 21.4617L62.8237 21.55L62.7845 21.6381L62.7445 21.7258L62.7034 21.8132L62.6615 21.9002L62.6186 21.987L62.5748 22.0733L62.5301 22.1593L62.4845 22.2448L62.4379 22.33L62.3905 22.4148L62.3421 22.4992L62.2929 22.5831L62.2427 22.6667L62.1917 22.7498L62.1397 22.8325L62.0869 22.9146L62.0332 22.9964L61.9785 23.0776L61.9231 23.1584L61.8668 23.2387L61.8096 23.3185L61.7515 23.3978L61.6926 23.4766L61.6329 23.5548L61.5722 23.6325L61.5108 23.7096L61.4485 23.7862L61.3853 23.8622L61.3214 23.9378L61.2566 24.0126L61.191 24.087L61.1246 24.1606L61.0574 24.2338L60.9894 24.3062L60.9207 24.3782L60.8511 24.4494L60.7808 24.52L60.7096 24.5899L60.6377 24.6593L60.565 24.7279L60.4917 24.7958L60.4175 24.8632L60.3425 24.9298L60.2669 24.9957L60.1905 25.061L60.1135 25.1254L60.0357 25.1893L59.9572 25.2523L59.8779 25.3146L59.798 25.3762L59.7174 25.4371L59.6361 25.4972L59.5541 25.5566L59.4716 25.6152L59.3883 25.673L59.3044 25.73L59.2197 25.7862L59.1345 25.8417L59.0487 25.8963L58.9623 25.9502L58.8752 26.0031L58.7876 26.0554L58.6993 26.1067L58.6105 26.1572L58.521 26.2069L58.431 26.2558L58.3405 26.3038L58.2493 26.3509L58.1577 26.3971L58.0655 26.4425L57.9728 26.487L57.8795 26.5306L57.7857 26.5734L57.6915 26.6152L57.5968 26.6562L57.5015 26.6962L57.4058 26.7353L57.3097 26.7735L57.213 26.8108L57.116 26.8472L57.0185 26.8826L56.9205 26.9171L56.8221 26.9506L56.7234 26.9833L56.6242 27.0149L56.5247 27.0456L56.4248 27.0754L56.3245 27.1041L56.2238 27.1319L56.1228 27.1587L56.0214 27.1846L55.9197 27.2094L55.8177 27.2334L55.7153 27.2562L55.6128 27.2782L55.5098 27.299L55.4066 27.319L55.3032 27.3379L55.1994 27.3558L55.0954 27.3727L54.9913 27.3886L54.8868 27.4034L54.7821 27.4173L54.6772 27.4302L54.5721 27.4419L54.4669 27.4527L54.3614 27.4625L54.2558 27.4712L54.1501 27.4789L54.0441 27.4855L53.9381 27.4911L53.8319 27.4957L53.7256 27.4992L53.6192 27.5017L53.5127 27.5031L53.4061 27.5035L53.2994 27.5029L53.1928 27.5011L53.086 27.4984L52.9792 27.4946L52.8724 27.4897L52.7655 27.4838L52.6587 27.4768L52.5518 27.4688L52.445 27.4597L52.3382 27.4495L52.2314 27.4383L52.1247 27.4261L52.0181 27.4128L51.9114 27.3984L51.8049 27.383L51.6985 27.3665L51.5922 27.349L51.486 27.3303L51.3799 27.3107L51.274 27.29L51.1682 27.2682L51.0625 27.2454L50.9571 27.2215L50.8518 27.1966L50.7467 27.1706L50.6418 27.1435L50.5371 27.1154L50.4326 27.0863L50.3285 27.0562L50.2245 27.025L50.1207 26.9927L50.0173 26.9594L49.9141 26.925L49.8112 26.8897L49.7086 26.8533L49.6064 26.8158L49.5044 26.7774L49.4028 26.7378L49.3015 26.6974L49.2005 26.6558L49.1 26.6132L48.9998 26.5697L48.9001 26.525L48.8006 26.4794L48.7017 26.4329L48.6031 26.3853L48.5049 26.3366L48.4072 26.287L48.31 26.2365L48.2132 26.1849L48.1169 26.1323L48.021 26.0788L47.9257 26.0242L47.8308 25.9688L47.7365 25.9123L47.6426 25.8549L47.5493 25.7966L47.4566 25.7372L47.3645 25.677L47.2729 25.6157L47.1818 25.5535L47.0913 25.4905L47.0015 25.4265L46.9122 25.3615L46.8236 25.2957L46.7355 25.2289L46.6481 25.1612L46.5614 25.0926L46.4753 25.0231L46.3899 24.9528L46.3051 24.8815L46.221 24.8094L46.1377 24.7364L46.0549 24.6626L45.9729 24.5878L45.8917 24.5123L45.8112 24.4359L45.7313 24.3586L45.6523 24.2806L45.5741 24.2017L45.4965 24.1219L45.4197 24.0414L45.3437 23.9601L45.2686 23.878L45.1942 23.795L45.1206 23.7114L45.0479 23.6269L44.9759 23.5417L44.9049 23.4557L44.8345 23.3689L44.7652 23.2814L44.6966 23.1932L44.6289 23.1042L44.5621 23.0146L44.4961 22.9242L44.4311 22.8331L44.367 22.7414L44.3037 22.6489L44.2414 22.5558L44.18 22.462L44.1196 22.3675L44.06 22.2724L44.0014 22.1766L43.9438 22.0802L43.8871 21.9833L43.8314 21.8856L43.7766 21.7874L43.7228 21.6886L43.67 21.5892L43.6182 21.4892L43.5674 21.3886L43.5176 21.2875L43.4688 21.1858L43.421 21.0837L43.3743 20.9809L43.3286 20.8777L43.2839 20.7739L43.2402 20.6696L43.1976 20.5649L43.1561 20.4597L43.1156 20.3539L43.0761 20.2478L43.0378 20.1412L43.0005 20.0341L42.9643 19.9266L42.9292 19.8187L42.8951 19.7104L42.8622 19.6018L42.8303 19.4926L42.7996 19.3832L42.7699 19.2734L42.7414 19.1631L42.714 19.0526L42.6877 18.9418L42.6626 18.8306L42.6385 18.719L42.6156 18.6073L42.5938 18.4952L42.5732 18.3828L42.5537 18.2702L42.5354 18.1573L42.5182 18.0442L42.5022 17.9308L42.4873 17.8172L42.4736 17.7034L42.461 17.5894L42.4496 17.4752L42.4394 17.3608L42.4303 17.2462L42.4224 17.1316L42.4157 17.0167L42.4102 16.9018L42.4058 16.7867L42.4026 16.6715L42.4006 16.5562L42.3998 16.4408L42.4002 16.3254L42.4017 16.2098L42.4045 16.0943L42.4084 15.9787L42.4135 15.863L42.4199 15.7474L42.4274 15.6318L42.4361 15.5162L42.446 15.4005L42.4571 15.285L42.4693 15.1694L42.4828 15.0539L42.4975 14.9385L42.5133 14.8231L42.5304 14.7078L42.5487 14.5927L42.5681 14.4777L42.5887 14.3628L42.6106 14.248L42.6336 14.1334L42.6578 14.019L42.6832 13.9046L42.7098 13.7906L42.7376 13.6766L42.7665 13.563L42.7967 13.4495L42.828 13.3362L42.8605 13.2233L42.8942 13.1106L42.9291 12.9981L42.9651 12.8858L43.0024 12.774L43.0407 12.6624L43.0803 12.5511L43.121 12.4402L43.1629 12.3295L43.2059 12.2193L43.2501 12.1094L43.2955 11.9998L43.342 11.8907L43.3896 11.7819L43.4384 11.6736L43.4884 11.5657L43.5394 11.4582L43.5916 11.3511L43.645 11.2446L43.6994 11.1384L43.755 11.0328L43.8117 10.9276L43.8695 10.823L43.9284 10.7188L43.9884 10.6151L44.0495 10.5121L44.1117 10.4095L44.175 10.3075L44.2394 10.2061L44.3049 10.1052L44.3714 10.005L44.4389 9.90528L44.5077 9.80624L44.5773 9.70776L44.6481 9.60992L44.7199 9.5128L44.7927 9.41624L44.8666 9.3204L44.9415 9.2252L45.0174 9.13072L45.0943 9.03696L45.1722 8.94384L45.2512 8.85144L45.3311 8.75976L45.412 8.66888L45.4939 8.57872L45.5767 8.48928L45.6605 8.40064L45.7453 8.31272L45.831 8.22568L45.9177 8.13936L46.0053 8.05384L46.0938 7.9692L46.1833 7.88528L46.2736 7.80232L46.3649 7.72008L46.457 7.6388L46.55 7.55832L46.6439 7.47872L46.7387 7.4L46.8343 7.32216L46.9308 7.2452L47.0281 7.1692L47.1263 7.09408L47.2253 7.01992L47.3251 6.94664L47.4257 6.87432L47.527 6.80296L47.6293 6.73256L47.7322 6.66312L47.8359 6.59472L47.9405 6.5272L48.0457 6.46072L48.1517 6.39523L48.2584 6.33074L48.3658 6.26727L48.4739 6.20482L48.5828 6.1434L48.6923 6.08301L48.8025 6.02367L48.9133 5.96538L49.0249 5.90815L49.137 5.85198L49.2498 5.79689L49.3633 5.74287L49.4773 5.68994L49.592 5.6381L49.7073 5.58736L49.8231 5.53773L49.9395 5.48921L50.0565 5.4418L50.1739 5.39552L50.292 5.35037L50.4105 5.30635L50.5297 5.26348L50.6493 5.22175L50.7693 5.18118L50.8899 5.14176L51.0109 5.10351L51.1324 5.06642L51.2543 5.03051L51.3767 4.99578L51.4994 4.96223L51.6226 4.92987L51.7462 4.8987L51.8702 4.86874L51.9945 4.83998L52.1193 4.81241L52.2443 4.78606L52.3697 4.76092L52.4954 4.73701L52.6214 4.71431L52.7477 4.69284L52.8744 4.6726L53.0013 4.65359L53.1284 4.63582L53.2557 4.61929L53.3033 4.61359ZM53.357 9.14888L53.3204 6.05751L53.216 6.0721L53.1037 6.08893L52.9914 6.10687L52.8798 6.12584L52.7681 6.14597L52.6569 6.16713L52.5459 6.18938L52.4353 6.21266L52.325 6.23706L52.2149 6.26253L52.1052 6.28905L51.9959 6.31662L51.8867 6.34529L51.7818 6.37392L51.6701 6.40568L51.5621 6.43744L51.4547 6.47024L51.3478 6.504L51.2412 6.53888L51.1349 6.5748L51.0292 6.61168L50.924 6.64952L50.8192 6.68848L50.7149 6.72832L50.6109 6.76928L50.5078 6.81112L50.4047 6.85408L50.3024 6.89792L50.2005 6.94272L50.0994 6.98848L49.9985 7.03528L49.8982 7.08304L49.7988 7.1316L49.6995 7.18128L49.6013 7.23176L49.5032 7.28336L49.4061 7.3356L49.3091 7.38912L49.2131 7.4432L49.1177 7.49832L49.0229 7.5544L48.9287 7.61128L48.835 7.6692L48.7423 7.72776L48.65 7.78736L48.5585 7.84776L48.4677 7.90896L48.3776 7.97112L48.288 8.03416L48.1994 8.09776L48.1113 8.16248L48.024 8.22792L47.9374 8.29416L47.8517 8.36112L47.7665 8.42904L47.6822 8.4976L47.5987 8.56696L47.5158 8.63728L47.434 8.70808L47.3527 8.77984L47.2722 8.85232L47.1926 8.92544L47.1139 8.99928L47.0357 9.074L46.9587 9.1492L46.8824 9.2252L46.8068 9.302L46.7321 9.37936L46.6583 9.45752L46.5853 9.53624L46.5133 9.6156L46.442 9.69568L46.3715 9.77648L46.3022 9.85768L46.2336 9.93968L46.1658 10.0223L46.099 10.1054L46.0332 10.1891L45.9681 10.2736L45.904 10.3585L45.8408 10.444L45.7785 10.5301L45.7172 10.6167L45.6569 10.7038L45.5974 10.7914L45.5389 10.8797L45.4813 10.9684L45.4247 11.0575L45.3691 11.1472L45.3144 11.2375L45.2606 11.3281L45.2079 11.4192L45.1561 11.5108L45.1053 11.6026L45.0555 11.6951L45.0065 11.7881L44.9588 11.8812L44.9119 11.975L44.8661 12.069L44.8212 12.1634L44.7773 12.2582L44.7345 12.3534L44.6926 12.4489L44.6517 12.5447L44.612 12.6409L44.5732 12.7374L44.5353 12.8342L44.4985 12.9314L44.4629 13.0287L44.4281 13.1265L44.3945 13.2243L44.3617 13.3226L44.3301 13.421L44.2995 13.5198L44.27 13.6186L44.2414 13.7178L44.214 13.817L44.1875 13.9166L44.1621 14.0163L44.1377 14.1162L44.1144 14.2163L44.0921 14.3165L44.0709 14.4169L44.0507 14.5174L44.0316 14.6179L44.0135 14.7187L43.9965 14.8195L43.9805 14.9205L43.9655 15.0214L43.9516 15.1225L43.9388 15.2236L43.927 15.3248L43.9162 15.426L43.9065 15.5273L43.8978 15.6286L43.8902 15.7298L43.8836 15.8311L43.8781 15.9324L43.8736 16.0336L43.8702 16.1348L43.8678 16.2359L43.8664 16.337L43.8661 16.4382L43.8668 16.5391L43.8685 16.64L43.8713 16.7408L43.8751 16.8414L43.88 16.9421L43.8858 17.0426L43.8927 17.1428L43.9007 17.243L43.9096 17.343L43.9196 17.4429L43.9306 17.5426L43.9426 17.6421L43.9556 17.7414L43.9696 17.8405L43.9846 17.9394L44.0006 18.038L44.0177 18.1365L44.0357 18.2347L44.0547 18.3326L44.0747 18.4303L44.0957 18.5277L44.1177 18.6249L44.1407 18.7216L44.1646 18.8182L44.1895 18.9144L44.2154 19.0103L44.2422 19.1058L44.2701 19.2011L44.2988 19.296L44.3285 19.3906L44.3592 19.4848L44.3908 19.5786L44.4233 19.6719L44.4568 19.765L44.4912 19.8576L44.5265 19.9498L44.5628 20.0416L44.5999 20.133L44.638 20.2239L44.6769 20.3144L44.7169 20.4044L44.7576 20.494L44.7993 20.583L44.8418 20.6717L44.8852 20.7598L44.9295 20.8474L44.9746 20.9346L45.0206 21.0213L45.0675 21.1074L45.1152 21.193L45.1637 21.278L45.2131 21.3625L45.2633 21.4464L45.3144 21.5298L45.3662 21.6126L45.4189 21.6949L45.4724 21.7766L45.5265 21.8576L45.5817 21.9382L45.6374 22.018L45.6941 22.0973L45.7514 22.1759L45.8096 22.2539L45.8685 22.3313L45.9281 22.4081L45.9885 22.4842L46.0496 22.5596L46.1114 22.6344L46.174 22.7086L46.2373 22.7819L46.3013 22.8548L46.3659 22.9268L46.4313 22.9982L46.4973 23.0689L46.564 23.1389L46.6313 23.2082L46.6994 23.2767L46.7681 23.3446L46.8374 23.4117L46.9074 23.4781L46.9779 23.5437L47.0492 23.6086L47.1209 23.6727L47.1933 23.7361L47.2664 23.7987L47.34 23.8606L47.4141 23.9217L47.4889 23.9819L47.5641 24.0414L47.64 24.1002L47.7164 24.1582L47.7933 24.2153L47.8707 24.2716L47.9486 24.3271L48.0271 24.3818L48.1061 24.4358L48.1856 24.4889L48.2655 24.5411L48.3459 24.5926L48.4268 24.6432L48.5081 24.693L48.5898 24.7419L48.6721 24.79L48.7546 24.8372L48.8377 24.8836L48.9211 24.9291L49.005 24.9738L49.0893 25.0177L49.1738 25.0606L49.2589 25.1027L49.3443 25.1439L49.43 25.1843L49.516 25.2238L49.6025 25.2624L49.6891 25.3001L49.7761 25.3369L49.8635 25.3729L49.9512 25.4079L50.039 25.4421L50.1273 25.4754L50.2157 25.5078L50.3045 25.5393L50.3934 25.5698L50.4827 25.5996L50.5721 25.6283L50.6618 25.6562L50.7517 25.6832L50.8418 25.7093L50.9321 25.7345L51.0225 25.7587L51.1132 25.7822L51.204 25.8046L51.2949 25.8261L51.3861 25.8467L51.4773 25.8665L51.5687 25.8853L51.6601 25.9031L51.7518 25.9201L51.8434 25.9362L51.9353 25.9514L52.0271 25.9655L52.119 25.9789L52.211 25.9913L52.303 26.0028L52.3951 26.0134L52.4872 26.023L52.5793 26.0318L52.6715 26.0396L52.7637 26.0465L52.8558 26.0526L52.9479 26.0576L53.04 26.0618L53.1321 26.0651L53.2241 26.0675L53.3161 26.069L53.408 26.0695L53.4998 26.0692L53.5916 26.0679L53.6833 26.0658L53.7748 26.0628L53.8663 26.0589L53.9576 26.054L54.0488 26.0483L54.1398 26.0417L54.2308 26.0342L54.3215 26.0258L54.4121 26.0165L54.5026 26.0063L54.5929 25.9953L54.6829 25.9834L54.7728 25.9706L54.8625 25.957L54.9519 25.9424L55.041 25.927L55.1301 25.9107L55.2188 25.8936L55.3073 25.8757L55.3956 25.8568L55.4834 25.8371L55.5711 25.8166L55.6585 25.7952L55.7456 25.773L55.8324 25.75L55.9189 25.7261L56.005 25.7014L56.0909 25.6758L56.1763 25.6495L56.2614 25.6223L56.3463 25.5943L56.4307 25.5655L56.5148 25.5359L56.5985 25.5055L56.6817 25.4743L56.7646 25.4423L56.8471 25.4095L56.9293 25.3759L57.0109 25.3416L57.0921 25.3065L57.173 25.2706L57.2533 25.234L57.3333 25.1966L57.4129 25.1584L57.4917 25.1196L57.5705 25.0798L57.6485 25.0395L57.7261 24.9983L57.8031 24.9566L57.8797 24.914L57.9559 24.8707L58.0314 24.8267L58.1065 24.782L58.1811 24.7366L58.255 24.6906L58.3286 24.6438L58.4014 24.5964L58.4738 24.5482L58.5457 24.4994L58.6169 24.4499L58.6875 24.3999L58.7577 24.349L58.8272 24.2978L58.8961 24.2457L58.9645 24.193L59.0321 24.1398L59.0993 24.0858L59.1659 24.0312L59.2316 23.9762L59.297 23.9202L59.3616 23.864L59.4255 23.8072L59.489 23.7495L59.5516 23.6916L59.6137 23.633L59.6751 23.5738L59.7357 23.5141L59.7958 23.4538L59.8553 23.393L59.914 23.3316L59.9719 23.2698L60.0293 23.2074L60.086 23.1445L60.1418 23.0812L60.1972 23.0172L60.2517 22.9529L60.3054 22.8881L60.3586 22.8226L60.4109 22.757L60.4626 22.6907L60.5136 22.6241L60.5638 22.5569L60.6133 22.4894L60.6619 22.4215L60.71 22.353L60.7572 22.2842L60.8037 22.215L60.8495 22.1454L60.8943 22.0755L60.9386 22.0051L60.9821 21.9343L61.0248 21.8633L61.0666 21.7918L61.1079 21.7199L61.1481 21.648L61.1878 21.5754L61.2266 21.5026L61.2645 21.4296L61.3019 21.356L61.3382 21.2826L61.374 21.2083L61.4087 21.1343L61.4429 21.0595L61.4761 20.9849L61.5086 20.9096L61.5403 20.8344L61.5711 20.7589L61.6012 20.683L61.6305 20.607L61.6588 20.5309L61.6865 20.4543L61.7133 20.3777L61.7393 20.3009L61.7645 20.2238L61.7889 20.1466L61.8125 20.0692L61.8352 19.9918L61.8571 19.914L61.8781 19.8362L61.8985 19.7582L61.9179 19.6802L61.9365 19.6021L61.9544 19.5236L61.9713 19.4452L61.9876 19.3667L62.0029 19.2882L62.0174 19.2096L62.0311 19.1306L62.044 19.052L62.0561 18.9731L62.0673 18.8942L62.0777 18.8154L62.0873 18.7364L62.0961 18.6572L62.104 18.5786L62.1112 18.4993L62.1175 18.4203L62.1229 18.3415L62.1277 18.2625L62.1315 18.1836L62.1345 18.1048L62.1368 18.0258L62.1381 17.9472L62.1388 17.8683L62.1385 17.7897L62.1376 17.711L62.1357 17.6327L62.1331 17.5542L62.1297 17.4759L62.1254 17.3979L62.1204 17.3197L62.1145 17.2417L62.108 17.1641L62.1005 17.0862L62.0923 17.0089L62.0833 16.9314L62.0735 16.8542L62.0629 16.7772L62.0516 16.7002L62.0394 16.6236L62.0265 16.5472L62.0129 16.471L61.9984 16.395L61.9831 16.3189L61.9671 16.2434L61.9504 16.1681L61.9329 16.0929L61.9145 16.0178L61.8956 15.9434L61.8757 15.8688L61.8553 15.7948L61.834 15.7209L61.812 15.6474L61.7893 15.5741L61.7657 15.501L61.7416 15.4285L61.7167 15.3562L61.6909 15.2839L61.6647 15.2123L61.6376 15.1409L61.6098 15.0699L61.5813 14.9991L61.5521 14.9286L61.5223 14.8588L61.4917 14.789L61.4605 14.7198L61.4285 14.651L61.3959 14.5824L61.3625 14.5142L61.3287 14.4466L61.294 14.3791L61.2588 14.3123L61.2229 14.2459L61.1862 14.1796L61.1491 14.1141L61.1112 14.0488L61.0727 13.9841L61.0335 13.9196L60.9939 13.8558L60.9534 13.7922L60.9125 13.7294L60.8709 13.6669L60.8288 13.6049L60.7859 13.5432L60.7425 13.4822L60.6987 13.4217L60.6541 13.3614L60.609 13.3019L60.5633 13.2428L60.5172 13.1843L60.4703 13.1262L60.4229 13.0686L60.375 13.0116L60.3266 12.955L60.2777 12.8992L60.2281 12.8437L60.1782 12.7889L60.1277 12.7345L60.0768 12.6809L60.0251 12.6275L59.9732 12.575L59.9205 12.5227L59.8676 12.4713L59.8142 12.4204L59.7603 12.37L59.7058 12.3202L59.6509 12.271L59.5957 12.2225L59.5397 12.1743L59.4838 12.1271L59.4271 12.0802L59.3701 12.034L59.3126 11.9885L59.2547 11.9434L59.1965 11.899L59.138 11.8554L59.0788 11.8122L59.0192 11.7696L58.9596 11.7279L58.8992 11.6866L58.8389 11.6462L58.778 11.6062L58.7167 11.5668L58.655 11.5281L58.5933 11.4902L58.5309 11.4527L58.4684 11.4161L58.4053 11.3799L58.3424 11.3446L58.2789 11.3099L58.215 11.2758L58.1509 11.2423L58.0867 11.2097L58.0221 11.1775L57.9571 11.1461L57.8921 11.1154L57.8269 11.0854L57.7609 11.0558L57.6953 11.0272L57.6293 10.9992L57.5629 10.9718L57.4964 10.9451L57.4298 10.9192L57.3629 10.8939L57.2957 10.8692L57.2285 10.8454L57.161 10.8221L57.0933 10.7995L57.0257 10.7777L56.9578 10.7566L56.8899 10.7361L56.8214 10.7162L56.7532 10.6972L56.6848 10.6788L56.6162 10.6611L56.5476 10.6441L56.4786 10.6278L56.4098 10.6122L56.341 10.5973L56.2719 10.583L56.2026 10.5694L56.1337 10.5567L56.0644 10.5446L55.9952 10.5331L55.9257 10.5223L55.8565 10.5123L55.7869 10.5029L55.7177 10.4943L55.6482 10.4863L55.5788 10.479L55.5094 10.4725L55.4399 10.4666L55.3707 10.4614L55.3011 10.4569L55.2318 10.453L55.1627 10.4499L55.0931 10.4474L55.0241 10.4457L54.9549 10.4446L54.8859 10.4442L54.8387 10.4444L54.8745 13.4647L54.8958 13.4648L54.9355 13.4654L54.9753 13.4663L55.0151 13.4676L55.0549 13.4694L55.0949 13.4716L55.1348 13.4742L55.1748 13.4772L55.2148 13.4806L55.2549 13.4845L55.2949 13.4887L55.335 13.4934L55.3752 13.4985L55.4153 13.504L55.4554 13.5099L55.4956 13.5163L55.5357 13.5231L55.5758 13.5303L55.616 13.538L55.6561 13.546L55.6961 13.5546L55.7362 13.5634L55.7763 13.5728L55.8162 13.5826L55.8562 13.5927L55.8961 13.6034L55.936 13.6144L55.9758 13.6258L56.0156 13.6378L56.0553 13.6501L56.0949 13.6629L56.1345 13.6761L56.1739 13.6897L56.2133 13.7037L56.2526 13.7182L56.2918 13.733L56.3309 13.7483L56.37 13.7641L56.4089 13.7802L56.4477 13.7968L56.4864 13.8138L56.5249 13.8313L56.5634 13.8491L56.6017 13.8674L56.6399 13.8861L56.678 13.9052L56.7158 13.9248L56.7536 13.9447L56.7912 13.9651L56.8286 13.9859L56.8659 14.0071L56.903 14.0287L56.9399 14.0507L56.9767 14.0732L57.0133 14.0961L57.0497 14.1194L57.0858 14.143L57.1218 14.167L57.1577 14.1916L57.1933 14.2165L57.2286 14.2418L57.2638 14.2674L57.2988 14.2935L57.3335 14.32L57.368 14.3469L57.4023 14.3742L57.4363 14.4018L57.4701 14.4298L57.5037 14.4583L57.5369 14.4871L57.57 14.5163L57.6028 14.5459L57.6353 14.5759L57.6675 14.6062L57.6994 14.637L57.7312 14.6681L57.7625 14.6995L57.7937 14.7314L57.8245 14.7635L57.855 14.7961L57.8853 14.829L57.9152 14.8623L57.9449 14.8959L57.9741 14.9299L58.0031 14.9642L58.0318 14.9989L58.0601 15.0339L58.0881 15.0693L58.1158 15.105L58.1432 15.141L58.1702 15.1774L58.1969 15.2141L58.2231 15.251L58.2491 15.2884L58.2747 15.3261L58.2999 15.3641L58.3248 15.4023L58.3493 15.441L58.3734 15.4798L58.3972 15.519L58.4205 15.5586L58.4435 15.5983L58.4661 15.6384L58.4883 15.6788L58.5101 15.7194L58.5316 15.7604L58.5525 15.8016L58.5732 15.843L58.5933 15.8848L58.6131 15.9269L58.6325 15.9691L58.6514 16.0117L58.67 16.0545L58.6881 16.0975L58.7057 16.1408L58.7229 16.1843L58.7397 16.2281L58.7561 16.2721L58.7721 16.3163L58.7875 16.3608L58.8025 16.4054L58.8171 16.4503L58.8312 16.4954L58.8449 16.5407L58.8581 16.5862L58.8708 16.632L58.8831 16.6778L58.8949 16.7239L58.9062 16.7702L58.9171 16.8167L58.9275 16.8633L58.9374 16.9102L58.9469 16.9571L58.9557 17.0042L58.9642 17.0515L58.9722 17.099L58.9797 17.1465L58.9867 17.1942L58.9932 17.2421L58.9992 17.2901L59.0047 17.3382L59.0097 17.3865L59.0142 17.4348L59.0182 17.4833L59.0217 17.5319L59.0247 17.5806L59.0272 17.6294L59.0291 17.6782L59.0306 17.7272L59.0315 17.7762L59.032 17.8254L59.0318 17.8745L59.0313 17.9238L59.0301 17.9731L59.0285 18.0225L59.0263 18.0719L59.0236 18.1214L59.0204 18.1709L59.0166 18.2204L59.0123 18.27L59.0075 18.3196L59.0022 18.3692L58.9963 18.4188L58.9899 18.4685L58.983 18.5182L58.9756 18.5678L58.9676 18.6174L58.959 18.667L58.95 18.7166L58.9404 18.7662L58.9303 18.8157L58.9196 18.8652L58.9084 18.9146L58.8967 18.9641L58.8844 19.0134L58.8716 19.0628L58.8583 19.112L58.8444 19.1612L58.83 19.2102L58.815 19.2593L58.7996 19.3082L58.7836 19.357L58.767 19.4058L58.75 19.4545L58.7323 19.503L58.7141 19.5514L58.6955 19.5997L58.6763 19.6479L58.6565 19.6959L58.6363 19.7438L58.6155 19.7916L58.5941 19.8393L58.5723 19.8867L58.5499 19.934L58.5269 19.9812L58.5036 20.0282L58.4796 20.075L58.4551 20.1216L58.4301 20.168L58.4045 20.2142L58.3785 20.2603L58.352 20.3062L58.3249 20.3518L58.2973 20.3972L58.2692 20.4425L58.2406 20.4874L58.2115 20.5322L58.1818 20.5767L58.1517 20.621L58.1211 20.665L58.09 20.7088L58.0583 20.7523L58.0262 20.7956L57.9936 20.8386L57.9605 20.8813L57.9269 20.9238L57.8928 20.9659L57.8582 21.0078L57.8232 21.0494L57.7877 21.0906L57.7516 21.1316L57.7151 21.1722L57.6781 21.2126L57.6407 21.2526L57.6029 21.2923L57.5645 21.3318L57.5257 21.3708L57.4864 21.4094L57.4467 21.4478L57.4065 21.4858L57.3658 21.5234L57.3248 21.5607L57.2833 21.5977L57.2413 21.6342L57.1989 21.6704L57.1561 21.7062L57.1129 21.7416L57.0692 21.7766L57.0251 21.8112L56.9806 21.8454L56.9357 21.8793L56.8904 21.9127L56.8447 21.9457L56.7985 21.9782L56.7521 22.0105L56.7051 22.0422L56.6578 22.0735L56.6101 22.1043L56.5621 22.1348L56.5136 22.1648L56.4648 22.1943L56.4156 22.2234L56.3661 22.252L56.3161 22.2802L56.2658 22.3078L56.2153 22.3351L56.1643 22.3618L56.113 22.3882L56.0613 22.4139L56.0094 22.4393L55.9571 22.4641L55.9045 22.4884L55.8516 22.5122L55.7983 22.5355L55.7448 22.5584L55.6909 22.5807L55.6368 22.6025L55.5823 22.6238L55.5276 22.6446L55.4725 22.6648L55.4173 22.6846L55.3617 22.7038L55.3059 22.7224L55.2498 22.7406L55.1935 22.7581L55.1369 22.7751L55.0801 22.7917L55.023 22.8076L54.9657 22.823L54.9082 22.8378L54.8505 22.8522L54.7925 22.8658L54.7343 22.879L54.6759 22.8916L54.6173 22.9037L54.5585 22.9151L54.4996 22.926L54.4405 22.9363L54.3811 22.9461L54.3217 22.9552L54.262 22.9638L54.2022 22.9718L54.1422 22.9792L54.0821 22.986L54.0219 22.9922L53.9615 22.9978L53.901 23.0028L53.8404 23.0073L53.7796 23.011L53.7188 23.0143L53.6578 23.017L53.5968 23.019L53.5356 23.0203L53.4744 23.0211L53.4131 23.0214L53.3517 23.021L53.2903 23.0199L53.2288 23.0182L53.1673 23.016L53.1057 23.0131L53.044 23.0096L52.9823 23.0055L52.9206 23.0008L52.8589 22.9954L52.7972 22.9894L52.7355 22.9829L52.6737 22.9756L52.6121 22.9678L52.5503 22.9593L52.4886 22.9502L52.4269 22.9405L52.3653 22.9302L52.3037 22.9192L52.2422 22.9076L52.1807 22.8954L52.1193 22.8826L52.0579 22.8691L51.9966 22.855L51.9354 22.8402L51.8742 22.825L51.8132 22.809L51.7523 22.7923L51.6914 22.7751L51.6308 22.7573L51.5701 22.7388L51.5097 22.7197L51.4493 22.7L51.3891 22.6797L51.3291 22.6587L51.2692 22.6371L51.2094 22.6149L51.1499 22.5921L51.0905 22.5686L51.0313 22.5446L50.9722 22.5199L50.9134 22.4946L50.8548 22.4687L50.7963 22.4422L50.7381 22.4151L50.6801 22.3874L50.6223 22.359L50.5648 22.3301L50.5075 22.3006L50.4505 22.2704L50.3937 22.2397L50.3371 22.2083L50.2809 22.1764L50.2248 22.1438L50.1691 22.1107L50.1137 22.077L50.0585 22.0427L50.0037 22.0078L49.9491 21.9724L49.8949 21.9363L49.8409 21.8997L49.7874 21.8625L49.7341 21.8247L49.6812 21.7864L49.6286 21.7474L49.5764 21.708L49.5245 21.668L49.473 21.6274L49.4219 21.5862L49.3711 21.5446L49.3207 21.5023L49.2707 21.4595L49.2211 21.4162L49.1719 21.3723L49.1231 21.3279L49.0747 21.283L49.0267 21.2375L48.9792 21.1915L48.932 21.145L48.8853 21.098L48.8391 21.0505L48.7933 21.0024L48.7479 20.9539L48.703 20.9048L48.6586 20.8553L48.6146 20.8053L48.5712 20.7547L48.5281 20.7038L48.4856 20.6522L48.4436 20.6002L48.4021 20.5478L48.361 20.495L48.3205 20.4416L48.2805 20.3878L48.241 20.3335L48.2021 20.2788L48.1636 20.2236L48.1257 20.168L48.0883 20.112L48.0515 20.0555L48.0153 19.9986L47.9795 19.9414L47.9444 19.8837L47.9097 19.8255L47.8757 19.767L47.8423 19.7081L47.8094 19.6488L47.7771 19.5891L47.7454 19.529L47.7143 19.4686L47.6837 19.4078L47.6538 19.3466L47.6245 19.285L47.5958 19.2232L47.5677 19.161L47.5403 19.0984L47.5134 19.0354L47.4872 18.9722L47.4616 18.9086L47.4366 18.8448L47.4123 18.7806L47.3887 18.7161L47.3657 18.6513L47.3433 18.5862L47.3215 18.5209L47.3005 18.4552L47.2801 18.3893L47.2603 18.3231L47.2412 18.2566L47.2228 18.1899L47.2051 18.123L47.188 18.0558L47.1717 17.9883L47.156 17.9207L47.1409 17.8528L47.1266 17.7847L47.113 17.7164L47.1001 17.6479L47.0878 17.5792L47.0763 17.5103L47.0655 17.4413L47.0553 17.372L47.0459 17.3026L47.0373 17.233L47.0293 17.1634L47.022 17.0934L47.0154 17.0234L47.0096 16.9533L47.0045 16.883L47.0001 16.8126L46.9964 16.7422L46.9934 16.6716L46.9912 16.6009L46.9897 16.5301L46.989 16.4593L46.9889 16.3883L46.9897 16.3173L46.9912 16.2462L46.9933 16.1751L46.9963 16.1039L47 16.0327L47.0044 15.9615L47.0095 15.8902L47.0154 15.819L47.0221 15.7477L47.0294 15.6764L47.0376 15.6051L47.0465 15.5338L47.0561 15.4626L47.0665 15.3914L47.0776 15.3202L47.0895 15.2491L47.1021 15.178L47.1154 15.107L47.1296 15.036L47.1445 14.9651L47.1601 14.8943L47.1764 14.8236L47.1935 14.753L47.2113 14.6825L47.23 14.6121L47.2493 14.5418L47.2694 14.4717L47.2902 14.4016L47.3118 14.3318L47.3341 14.262L47.3572 14.1924L47.381 14.123L47.4056 14.0538L47.4309 13.9847L47.4569 13.9158L47.4837 13.8472L47.5112 13.7787L47.5394 13.7104L47.5684 13.6424L47.5981 13.5746L47.6285 13.507L47.6597 13.4396L47.6916 13.3725L47.7241 13.3057L47.7575 13.239L47.7915 13.1727L47.8263 13.1067L47.8617 13.041L47.898 12.9755L47.9349 12.9103L47.9725 12.8454L48.0108 12.781L48.0498 12.7167L48.0895 12.6528L48.13 12.5893L48.1711 12.526L48.2129 12.4631L48.2553 12.4006L48.2985 12.3385L48.3424 12.2767L48.3869 12.2154L48.4321 12.1543L48.478 12.0937L48.5245 12.0335L48.5717 11.9737L48.6197 11.9143L48.6682 11.8553L48.7173 11.7968L48.7672 11.7386L48.8177 11.681L48.8688 11.6238L48.9205 11.567L48.9729 11.5107L49.026 11.4549L49.0797 11.3995L49.1339 11.3446L49.1888 11.2902L49.2443 11.2363L49.3004 11.183L49.3571 11.1301L49.4144 11.0777L49.4722 11.0258L49.5307 10.9745L49.5898 10.9238L49.6494 10.8734L49.7097 10.8238L49.7704 10.7746L49.8317 10.726L49.8936 10.678L49.9561 10.6306L50.019 10.5837L50.0825 10.5374L50.1466 10.4917L50.2112 10.4466L50.2763 10.402L50.342 10.3581L50.4081 10.3148L50.4747 10.2722L50.5419 10.2301L50.6095 10.1886L50.6777 10.1478L50.7462 10.1077L50.8153 10.0682L50.8849 10.0293L50.9549 9.99104L51.0253 9.95352L51.0962 9.91664L51.1676 9.8804L51.2393 9.84488L51.3116 9.81L51.3842 9.77584L51.4573 9.74232L51.5307 9.70952L51.6045 9.67744L51.6789 9.646L51.7535 9.61528L51.8285 9.58536L51.9039 9.55608L51.9797 9.52752L52.0557 9.49968L52.1322 9.47264L52.2091 9.44624L52.2862 9.42064L52.3637 9.39576L52.4415 9.3716L52.5197 9.34824L52.5981 9.3256L52.6768 9.30376L52.7558 9.28264L52.8351 9.26224L52.9147 9.24264L52.9945 9.22384L53.0747 9.20584L53.155 9.18856L53.2357 9.17208L53.3165 9.1564L53.357 9.14888ZM54.3505 14.9571L53.4285 15.1774L53.3743 10.6098L53.3309 10.6196L53.2654 10.635L53.2001 10.6511L53.1352 10.6678L53.0704 10.685L53.006 10.703L52.9416 10.7216L52.8778 10.7406L52.8139 10.7605L52.7508 10.7807L52.6875 10.8018L52.6246 10.8234L52.5621 10.8455L52.4997 10.8682L52.438 10.8915L52.3763 10.9155L52.3149 10.94L52.254 10.965L52.1931 10.9908L52.133 11.0169L52.0729 11.0438L52.0134 11.071L51.954 11.099L51.8951 11.1274L51.8364 11.1565L51.7783 11.186L51.7205 11.2161L51.663 11.2467L51.606 11.2778L51.5493 11.3095L51.4929 11.3418L51.4373 11.3744L51.3815 11.4078L51.3265 11.4414L51.2719 11.4757L51.2177 11.5104L51.1637 11.5457L51.1104 11.5814L51.0574 11.6177L51.0049 11.6543L50.9529 11.6914L50.9011 11.7291L50.8499 11.7673L50.7992 11.8058L50.7489 11.8449L50.6991 11.8842L50.6498 11.9242L50.6009 11.9646L50.5524 12.0054L50.5045 12.0466L50.4571 12.0882L50.4101 12.1302L50.3637 12.1727L50.3177 12.2157L50.2722 12.259L50.2273 12.3026L50.1827 12.3467L50.1388 12.3911L50.0953 12.436L50.0525 12.4811L50.0099 12.5269L49.9681 12.5727L49.9267 12.619L49.8858 12.6658L49.8456 12.7126L49.8057 12.7601L49.7666 12.8076L49.7278 12.8558L49.6897 12.904L49.6521 12.9527L49.615 13.0018L49.5785 13.051L49.5425 13.1005L49.5072 13.1503L49.4723 13.2006L49.438 13.251L49.4043 13.3018L49.3712 13.3526L49.3386 13.4038L49.3065 13.4554L49.2752 13.5071L49.2442 13.5593L49.214 13.6114L49.1842 13.6639L49.155 13.7166L49.1265 13.7695L49.0985 13.8226L49.0712 13.876L49.0443 13.9297L49.0181 13.9833L48.9925 14.0374L48.9674 14.0914L48.943 14.1458L48.9191 14.2002L48.8958 14.255L48.8732 14.3097L48.8511 14.3647L48.8297 14.4198L48.8087 14.4751L48.7885 14.5304L48.7688 14.586L48.7497 14.6417L48.7312 14.6974L48.7133 14.7533L48.696 14.8094L48.6793 14.8654L48.6633 14.9215L48.6477 14.9778L48.6328 15.0342L48.6185 15.0906L48.6049 15.1471L48.5917 15.2037L48.5793 15.2603L48.5674 15.317L48.5561 15.3737L48.5454 15.4304L48.5353 15.4873L48.5259 15.544L48.517 15.6008L48.5087 15.6578L48.501 15.7145L48.494 15.7714L48.4875 15.8282L48.4816 15.885L48.4763 15.942L48.4716 15.9987L48.4675 16.0555L48.464 16.1123L48.461 16.169L48.4587 16.2256L48.4569 16.2822L48.4558 16.3388L48.4552 16.3953L48.4553 16.4517L48.4558 16.508L48.457 16.5643L48.4588 16.6205L48.4611 16.6766L48.464 16.7326L48.4675 16.7884L48.4716 16.8442L48.4762 16.8998L48.4814 16.9554L48.4872 17.0109L48.4935 17.066L48.5004 17.1213L48.5078 17.1762L48.5159 17.2311L48.5245 17.2858L48.5336 17.3403L48.5433 17.3948L48.5535 17.449L48.5643 17.503L48.5756 17.5568L48.5875 17.6106L48.5999 17.664L48.6129 17.7174L48.6263 17.7703L48.6404 17.8234L48.6549 17.8759L48.6699 17.9285L48.6855 17.9806L48.7016 18.0327L48.7182 18.0845L48.7353 18.1359L48.753 18.1874L48.7712 18.2384L48.7898 18.2891L48.8089 18.3398L48.8286 18.3901L48.8488 18.4401L48.8694 18.4898L48.8905 18.5393L48.9121 18.5886L48.9342 18.6375L48.9568 18.6862L48.9798 18.7345L49.0033 18.7825L49.0273 18.8304L49.0517 18.8778L49.0765 18.9249L49.1019 18.9718L49.1277 19.0182L49.154 19.0645L49.1806 19.1104L49.2077 19.1558L49.2353 19.2011L49.2633 19.246L49.2917 19.2905L49.3205 19.3347L49.3497 19.3786L49.3794 19.4222L49.4094 19.4651L49.4399 19.508L49.4708 19.5504L49.502 19.5924L49.5337 19.6342L49.5657 19.6754L49.5981 19.7163L49.6309 19.7569L49.6641 19.7971L49.6976 19.8368L49.7316 19.8762L49.7658 19.9153L49.8004 19.9538L49.8355 19.9921L49.8707 20.0298L49.9064 20.0673L49.9424 20.1042L49.9786 20.1408L50.0153 20.177L50.0523 20.2127L50.0896 20.2481L50.1272 20.283L50.1651 20.3174L50.2033 20.3515L50.2418 20.3851L50.2806 20.4183L50.3197 20.4511L50.359 20.4834L50.3987 20.5154L50.4387 20.5468L50.4788 20.5778L50.5193 20.6083L50.56 20.6385L50.6009 20.6682L50.6421 20.6974L50.6836 20.7262L50.7253 20.7545L50.7672 20.7823L50.8093 20.8097L50.8516 20.8366L50.8943 20.8632L50.937 20.8891L50.98 20.9147L51.0233 20.9398L51.0665 20.9644L51.1101 20.9886L51.154 21.0123L51.1979 21.0355L51.242 21.0582L51.2862 21.0805L51.3308 21.1023L51.3753 21.1236L51.4201 21.1445L51.465 21.1649L51.51 21.1847L51.5553 21.2042L51.6006 21.2231L51.646 21.2416L51.6916 21.2596L51.7373 21.277L51.7832 21.2941L51.8289 21.3106L51.8751 21.3267L51.9211 21.3422L51.9673 21.3574L52.0136 21.372L52.06 21.3862L52.1064 21.3998L52.1529 21.413L52.1995 21.4256L52.2461 21.4378L52.2928 21.4495L52.3395 21.4608L52.3862 21.4715L52.433 21.4818L52.4799 21.4916L52.5268 21.5009L52.5737 21.5098L52.6205 21.5181L52.6675 21.526L52.7145 21.5334L52.7614 21.5403L52.8082 21.5467L52.8552 21.5526L52.9021 21.5582L52.949 21.5632L52.9959 21.5677L53.0428 21.5718L53.0896 21.5754L53.1363 21.5785L53.1831 21.5811L53.2297 21.5833L53.2763 21.585L53.323 21.5862L53.3694 21.587L53.4158 21.5874L53.4622 21.5872L53.5085 21.5866L53.5548 21.5855L53.6009 21.584L53.6469 21.5821L53.6928 21.5796L53.7388 21.5767L53.7844 21.5734L53.8301 21.5696L53.8755 21.5654L53.9209 21.5607L53.9662 21.5555L54.0113 21.55L54.0564 21.544L54.1012 21.5375L54.1458 21.5306L54.1905 21.5234L54.2349 21.5156L54.2792 21.5074L54.3233 21.4988L54.3673 21.4898L54.411 21.4803L54.4545 21.4705L54.4981 21.4602L54.5413 21.4494L54.5844 21.4384L54.6273 21.4269L54.6699 21.415L54.7125 21.4026L54.7548 21.3898L54.7967 21.3767L54.8388 21.3631L54.8804 21.3492L54.9218 21.335L54.963 21.3202L55.004 21.3051L55.0449 21.2896L55.0854 21.2738L55.1257 21.2575L55.1657 21.241L55.2056 21.2239L55.2453 21.2066L55.2845 21.1889L55.3237 21.1708L55.3625 21.1524L55.4009 21.1336L55.4393 21.1145L55.4773 21.095L55.5151 21.0752L55.5526 21.055L55.5898 21.0345L55.6267 21.0137L55.6634 20.9925L55.6998 20.971L55.7358 20.9491L55.7716 20.927L55.8071 20.9045L55.8423 20.8818L55.8773 20.8586L55.9118 20.8353L55.9461 20.8115L55.9801 20.7875L56.0137 20.7633L56.0471 20.7386L56.0801 20.7138L56.1129 20.6886L56.1453 20.6631L56.1774 20.6374L56.2091 20.6114L56.2405 20.5852L56.2716 20.5586L56.3023 20.5318L56.3328 20.5048L56.3629 20.4774L56.3926 20.4499L56.4219 20.4222L56.451 20.3941L56.4797 20.3658L56.5081 20.3373L56.5361 20.3086L56.5637 20.2795L56.591 20.2504L56.6181 20.2209L56.6445 20.1914L56.6709 20.1614L56.6967 20.1314L56.7221 20.1012L56.7474 20.0706L56.7721 20.0401L56.7965 20.0092L56.8206 19.9782L56.8442 19.947L56.8676 19.9156L56.8905 19.8842L56.913 19.8523L56.9353 19.8204L56.957 19.7885L56.9785 19.7562L56.9996 19.7238L57.0201 19.6914L57.0405 19.6587L57.0604 19.6259L57.0799 19.593L57.0991 19.5599L57.1178 19.5267L57.1362 19.4934L57.1542 19.4599L57.1718 19.4265L57.189 19.3928L57.2059 19.359L57.2224 19.3252L57.2385 19.2911L57.2541 19.2571L57.2694 19.223L57.2843 19.1888L57.2989 19.1544L57.3129 19.1201L57.3268 19.0854L57.3401 19.0511L57.3531 19.0162L57.3656 18.9819L57.3778 18.947L57.3897 18.9122L57.401 18.8774L57.4121 18.8426L57.4227 18.8078L57.433 18.7726L57.4428 18.7378L57.4524 18.7026L57.4614 18.6678L57.4701 18.6326L57.4785 18.5974L57.4864 18.5625L57.4939 18.5276L57.5011 18.4922L57.5079 18.4573L57.5143 18.422L57.5203 18.3871L57.526 18.3521L57.5313 18.317L57.5361 18.2818L57.5406 18.2468L57.5448 18.2119L57.5485 18.1771L57.5519 18.142L57.5549 18.1072L57.5576 18.0723L57.5598 18.0375L57.5617 18.0028L57.5633 17.9682L57.5644 17.9337L57.5652 17.899L57.5657 17.8643L57.5657 17.83L57.5654 17.7957L57.5648 17.7614L57.5637 17.7273L57.5624 17.693L57.5606 17.6593L57.5585 17.6249L57.5561 17.5914L57.5533 17.5577L57.5502 17.5238L57.5467 17.4902L57.5429 17.457L57.5387 17.4234L57.5342 17.3904L57.5293 17.3572L57.5242 17.3245L57.5186 17.2914L57.5128 17.2586L57.5066 17.2262L57.5001 17.1938L57.4933 17.1613L57.4861 17.1292L57.4786 17.0971L57.4708 17.0653L57.4627 17.0337L57.4541 17.0018L57.4455 16.9706L57.4364 16.9391L57.427 16.9082L57.4173 16.8772L57.4073 16.8465L57.397 16.8158L57.3864 16.7853L57.3756 16.7552L57.3644 16.7252L57.3529 16.6951L57.3411 16.6655L57.329 16.6358L57.3168 16.6067L57.3041 16.5774L57.2913 16.5485L57.2781 16.5198L57.2646 16.4912L57.2509 16.4629L57.2369 16.4347L57.2227 16.4067L57.2082 16.379L57.1934 16.3515L57.1785 16.3242L57.1632 16.2971L57.1476 16.2702L57.1319 16.2436L57.1159 16.2172L57.0996 16.1909L57.0831 16.165L57.0664 16.1393L57.0494 16.1138L57.0322 16.0884L57.0149 16.0634L56.9972 16.0386L56.9793 16.014L56.9613 15.9897L56.9429 15.9656L56.9245 15.9418L56.9057 15.9181L56.8869 15.8948L56.8677 15.8717L56.8485 15.8488L56.8289 15.8262L56.8093 15.8038L56.7894 15.7818L56.7693 15.7599L56.7491 15.7382L56.7287 15.717L56.7081 15.6959L56.6873 15.675L56.6664 15.6546L56.6453 15.6343L56.6241 15.6143L56.6025 15.5945L56.581 15.575L56.5593 15.5558L56.5374 15.5369L56.5153 15.5182L56.4932 15.4998L56.4709 15.4817L56.4485 15.4638L56.4259 15.4462L56.4032 15.4289L56.3804 15.4119L56.3574 15.3951L56.3343 15.3786L56.3112 15.3625L56.2879 15.3465L56.2645 15.3309L56.241 15.3155L56.2173 15.3004L56.1937 15.2856L56.1698 15.271L56.146 15.2568L56.1221 15.2429L56.098 15.2292L56.0737 15.2158L56.0496 15.2026L56.0253 15.1898L56.0009 15.1772L55.9766 15.165L55.952 15.1529L55.9275 15.1412L55.9029 15.1298L55.8782 15.1186L55.8535 15.1078L55.8286 15.0971L55.804 15.0869L55.779 15.0769L55.7541 15.0671L55.7292 15.0577L55.7042 15.0485L55.6793 15.0396L55.6542 15.031L55.6292 15.0226L55.6042 15.0146L55.5791 15.0067L55.554 14.9992L55.529 14.992L55.5037 14.985L55.4788 14.9784L55.4537 14.972L55.4285 14.9658L55.4034 14.96L55.3784 14.9544L55.3533 14.9491L55.3282 14.9441L55.3033 14.9393L55.2783 14.9348L55.2532 14.9306L55.2284 14.9266L55.2033 14.923L55.1785 14.9195L55.1536 14.9163L55.1288 14.9134L55.1041 14.9108L55.0793 14.9085L55.0547 14.9063L55.0301 14.9045L55.0055 14.9029L54.9809 14.9015L54.9565 14.9005L54.9322 14.8997L54.9078 14.899L54.8836 14.8987L54.8593 14.8986L54.8353 14.8989L54.8112 14.8993L54.7873 14.8999L54.7633 14.9009L54.7397 14.902L54.7158 14.9034L54.6923 14.905L54.6688 14.9069L54.6453 14.909L54.6221 14.9114L54.5987 14.9139L54.5757 14.9167L54.5526 14.9198L54.5297 14.923L54.5069 14.9266L54.4842 14.9302L54.4616 14.9342L54.4393 14.9383L54.4168 14.9427L54.3946 14.9473L54.3725 14.9521L54.3505 14.9571Z" fill="#697077"/>
<path d="M86.6055 19.5352C86.6055 19.2305 86.5586 18.957 86.4648 18.7148C86.3789 18.4648 86.2148 18.2383 85.9727 18.0352C85.7305 17.8242 85.3906 17.6172 84.9531 17.4141C84.5156 17.2109 83.9492 17 83.2539 16.7812C82.4805 16.5312 81.7461 16.25 81.0508 15.9375C80.3633 15.625 79.7539 15.2617 79.2227 14.8477C78.6992 14.4258 78.2852 13.9375 77.9805 13.3828C77.6836 12.8281 77.5352 12.1836 77.5352 11.4492C77.5352 10.7383 77.6914 10.0938 78.0039 9.51562C78.3164 8.92969 78.7539 8.42969 79.3164 8.01562C79.8789 7.59375 80.543 7.26953 81.3086 7.04297C82.082 6.81641 82.9297 6.70312 83.8516 6.70312C85.1094 6.70312 86.207 6.92969 87.1445 7.38281C88.082 7.83594 88.8086 8.45703 89.3242 9.24609C89.8477 10.0352 90.1094 10.9375 90.1094 11.9531H86.6172C86.6172 11.4531 86.5117 11.0156 86.3008 10.6406C86.0977 10.2578 85.7852 9.95703 85.3633 9.73828C84.9492 9.51953 84.4258 9.41016 83.793 9.41016C83.1836 9.41016 82.6758 9.50391 82.2695 9.69141C81.8633 9.87109 81.5586 10.1172 81.3555 10.4297C81.1523 10.7344 81.0508 11.0781 81.0508 11.4609C81.0508 11.75 81.1211 12.0117 81.2617 12.2461C81.4102 12.4805 81.6289 12.6992 81.918 12.9023C82.207 13.1055 82.5625 13.2969 82.9844 13.4766C83.4062 13.6562 83.8945 13.832 84.4492 14.0039C85.3789 14.2852 86.1953 14.6016 86.8984 14.9531C87.6094 15.3047 88.2031 15.6992 88.6797 16.1367C89.1562 16.5742 89.5156 17.0703 89.7578 17.625C90 18.1797 90.1211 18.8086 90.1211 19.5117C90.1211 20.2539 89.9766 20.918 89.6875 21.5039C89.3984 22.0898 88.9805 22.5859 88.4336 22.9922C87.8867 23.3984 87.2344 23.707 86.4766 23.918C85.7188 24.1289 84.8711 24.2344 83.9336 24.2344C83.0898 24.2344 82.2578 24.125 81.4375 23.9062C80.6172 23.6797 79.8711 23.3398 79.1992 22.8867C78.5352 22.4336 78.0039 21.8555 77.6055 21.1523C77.207 20.4492 77.0078 19.6172 77.0078 18.6562H80.5352C80.5352 19.1875 80.6172 19.6367 80.7812 20.0039C80.9453 20.3711 81.1758 20.668 81.4727 20.8945C81.7773 21.1211 82.1367 21.2852 82.5508 21.3867C82.9727 21.4883 83.4336 21.5391 83.9336 21.5391C84.543 21.5391 85.043 21.4531 85.4336 21.2812C85.832 21.1094 86.125 20.8711 86.3125 20.5664C86.5078 20.2617 86.6055 19.918 86.6055 19.5352ZM103.891 13.8867V16.6289H94.9844V13.8867H103.891ZM96.0273 6.9375V24H92.5117V6.9375H96.0273ZM106.398 6.9375V24H102.895V6.9375H106.398ZM120.906 21.2578V24H111.824V21.2578H120.906ZM112.973 6.9375V24H109.457V6.9375H112.973ZM119.723 13.8867V16.5586H111.824V13.8867H119.723ZM120.895 6.9375V9.69141H111.824V6.9375H120.895ZM133.926 21.2578V24H125.336V21.2578H133.926ZM126.473 6.9375V24H122.957V6.9375H126.473ZM146.91 21.2578V24H138.32V21.2578H146.91ZM139.457 6.9375V24H135.941V6.9375H139.457ZM157.809 19.5352C157.809 19.2305 157.762 18.957 157.668 18.7148C157.582 18.4648 157.418 18.2383 157.176 18.0352C156.934 17.8242 156.594 17.6172 156.156 17.4141C155.719 17.2109 155.152 17 154.457 16.7812C153.684 16.5312 152.949 16.25 152.254 15.9375C151.566 15.625 150.957 15.2617 150.426 14.8477C149.902 14.4258 149.488 13.9375 149.184 13.3828C148.887 12.8281 148.738 12.1836 148.738 11.4492C148.738 10.7383 148.895 10.0938 149.207 9.51562C149.52 8.92969 149.957 8.42969 150.52 8.01562C151.082 7.59375 151.746 7.26953 152.512 7.04297C153.285 6.81641 154.133 6.70312 155.055 6.70312C156.312 6.70312 157.41 6.92969 158.348 7.38281C159.285 7.83594 160.012 8.45703 160.527 9.24609C161.051 10.0352 161.312 10.9375 161.312 11.9531H157.82C157.82 11.4531 157.715 11.0156 157.504 10.6406C157.301 10.2578 156.988 9.95703 156.566 9.73828C156.152 9.51953 155.629 9.41016 154.996 9.41016C154.387 9.41016 153.879 9.50391 153.473 9.69141C153.066 9.87109 152.762 10.1172 152.559 10.4297C152.355 10.7344 152.254 11.0781 152.254 11.4609C152.254 11.75 152.324 12.0117 152.465 12.2461C152.613 12.4805 152.832 12.6992 153.121 12.9023C153.41 13.1055 153.766 13.2969 154.188 13.4766C154.609 13.6562 155.098 13.832 155.652 14.0039C156.582 14.2852 157.398 14.6016 158.102 14.9531C158.812 15.3047 159.406 15.6992 159.883 16.1367C160.359 16.5742 160.719 17.0703 160.961 17.625C161.203 18.1797 161.324 18.8086 161.324 19.5117C161.324 20.2539 161.18 20.918 160.891 21.5039C160.602 22.0898 160.184 22.5859 159.637 22.9922C159.09 23.3984 158.438 23.707 157.68 23.918C156.922 24.1289 156.074 24.2344 155.137 24.2344C154.293 24.2344 153.461 24.125 152.641 23.9062C151.82 23.6797 151.074 23.3398 150.402 22.8867C149.738 22.4336 149.207 21.8555 148.809 21.1523C148.41 20.4492 148.211 19.6172 148.211 18.6562H151.738C151.738 19.1875 151.82 19.6367 151.984 20.0039C152.148 20.3711 152.379 20.668 152.676 20.8945C152.98 21.1211 153.34 21.2852 153.754 21.3867C154.176 21.4883 154.637 21.5391 155.137 21.5391C155.746 21.5391 156.246 21.4531 156.637 21.2812C157.035 21.1094 157.328 20.8711 157.516 20.5664C157.711 20.2617 157.809 19.918 157.809 19.5352Z" fill="#697077"/>
</svg>
