<svg width="200" height="32" viewBox="0 0 200 32" fill="none" xmlns="http://www.w3.org/2000/svg">
<path d="M34.6009 26.4845L13.1883 11.714C11.0184 10.2173 11.756 7.10088 14.4619 6.36802L37.2196 0.191307C37.7017 0.0173566 38.2183 -0.0391112 38.7266 0.0265948C39.2349 0.0923008 39.7202 0.278283 40.1422 0.569108C40.5641 0.859932 40.9107 1.24721 41.153 1.6988C41.3953 2.15038 41.5265 2.65326 41.5356 3.16568L40.1868 24.1116C40.0269 26.5978 36.7709 27.9812 34.6009 26.4845Z" fill="#697077"/>
<path d="M27.81 30.1301L15.1952 5.4603C14.9068 4.89594 14.7799 4.26288 14.8285 3.63097C14.877 2.99906 15.0992 2.39283 15.4704 1.87915C15.8416 1.36548 16.3475 0.964296 16.9322 0.719853C17.517 0.475411 18.1579 0.397208 18.7842 0.493875L42.1627 4.10202C42.7009 4.18511 43.2117 4.39476 43.6532 4.71374C44.0946 5.03273 44.454 5.45194 44.7019 5.93689C44.9497 6.42185 45.0789 6.95871 45.0788 7.50333C45.0787 8.04795 44.9493 8.58478 44.7014 9.06965L33.9318 30.1313C33.6426 30.6941 33.2039 31.1663 32.6638 31.4958C32.1237 31.8255 31.5033 31.9997 30.8706 31.9996C30.2379 31.9995 29.6174 31.825 29.0775 31.4952C28.5375 31.1653 28.099 30.693 27.81 30.1301Z" fill="#697077"/>
<path d="M35.5 8.72693L31.0112 8L25.5 9.57011L27.6998 14.0856L32.851 17.8153C32.9647 17.8966 33.0897 17.959 33.2216 18L35.1782 13.9852L35.5 8.72693Z" fill="white"/>
<path d="M63.4863 19.5352C63.4863 19.2305 63.4395 18.957 63.3457 18.7148C63.2598 18.4648 63.0957 18.2383 62.8535 18.0352C62.6113 17.8242 62.2715 17.6172 61.834 17.4141C61.3965 17.2109 60.8301 17 60.1348 16.7812C59.3613 16.5312 58.627 16.25 57.9316 15.9375C57.2441 15.625 56.6348 15.2617 56.1035 14.8477C55.5801 14.4258 55.166 13.9375 54.8613 13.3828C54.5645 12.8281 54.416 12.1836 54.416 11.4492C54.416 10.7383 54.5723 10.0938 54.8848 9.51562C55.1973 8.92969 55.6348 8.42969 56.1973 8.01562C56.7598 7.59375 57.4238 7.26953 58.1895 7.04297C58.9629 6.81641 59.8105 6.70312 60.7324 6.70312C61.9902 6.70312 63.0879 6.92969 64.0254 7.38281C64.9629 7.83594 65.6895 8.45703 66.2051 9.24609C66.7285 10.0352 66.9902 10.9375 66.9902 11.9531H63.498C63.498 11.4531 63.3926 11.0156 63.1816 10.6406C62.9785 10.2578 62.666 9.95703 62.2441 9.73828C61.8301 9.51953 61.3066 9.41016 60.6738 9.41016C60.0645 9.41016 59.5566 9.50391 59.1504 9.69141C58.7441 9.87109 58.4395 10.1172 58.2363 10.4297C58.0332 10.7344 57.9316 11.0781 57.9316 11.4609C57.9316 11.75 58.002 12.0117 58.1426 12.2461C58.291 12.4805 58.5098 12.6992 58.7988 12.9023C59.0879 13.1055 59.4434 13.2969 59.8652 13.4766C60.2871 13.6562 60.7754 13.832 61.3301 14.0039C62.2598 14.2852 63.0762 14.6016 63.7793 14.9531C64.4902 15.3047 65.084 15.6992 65.5605 16.1367C66.0371 16.5742 66.3965 17.0703 66.6387 17.625C66.8809 18.1797 67.002 18.8086 67.002 19.5117C67.002 20.2539 66.8574 20.918 66.5684 21.5039C66.2793 22.0898 65.8613 22.5859 65.3145 22.9922C64.7676 23.3984 64.1152 23.707 63.3574 23.918C62.5996 24.1289 61.752 24.2344 60.8145 24.2344C59.9707 24.2344 59.1387 24.125 58.3184 23.9062C57.498 23.6797 56.752 23.3398 56.0801 22.8867C55.416 22.4336 54.8848 21.8555 54.4863 21.1523C54.0879 20.4492 53.8887 19.6172 53.8887 18.6562H57.416C57.416 19.1875 57.498 19.6367 57.6621 20.0039C57.8262 20.3711 58.0566 20.668 58.3535 20.8945C58.6582 21.1211 59.0176 21.2852 59.4316 21.3867C59.8535 21.4883 60.3145 21.5391 60.8145 21.5391C61.4238 21.5391 61.9238 21.4531 62.3145 21.2812C62.7129 21.1094 63.0059 20.8711 63.1934 20.5664C63.3887 20.2617 63.4863 19.918 63.4863 19.5352ZM72.5566 13.9453V24H69.1699V11.3203H72.3457L72.5566 13.9453ZM72.0879 17.2148H71.1504C71.1504 16.332 71.2559 15.5195 71.4668 14.7773C71.6855 14.0273 72.002 13.3789 72.416 12.832C72.8379 12.2773 73.3574 11.8477 73.9746 11.543C74.5918 11.2383 75.3066 11.0859 76.1191 11.0859C76.6816 11.0859 77.1973 11.1719 77.666 11.3438C78.1348 11.5078 78.5371 11.7695 78.873 12.1289C79.2168 12.4805 79.4824 12.9414 79.6699 13.5117C79.8574 14.0742 79.9512 14.75 79.9512 15.5391V24H76.5762V15.9141C76.5762 15.3359 76.498 14.8906 76.3418 14.5781C76.1855 14.2656 75.9629 14.0469 75.6738 13.9219C75.3926 13.7969 75.0527 13.7344 74.6543 13.7344C74.2168 13.7344 73.834 13.8242 73.5059 14.0039C73.1855 14.1836 72.9199 14.4336 72.709 14.7539C72.498 15.0664 72.3418 15.4336 72.2402 15.8555C72.1387 16.2773 72.0879 16.7305 72.0879 17.2148ZM79.6348 16.8281L78.4277 16.9805C78.4277 16.1523 78.5293 15.3828 78.7324 14.6719C78.9434 13.9609 79.252 13.3359 79.6582 12.7969C80.0723 12.2578 80.584 11.8398 81.1934 11.543C81.8027 11.2383 82.5059 11.0859 83.3027 11.0859C83.9121 11.0859 84.4668 11.1758 84.9668 11.3555C85.4668 11.5273 85.8926 11.8047 86.2441 12.1875C86.6035 12.5625 86.877 13.0547 87.0645 13.6641C87.2598 14.2734 87.3574 15.0195 87.3574 15.9023V24H83.9707V15.9023C83.9707 15.3164 83.8926 14.8711 83.7363 14.5664C83.5879 14.2539 83.3691 14.0391 83.0801 13.9219C82.7988 13.7969 82.4629 13.7344 82.0723 13.7344C81.666 13.7344 81.3105 13.8164 81.0059 13.9805C80.7012 14.1367 80.4473 14.3555 80.2441 14.6367C80.041 14.918 79.8887 15.2461 79.7871 15.6211C79.6855 15.9883 79.6348 16.3906 79.6348 16.8281ZM96.8145 21.1406V15.4922C96.8145 15.0859 96.748 14.7383 96.6152 14.4492C96.4824 14.1523 96.2754 13.9219 95.9941 13.7578C95.7207 13.5938 95.3652 13.5117 94.9277 13.5117C94.5527 13.5117 94.2285 13.5781 93.9551 13.7109C93.6816 13.8359 93.4707 14.0195 93.3223 14.2617C93.1738 14.4961 93.0996 14.7734 93.0996 15.0938H89.7246C89.7246 14.5547 89.8496 14.043 90.0996 13.5586C90.3496 13.0742 90.7129 12.6484 91.1895 12.2812C91.666 11.9062 92.2324 11.6133 92.8887 11.4023C93.5527 11.1914 94.2949 11.0859 95.1152 11.0859C96.0996 11.0859 96.9746 11.25 97.7402 11.5781C98.5059 11.9062 99.1074 12.3984 99.5449 13.0547C99.9902 13.7109 100.213 14.5312 100.213 15.5156V20.9414C100.213 21.6367 100.256 22.207 100.342 22.6523C100.428 23.0898 100.553 23.4727 100.717 23.8008V24H97.3066C97.1426 23.6562 97.0176 23.2266 96.9316 22.7109C96.8535 22.1875 96.8145 21.6641 96.8145 21.1406ZM97.2598 16.2773L97.2832 18.1875H95.3965C94.9512 18.1875 94.5645 18.2383 94.2363 18.3398C93.9082 18.4414 93.6387 18.5859 93.4277 18.7734C93.2168 18.9531 93.0605 19.1641 92.959 19.4062C92.8652 19.6484 92.8184 19.9141 92.8184 20.2031C92.8184 20.4922 92.8848 20.7539 93.0176 20.9883C93.1504 21.2148 93.3418 21.3945 93.5918 21.5273C93.8418 21.6523 94.1348 21.7148 94.4707 21.7148C94.9785 21.7148 95.4199 21.6133 95.7949 21.4102C96.1699 21.207 96.459 20.957 96.6621 20.6602C96.873 20.3633 96.9824 20.082 96.9902 19.8164L97.8809 21.2461C97.7559 21.5664 97.584 21.8984 97.3652 22.2422C97.1543 22.5859 96.8848 22.9102 96.5566 23.2148C96.2285 23.5117 95.834 23.7578 95.373 23.9531C94.9121 24.1406 94.3652 24.2344 93.7324 24.2344C92.9277 24.2344 92.1973 24.0742 91.541 23.7539C90.8926 23.4258 90.377 22.9766 89.9941 22.4062C89.6191 21.8281 89.4316 21.1719 89.4316 20.4375C89.4316 19.7734 89.5566 19.1836 89.8066 18.668C90.0566 18.1523 90.4238 17.7188 90.9082 17.3672C91.4004 17.0078 92.0137 16.7383 92.748 16.5586C93.4824 16.3711 94.334 16.2773 95.3027 16.2773H97.2598ZM106.189 14.0859V24H102.814V11.3203H105.99L106.189 14.0859ZM110.01 11.2383L109.951 14.3672C109.787 14.3438 109.588 14.3242 109.354 14.3086C109.127 14.2852 108.92 14.2734 108.732 14.2734C108.256 14.2734 107.842 14.3359 107.49 14.4609C107.146 14.5781 106.857 14.7539 106.623 14.9883C106.396 15.2227 106.225 15.5078 106.107 15.8438C105.998 16.1797 105.936 16.5625 105.92 16.9922L105.24 16.7812C105.24 15.9609 105.322 15.207 105.486 14.5195C105.65 13.8242 105.889 13.2188 106.201 12.7031C106.521 12.1875 106.912 11.7891 107.373 11.5078C107.834 11.2266 108.361 11.0859 108.955 11.0859C109.143 11.0859 109.334 11.1016 109.529 11.1328C109.725 11.1562 109.885 11.1914 110.01 11.2383ZM118.4 11.3203V13.7109H111.018V11.3203H118.4ZM112.846 8.19141H116.221V20.1797C116.221 20.5469 116.268 20.8281 116.361 21.0234C116.463 21.2188 116.611 21.3555 116.807 21.4336C117.002 21.5039 117.248 21.5391 117.545 21.5391C117.756 21.5391 117.943 21.5312 118.107 21.5156C118.279 21.4922 118.424 21.4688 118.541 21.4453L118.553 23.9297C118.264 24.0234 117.951 24.0977 117.615 24.1523C117.279 24.207 116.908 24.2344 116.502 24.2344C115.76 24.2344 115.111 24.1133 114.557 23.8711C114.01 23.6211 113.588 23.2227 113.291 22.6758C112.994 22.1289 112.846 21.4102 112.846 20.5195V8.19141ZM124.049 6.9375V24H120.533V6.9375H124.049ZM130.846 14.2266V16.9688H123.088V14.2266H130.846ZM131.666 6.9375V9.69141H123.088V6.9375H131.666ZM137.057 11.3203V24H133.67V11.3203H137.057ZM133.459 8.01562C133.459 7.52344 133.631 7.11719 133.975 6.79688C134.318 6.47656 134.779 6.31641 135.357 6.31641C135.928 6.31641 136.385 6.47656 136.729 6.79688C137.08 7.11719 137.256 7.52344 137.256 8.01562C137.256 8.50781 137.08 8.91406 136.729 9.23438C136.385 9.55469 135.928 9.71484 135.357 9.71484C134.779 9.71484 134.318 9.55469 133.975 9.23438C133.631 8.91406 133.459 8.50781 133.459 8.01562ZM143.15 14.0273V24H139.775V11.3203H142.939L143.15 14.0273ZM142.658 17.2148H141.744C141.744 16.2773 141.865 15.4336 142.107 14.6836C142.35 13.9258 142.689 13.2812 143.127 12.75C143.564 12.2109 144.084 11.8008 144.686 11.5195C145.295 11.2305 145.975 11.0859 146.725 11.0859C147.318 11.0859 147.861 11.1719 148.354 11.3438C148.846 11.5156 149.268 11.7891 149.619 12.1641C149.979 12.5391 150.252 13.0352 150.439 13.6523C150.635 14.2695 150.732 15.0234 150.732 15.9141V24H147.334V15.9023C147.334 15.3398 147.256 14.9023 147.1 14.5898C146.943 14.2773 146.713 14.0586 146.408 13.9336C146.111 13.8008 145.744 13.7344 145.307 13.7344C144.854 13.7344 144.459 13.8242 144.123 14.0039C143.795 14.1836 143.521 14.4336 143.303 14.7539C143.092 15.0664 142.932 15.4336 142.822 15.8555C142.713 16.2773 142.658 16.7305 142.658 17.2148ZM160.787 21.2344V6H164.186V24H161.127L160.787 21.2344ZM152.771 17.8125V17.5664C152.771 16.5977 152.881 15.7188 153.1 14.9297C153.318 14.1328 153.639 13.4492 154.061 12.8789C154.482 12.3086 155.002 11.8672 155.619 11.5547C156.236 11.2422 156.939 11.0859 157.729 11.0859C158.471 11.0859 159.119 11.2422 159.674 11.5547C160.236 11.8672 160.713 12.3125 161.104 12.8906C161.502 13.4609 161.822 14.1367 162.064 14.918C162.307 15.6914 162.482 16.5391 162.592 17.4609V18C162.482 18.8828 162.307 19.7031 162.064 20.4609C161.822 21.2188 161.502 21.8828 161.104 22.4531C160.713 23.0156 160.236 23.4531 159.674 23.7656C159.111 24.0781 158.455 24.2344 157.705 24.2344C156.916 24.2344 156.213 24.0742 155.596 23.7539C154.986 23.4336 154.471 22.9844 154.049 22.4062C153.635 21.8281 153.318 21.1484 153.1 20.3672C152.881 19.5859 152.771 18.7344 152.771 17.8125ZM156.146 17.5664V17.8125C156.146 18.3359 156.186 18.8242 156.264 19.2773C156.35 19.7305 156.486 20.1328 156.674 20.4844C156.869 20.8281 157.119 21.0977 157.424 21.293C157.736 21.4805 158.115 21.5742 158.561 21.5742C159.139 21.5742 159.615 21.4453 159.99 21.1875C160.365 20.9219 160.65 20.5586 160.846 20.0977C161.049 19.6367 161.166 19.1055 161.197 18.5039V16.9688C161.174 16.4766 161.104 16.0352 160.986 15.6445C160.877 15.2461 160.713 14.9062 160.494 14.625C160.283 14.3438 160.018 14.125 159.697 13.9688C159.385 13.8125 159.014 13.7344 158.584 13.7344C158.146 13.7344 157.771 13.8359 157.459 14.0391C157.146 14.2344 156.893 14.5039 156.697 14.8477C156.51 15.1914 156.369 15.5977 156.275 16.0664C156.189 16.5273 156.146 17.0273 156.146 17.5664ZM172.658 24.2344C171.674 24.2344 170.791 24.0781 170.01 23.7656C169.229 23.4453 168.564 23.0039 168.018 22.4414C167.479 21.8789 167.064 21.2266 166.775 20.4844C166.486 19.7344 166.342 18.9375 166.342 18.0938V17.625C166.342 16.6641 166.479 15.7852 166.752 14.9883C167.025 14.1914 167.416 13.5 167.924 12.9141C168.439 12.3281 169.064 11.8789 169.799 11.5664C170.533 11.2461 171.361 11.0859 172.283 11.0859C173.182 11.0859 173.979 11.2344 174.674 11.5312C175.369 11.8281 175.951 12.25 176.42 12.7969C176.896 13.3438 177.256 14 177.498 14.7656C177.74 15.5234 177.861 16.3672 177.861 17.2969V18.7031H167.783V16.4531H174.545V16.1953C174.545 15.7266 174.459 15.3086 174.287 14.9414C174.123 14.5664 173.873 14.2695 173.537 14.0508C173.201 13.832 172.771 13.7227 172.248 13.7227C171.803 13.7227 171.42 13.8203 171.1 14.0156C170.779 14.2109 170.518 14.4844 170.314 14.8359C170.119 15.1875 169.971 15.6016 169.869 16.0781C169.775 16.5469 169.729 17.0625 169.729 17.625V18.0938C169.729 18.6016 169.799 19.0703 169.939 19.5C170.088 19.9297 170.295 20.3008 170.561 20.6133C170.834 20.9258 171.162 21.168 171.545 21.3398C171.936 21.5117 172.377 21.5977 172.869 21.5977C173.479 21.5977 174.045 21.4805 174.568 21.2461C175.1 21.0039 175.557 20.6406 175.939 20.1562L177.58 21.9375C177.314 22.3203 176.951 22.6875 176.49 23.0391C176.037 23.3906 175.49 23.6797 174.85 23.9062C174.209 24.125 173.479 24.2344 172.658 24.2344ZM183.158 14.0859V24H179.783V11.3203H182.959L183.158 14.0859ZM186.979 11.2383L186.92 14.3672C186.756 14.3438 186.557 14.3242 186.322 14.3086C186.096 14.2852 185.889 14.2734 185.701 14.2734C185.225 14.2734 184.811 14.3359 184.459 14.4609C184.115 14.5781 183.826 14.7539 183.592 14.9883C183.365 15.2227 183.193 15.5078 183.076 15.8438C182.967 16.1797 182.904 16.5625 182.889 16.9922L182.209 16.7812C182.209 15.9609 182.291 15.207 182.455 14.5195C182.619 13.8242 182.857 13.2188 183.17 12.7031C183.49 12.1875 183.881 11.7891 184.342 11.5078C184.803 11.2266 185.33 11.0859 185.924 11.0859C186.111 11.0859 186.303 11.1016 186.498 11.1328C186.693 11.1562 186.854 11.1914 186.979 11.2383Z" fill="#697077"/>
</svg>
