<svg width="200" height="32" viewBox="0 0 200 32" fill="none" xmlns="http://www.w3.org/2000/svg">
<path d="M16.2919 19.9817V28.1025C16.2919 28.4138 16.1682 28.7124 15.9481 28.9324C15.728 29.1526 15.4295 29.2762 15.1181 29.2762C14.8069 29.2762 14.5083 29.1526 14.2882 28.9324C14.068 28.7124 13.9444 28.4138 13.9444 28.1025V19.993C14.2712 20.2317 14.663 20.3649 15.0676 20.3749C15.5086 20.3874 15.9406 20.2487 16.2919 19.9817ZM26.2884 17.6343C25.9905 17.6343 25.7047 17.7526 25.4941 17.9632C25.2835 18.1738 25.1652 18.4596 25.1652 18.7575V20.1727C25.1652 20.484 25.2888 20.7826 25.509 21.0026C25.729 21.2228 26.0276 21.3464 26.3389 21.3464C26.6503 21.3464 26.9488 21.2228 27.1688 21.0026C27.389 20.7826 27.5127 20.484 27.5127 20.1727V18.8136C27.5214 18.6526 27.4954 18.4915 27.4363 18.3414C27.3772 18.1914 27.2866 18.0557 27.1703 17.9438C27.0542 17.8319 26.9152 17.7464 26.7631 17.6929C26.6109 17.6395 26.449 17.6195 26.2884 17.6343ZM11.3947 23.0593C10.9906 23.0472 10.5993 22.9142 10.2715 22.6774V30.8206C10.2715 31.1335 10.3958 31.4335 10.6169 31.6546C10.8381 31.8758 11.1381 32 11.4509 32C11.7637 32 12.0636 31.8758 12.2848 31.6546C12.506 31.4335 12.6302 31.1335 12.6302 30.8206V22.7336C12.2635 22.9707 11.8307 23.0848 11.3947 23.0593ZM22.6267 15.1969C22.4745 15.1893 22.3225 15.2127 22.1796 15.2658C22.0368 15.3188 21.9063 15.4003 21.7959 15.5053C21.6856 15.6105 21.5979 15.7368 21.5379 15.8769C21.478 16.017 21.4471 16.1678 21.4474 16.3201V22.5763C21.4474 22.8892 21.5716 23.1892 21.7928 23.4103C22.014 23.6315 22.3139 23.7557 22.6267 23.7557C22.9395 23.7557 23.2395 23.6315 23.4607 23.4103C23.6819 23.1892 23.8061 22.8892 23.8061 22.5763V16.3987C23.8151 16.2367 23.7888 16.0746 23.729 15.9236C23.6693 15.7727 23.5776 15.6364 23.4601 15.5243C23.3427 15.4122 23.2024 15.3269 23.0488 15.2743C22.8953 15.2216 22.7321 15.2029 22.5706 15.2194L22.6267 15.1969ZM18.8977 17.6006C18.4746 17.5976 18.0628 17.4643 17.7183 17.2187V25.3843C17.7183 25.6972 17.8426 25.9972 18.0637 26.2183C18.285 26.4395 18.5849 26.5637 18.8977 26.5637C19.2105 26.5637 19.5104 26.4395 19.7317 26.2183C19.9528 25.9972 20.0771 25.6972 20.0771 25.3843V17.2299C19.7208 17.4953 19.2858 17.6337 18.8415 17.623L18.8977 17.6006ZM8.84505 23.8568V1.04458C8.8421 0.766506 8.72955 0.500847 8.53187 0.305264C8.33418 0.109681 8.06732 -1.12311e-05 7.78924 8.625e-10H7.54214C7.26406 -1.12311e-05 6.99719 0.109681 6.79951 0.305264C6.60183 0.500847 6.48928 0.766506 6.48633 1.04458V23.8568C6.48633 24.1368 6.59757 24.4054 6.79557 24.6034C6.99357 24.8014 7.26212 24.9126 7.54214 24.9126H7.78924C8.06927 24.9126 8.33781 24.8014 8.53581 24.6034C8.73382 24.4054 8.84505 24.1368 8.84505 23.8568ZM11.5183 22.1945H11.2712C10.9912 22.1945 10.7226 22.0833 10.5246 21.8852C10.3266 21.6872 10.2154 21.4187 10.2154 21.1386V3.76272C10.2183 3.48466 10.3309 3.21898 10.5285 3.02341C10.7262 2.82783 10.9931 2.71814 11.2712 2.71815H11.5183C11.7964 2.71814 12.0632 2.82783 12.2609 3.02341C12.4586 3.21898 12.5711 3.48466 12.5741 3.76272V21.1611C12.5741 21.4411 12.4628 21.7097 12.2648 21.9077C12.0668 22.1057 11.7983 22.2169 11.5183 22.2169V22.1945ZM15.2361 19.5212H14.9777C14.7007 19.5212 14.435 19.4112 14.2391 19.2153C14.0432 19.0194 13.9332 18.7538 13.9332 18.4767V6.45841C13.9317 6.32029 13.9576 6.18325 14.0094 6.05521C14.0612 5.92718 14.1379 5.8107 14.2351 5.71251C14.3322 5.61432 14.4479 5.53637 14.5754 5.48318C14.7029 5.42998 14.8396 5.40259 14.9777 5.4026H15.2361C15.5142 5.40556 15.7798 5.5181 15.9754 5.71578C16.171 5.91346 16.2806 6.18032 16.2806 6.45841V18.4767C16.2806 18.7538 16.1706 19.0194 15.9747 19.2153C15.7788 19.4112 15.5132 19.5212 15.2361 19.5212ZM18.9539 16.7694H18.718C18.4399 16.7694 18.173 16.6598 17.9753 16.4641C17.7776 16.2686 17.6651 16.0029 17.6622 15.7248V9.25518C17.653 9.11096 17.6734 8.9664 17.7224 8.83038C17.7712 8.69448 17.8476 8.56991 17.9466 8.46467C18.0455 8.35931 18.165 8.27552 18.2978 8.21824C18.4304 8.16107 18.5734 8.13164 18.718 8.13198H18.9651C19.2451 8.13198 19.5137 8.24317 19.7117 8.44119C19.9097 8.63921 20.0209 8.90777 20.0209 9.18779V15.7024C20.0224 15.842 19.9962 15.9805 19.9437 16.1098C19.8914 16.2392 19.8139 16.357 19.7156 16.4562C19.6174 16.5554 19.5006 16.6342 19.3717 16.688C19.2429 16.7418 19.1047 16.7694 18.9651 16.7694H18.9539ZM22.6829 14.3545H22.4358C22.1558 14.3545 21.8872 14.2433 21.6892 14.0453C21.4912 13.8473 21.38 13.5787 21.38 13.2987V11.6251C21.3829 11.347 21.4954 11.0814 21.6931 10.8858C21.8908 10.6902 22.1577 10.5806 22.4358 10.5806H22.6829C22.961 10.5806 23.2279 10.6902 23.4255 10.8858C23.6232 11.0814 23.7358 11.347 23.7387 11.6251V13.2987C23.7387 13.5768 23.6291 13.8437 23.4334 14.0414C23.2379 14.239 22.9722 14.3516 22.6941 14.3545H22.6829Z" fill="#697077"/>
<path d="M39.7412 20.4697L42.29 9.70312H43.7139L44.0391 11.4961L41.3232 22.5H39.7939L39.7412 20.4697ZM38.4316 9.70312L40.541 20.4697L40.3652 22.5H38.6602L35.8213 9.70312H38.4316ZM46.2803 20.4258L48.3633 9.70312H50.9736L48.1436 22.5H46.4385L46.2803 20.4258ZM44.5137 9.70312L47.0801 20.5137L47.0098 22.5H45.4805L42.7471 11.4873L43.0986 9.70312H44.5137ZM57.2227 11.8916L53.7422 22.5H50.9385L55.6934 9.70312H57.4775L57.2227 11.8916ZM60.1143 22.5L56.625 11.8916L56.3438 9.70312H58.1455L62.9268 22.5H60.1143ZM59.9561 17.7363V19.8018H53.1973V17.7363H59.9561ZM68.0068 19.8281L71.0215 9.70312H73.957L69.501 22.5H67.5674L68.0068 19.8281ZM65.2295 9.70312L68.2354 19.8281L68.6924 22.5H66.7412L62.3115 9.70312H65.2295ZM83.7393 20.4434V22.5H76.9277V20.4434H83.7393ZM77.7891 9.70312V22.5H75.1523V9.70312H77.7891ZM82.8516 14.915V16.9189H76.9277V14.915H82.8516ZM83.7305 9.70312V11.7686H76.9277V9.70312H83.7305ZM91.9395 19.1514C91.9395 18.9229 91.9043 18.7178 91.834 18.5361C91.7695 18.3486 91.6465 18.1787 91.4648 18.0264C91.2832 17.8682 91.0283 17.7129 90.7002 17.5605C90.3721 17.4082 89.9473 17.25 89.4258 17.0859C88.8457 16.8984 88.2949 16.6875 87.7734 16.4531C87.2578 16.2188 86.8008 15.9463 86.4023 15.6357C86.0098 15.3193 85.6992 14.9531 85.4707 14.5371C85.248 14.1211 85.1367 13.6377 85.1367 13.0869C85.1367 12.5537 85.2539 12.0703 85.4883 11.6367C85.7227 11.1973 86.0508 10.8223 86.4727 10.5117C86.8945 10.1953 87.3926 9.95215 87.9668 9.78223C88.5469 9.6123 89.1826 9.52734 89.874 9.52734C90.8174 9.52734 91.6406 9.69727 92.3438 10.0371C93.0469 10.377 93.5918 10.8428 93.9785 11.4346C94.3711 12.0264 94.5674 12.7031 94.5674 13.4648H91.9482C91.9482 13.0898 91.8691 12.7617 91.7109 12.4805C91.5586 12.1934 91.3242 11.9678 91.0078 11.8037C90.6973 11.6396 90.3047 11.5576 89.8301 11.5576C89.373 11.5576 88.9922 11.6279 88.6875 11.7686C88.3828 11.9033 88.1543 12.0879 88.002 12.3223C87.8496 12.5508 87.7734 12.8086 87.7734 13.0957C87.7734 13.3125 87.8262 13.5088 87.9316 13.6846C88.043 13.8604 88.207 14.0244 88.4238 14.1768C88.6406 14.3291 88.9072 14.4727 89.2236 14.6074C89.54 14.7422 89.9062 14.874 90.3223 15.0029C91.0195 15.2139 91.6318 15.4512 92.1592 15.7148C92.6924 15.9785 93.1377 16.2744 93.4951 16.6025C93.8525 16.9307 94.1221 17.3027 94.3037 17.7188C94.4854 18.1348 94.5762 18.6064 94.5762 19.1338C94.5762 19.6904 94.4678 20.1885 94.251 20.6279C94.0342 21.0674 93.7207 21.4395 93.3105 21.7441C92.9004 22.0488 92.4111 22.2803 91.8428 22.4385C91.2744 22.5967 90.6387 22.6758 89.9355 22.6758C89.3027 22.6758 88.6787 22.5938 88.0635 22.4297C87.4482 22.2598 86.8887 22.0049 86.3848 21.665C85.8867 21.3252 85.4883 20.8916 85.1895 20.3643C84.8906 19.8369 84.7412 19.2129 84.7412 18.4922H87.3867C87.3867 18.8906 87.4482 19.2275 87.5713 19.5029C87.6943 19.7783 87.8672 20.001 88.0898 20.1709C88.3184 20.3408 88.5879 20.4639 88.8984 20.54C89.2148 20.6162 89.5605 20.6543 89.9355 20.6543C90.3926 20.6543 90.7676 20.5898 91.0605 20.4609C91.3594 20.332 91.5791 20.1533 91.7197 19.9248C91.8662 19.6963 91.9395 19.4385 91.9395 19.1514ZM97.248 9.70312H98.8916L103.084 20.1357L107.268 9.70312H108.92L103.717 22.5H102.434L97.248 9.70312ZM96.7119 9.70312H98.1621L98.3994 17.5078V22.5H96.7119V9.70312ZM107.997 9.70312H109.447V22.5H107.76V17.5078L107.997 9.70312ZM117.322 10.8369L113.086 22.5H111.354L116.232 9.70312H117.349L117.322 10.8369ZM120.873 22.5L116.628 10.8369L116.602 9.70312H117.718L122.613 22.5H120.873ZM120.653 17.7627V19.1514H113.464V17.7627H120.653ZM124.327 9.70312H128.563C129.524 9.70312 130.336 9.84961 130.998 10.1426C131.666 10.4355 132.173 10.8691 132.519 11.4434C132.87 12.0117 133.046 12.7119 133.046 13.5439C133.046 14.1299 132.926 14.666 132.686 15.1523C132.451 15.6328 132.111 16.043 131.666 16.3828C131.227 16.7168 130.699 16.9658 130.084 17.1299L129.609 17.3145H125.628L125.61 15.9346H128.616C129.226 15.9346 129.732 15.8291 130.137 15.6182C130.541 15.4014 130.846 15.1113 131.051 14.748C131.256 14.3848 131.358 13.9834 131.358 13.5439C131.358 13.0518 131.262 12.6211 131.068 12.252C130.875 11.8828 130.57 11.5986 130.154 11.3994C129.744 11.1943 129.214 11.0918 128.563 11.0918H126.023V22.5H124.327V9.70312ZM131.807 22.5L128.695 16.6992L130.462 16.6904L133.617 22.3945V22.5H131.807ZM140.156 10.8369L135.92 22.5H134.188L139.066 9.70312H140.183L140.156 10.8369ZM143.707 22.5L139.462 10.8369L139.436 9.70312H140.552L145.447 22.5H143.707ZM143.487 17.7627V19.1514H136.298V17.7627H143.487ZM150.747 9.70312V22.5H149.077V9.70312H150.747ZM154.86 9.70312V11.0918H144.973V9.70312H154.86ZM165.117 15.2051V16.585H158.191V15.2051H165.117ZM158.455 9.70312V22.5H156.759V9.70312H158.455ZM166.594 9.70312V22.5H164.906V9.70312H166.594ZM179.461 15.6973V16.5059C179.461 17.4668 179.341 18.3281 179.101 19.0898C178.86 19.8516 178.515 20.499 178.063 21.0322C177.612 21.5654 177.07 21.9727 176.438 22.2539C175.811 22.5352 175.107 22.6758 174.328 22.6758C173.572 22.6758 172.878 22.5352 172.245 22.2539C171.618 21.9727 171.073 21.5654 170.61 21.0322C170.153 20.499 169.799 19.8516 169.547 19.0898C169.295 18.3281 169.169 17.4668 169.169 16.5059V15.6973C169.169 14.7363 169.292 13.8779 169.538 13.1221C169.79 12.3604 170.145 11.7129 170.602 11.1797C171.059 10.6406 171.601 10.2305 172.228 9.94922C172.86 9.66797 173.555 9.52734 174.311 9.52734C175.09 9.52734 175.793 9.66797 176.42 9.94922C177.053 10.2305 177.595 10.6406 178.046 11.1797C178.503 11.7129 178.852 12.3604 179.092 13.1221C179.338 13.8779 179.461 14.7363 179.461 15.6973ZM177.782 16.5059V15.6797C177.782 14.918 177.703 14.2441 177.545 13.6582C177.393 13.0723 177.167 12.5801 176.868 12.1816C176.569 11.7832 176.203 11.4814 175.77 11.2764C175.342 11.0713 174.855 10.9688 174.311 10.9688C173.783 10.9688 173.306 11.0713 172.878 11.2764C172.456 11.4814 172.093 11.7832 171.788 12.1816C171.489 12.5801 171.258 13.0723 171.094 13.6582C170.93 14.2441 170.848 14.918 170.848 15.6797V16.5059C170.848 17.2734 170.93 17.9531 171.094 18.5449C171.258 19.1309 171.492 19.626 171.797 20.0303C172.107 20.4287 172.474 20.7305 172.896 20.9355C173.323 21.1406 173.801 21.2432 174.328 21.2432C174.879 21.2432 175.368 21.1406 175.796 20.9355C176.224 20.7305 176.584 20.4287 176.877 20.0303C177.176 19.626 177.401 19.1309 177.554 18.5449C177.706 17.9531 177.782 17.2734 177.782 16.5059ZM191.845 9.70312V22.5H190.14L183.697 12.6299V22.5H182.001V9.70312H183.697L190.166 19.5996V9.70312H191.845Z" fill="#697077"/>
</svg>
